  0
SECTION
  2
HEADER
  9
$ACADVER
  1
AC1018
  9
$ACADMAINTVER
 70
     0
  9
$DWGCODEPAGE
  3
ASCII
  9
$INSBASE
 10
0.0
 20
0.0
 30
0.0
  9
$EXTMIN
 10
1.000000000000000E+20
 20
1.000000000000000E+20
 30
1.000000000000000E+20
  9
$EXTMAX
 10
-1.000000000000000E+20
 20
-1.000000000000000E+20
 30
-1.000000000000000E+20
  9
$LIMMIN
 10
0.0
 20
0.0
  9
$LIMMAX
 10
12.0
 20
9.0
  9
$ORTHOMODE
 70
     0
  9
$REGENMODE
 70
     1
  9
$FILLMODE
 70
     1
  9
$QTEXTMODE
 70
     0
  9
$MIRRTEXT
 70
     1
  9
$LTSCALE
 40
1.0
  9
$ATTMODE
 70
     1
  9
$TEXTSIZE
 40
0.2
  9
$TRACEWID
 40
0.05
  9
$TEXTSTYLE
  7
Standard
  9
$CLAYER
  8
0
  9
$CELTYPE
  6
ByLayer
  9
$CECOLOR
 62
   256
  9
$CELTSCALE
 40
1.0
  9
$DISPSILH
 70
     0
  9
$DIMSCALE
 40
1.0
  9
$DIMASZ
 40
0.18
  9
$DIMEXO
 40
0.0625
  9
$DIMDLI
 40
0.38
  9
$DIMRND
 40
0.0
  9
$DIMDLE
 40
0.0
  9
$DIMEXE
 40
0.18
  9
$DIMTP
 40
0.0
  9
$DIMTM
 40
0.0
  9
$DIMTXT
 40
0.18
  9
$DIMCEN
 40
0.09
  9
$DIMTSZ
 40
0.0
  9
$DIMTOL
 70
     0
  9
$DIMLIM
 70
     0
  9
$DIMTIH
 70
     1
  9
$DIMTOH
 70
     1
  9
$DIMSE1
 70
     0
  9
$DIMSE2
 70
     0
  9
$DIMTAD
 70
     0
  9
$DIMZIN
 70
     0
  9
$DIMBLK
  1

  9
$DIMASO
 70
     1
  9
$DIMSHO
 70
     1
  9
$DIMPOST
  1

  9
$DIMAPOST
  1

  9
$DIMALT
 70
     0
  9
$DIMALTD
 70
     2
  9
$DIMALTF
 40
25.4
  9
$DIMLFAC
 40
1.0
  9
$DIMTOFL
 70
     0
  9
$DIMTVP
 40
0.0
  9
$DIMTIX
 70
     0
  9
$DIMSOXD
 70
     0
  9
$DIMSAH
 70
     0
  9
$DIMBLK1
  1

  9
$DIMBLK2
  1

  9
$DIMSTYLE
  2
Standard
  9
$DIMCLRD
 70
     0
  9
$DIMCLRE
 70
     0
  9
$DIMCLRT
 70
     0
  9
$DIMTFAC
 40
1.0
  9
$DIMGAP
 40
0.09
  9
$DIMJUST
 70
     0
  9
$DIMSD1
 70
     0
  9
$DIMSD2
 70
     0
  9
$DIMTOLJ
 70
     1
  9
$DIMTZIN
 70
     0
  9
$DIMALTZ
 70
     0
  9
$DIMALTTZ
 70
     0
  9
$DIMUPT
 70
     0
  9
$DIMDEC
 70
     4
  9
$DIMTDEC
 70
     4
  9
$DIMALTU
 70
     2
  9
$DIMALTTD
 70
     2
  9
$DIMTXSTY
  7
Standard
  9
$DIMAUNIT
 70
     0
  9
$DIMADEC
 70
     0
  9
$DIMALTRND
 40
0.0
  9
$DIMAZIN
 70
     0
  9
$DIMDSEP
 70
    46
  9
$DIMATFIT
 70
     3
  9
$DIMFRAC
 70
     0
  9
$DIMLDRBLK
  1

  9
$DIMLUNIT
 70
     2
  9
$DIMLWD
 70
    -2
  9
$DIMLWE
 70
    -2
  9
$DIMTMOVE
 70
     0
  9
$LUNITS
 70
     2
  9
$LUPREC
 70
     4
  9
$SKETCHINC
 40
0.1
  9
$FILLETRAD
 40
0.5
  9
$AUNITS
 70
     0
  9
$AUPREC
 70
     0
  9
$MENU
  1
.
  9
$ELEVATION
 40
0.0
  9
$PELEVATION
 40
0.0
  9
$THICKNESS
 40
0.0
  9
$LIMCHECK
 70
     0
  9
$CHAMFERA
 40
0.5
  9
$CHAMFERB
 40
0.5
  9
$CHAMFERC
 40
1.0
  9
$CHAMFERD
 40
0.0
  9
$SKPOLY
 70
     0
  9
$TDCREATE
 40
2458938.898879329
  9
$TDUCREATE
 40
2458938.669712662
  9
$TDUPDATE
 40
2458938.89887934
  9
$TDUUPDATE
 40
2458938.669712673
  9
$TDINDWG
 40
0.0000000116
  9
$TDUSRTIMER
 40
0.0000000116
  9
$USRTIMER
 70
     1
  9
$ANGBASE
 50
0.0
  9
$ANGDIR
 70
     0
  9
$PDMODE
 70
     0
  9
$PDSIZE
 40
0.0
  9
$PLINEWID
 40
0.0
  9
$SPLFRAME
 70
     0
  9
$SPLINETYPE
 70
     6
  9
$SPLINESEGS
 70
     8
  9
$HANDSEED
  5
11B
  9
$SURFTAB1
 70
     6
  9
$SURFTAB2
 70
     6
  9
$SURFTYPE
 70
     6
  9
$SURFU
 70
     6
  9
$SURFV
 70
     6
  9
$UCSBASE
  2

  9
$UCSNAME
  2

  9
$UCSORG
 10
0.0
 20
0.0
 30
0.0
  9
$UCSXDIR
 10
1.0
 20
0.0
 30
0.0
  9
$UCSYDIR
 10
0.0
 20
1.0
 30
0.0
  9
$UCSORTHOREF
  2

  9
$UCSORTHOVIEW
 70
     0
  9
$UCSORGTOP
 10
0.0
 20
0.0
 30
0.0
  9
$UCSORGBOTTOM
 10
0.0
 20
0.0
 30
0.0
  9
$UCSORGLEFT
 10
0.0
 20
0.0
 30
0.0
  9
$UCSORGRIGHT
 10
0.0
 20
0.0
 30
0.0
  9
$UCSORGFRONT
 10
0.0
 20
0.0
 30
0.0
  9
$UCSORGBACK
 10
0.0
 20
0.0
 30
0.0
  9
$PUCSBASE
  2

  9
$PUCSNAME
  2

  9
$PUCSORG
 10
0.0
 20
0.0
 30
0.0
  9
$PUCSXDIR
 10
1.0
 20
0.0
 30
0.0
  9
$PUCSYDIR
 10
0.0
 20
1.0
 30
0.0
  9
$PUCSORTHOREF
  2

  9
$PUCSORTHOVIEW
 70
     0
  9
$PUCSORGTOP
 10
0.0
 20
0.0
 30
0.0
  9
$PUCSORGBOTTOM
 10
0.0
 20
0.0
 30
0.0
  9
$PUCSORGLEFT
 10
0.0
 20
0.0
 30
0.0
  9
$PUCSORGRIGHT
 10
0.0
 20
0.0
 30
0.0
  9
$PUCSORGFRONT
 10
0.0
 20
0.0
 30
0.0
  9
$PUCSORGBACK
 10
0.0
 20
0.0
 30
0.0
  9
$USERI1
 70
     0
  9
$USERI2
 70
     0
  9
$USERI3
 70
     0
  9
$USERI4
 70
     0
  9
$USERI5
 70
     0
  9
$USERR1
 40
0.0
  9
$USERR2
 40
0.0
  9
$USERR3
 40
0.0
  9
$USERR4
 40
0.0
  9
$USERR5
 40
0.0
  9
$WORLDVIEW
 70
     1
  9
$SHADEDGE
 70
     3
  9
$SHADEDIF
 70
    70
  9
$TILEMODE
 70
     1
  9
$MAXACTVP
 70
    64
  9
$PINSBASE
 10
0.0
 20
0.0
 30
0.0
  9
$PLIMCHECK
 70
     0
  9
$PEXTMIN
 10
1.000000000000000E+20
 20
1.000000000000000E+20
 30
1.000000000000000E+20
  9
$PEXTMAX
 10
-1.000000000000000E+20
 20
-1.000000000000000E+20
 30
-1.000000000000000E+20
  9
$PLIMMIN
 10
0.0
 20
0.0
  9
$PLIMMAX
 10
12.0
 20
9.0
  9
$UNITMODE
 70
     0
  9
$VISRETAIN
 70
     1
  9
$PLINEGEN
 70
     0
  9
$PSLTSCALE
 70
     1
  9
$TREEDEPTH
 70
  3020
  9
$CMLSTYLE
  2
Standard
  9
$CMLJUST
 70
     0
  9
$CMLSCALE
 40
1.0
  9
$PROXYGRAPHICS
 70
     1
  9
$MEASUREMENT
 70
     0
  9
$CELWEIGHT
370
    -1
  9
$ENDCAPS
280
     0
  9
$JOINSTYLE
280
     0
  9
$LWDISPLAY
290
     1
  9
$INSUNITS
 70
     1
  9
$HYPERLINKBASE
  1

  9
$STYLESHEET
  1

  9
$XEDIT
290
     1
  9
$CEPSNTYPE
380
     0
  9
$PSTYLEMODE
290
     1
  9
$FINGERPRINTGUID
  2
{141A5E98-9DF5-4D47-87E7-EDD983410028}
  9
$VERSIONGUID
  2
{FAEB1C32-E019-11D5-929B-00C0DF256EC4}
  9
$EXTNAMES
290
     1
  9
$PSVPSCALE
 40
0.0
  9
$OLESTARTUP
290
     0
  9
$SORTENTS
280
   127
  9
$INDEXCTL
280
     0
  9
$HIDETEXT
280
     1
  9
$XCLIPFRAME
290
     0
  9
$HALOGAP
280
     0
  9
$OBSCOLOR
 70
   257
  9
$OBSLTYPE
280
     0
  9
$INTERSECTIONDISPLAY
280
     0
  9
$INTERSECTIONCOLOR
 70
   257
  9
$DIMASSOC
280
     2
  9
$PROJECTNAME
  1

  0
ENDSEC
  0
SECTION
  2
CLASSES
  0
CLASS
  1
ACDBDICTIONARYWDFLT
  2
AcDbDictionaryWithDefault
  3
ObjectDBX Classes
 90
        0
 91
        3
280
     0
281
     0
  0
CLASS
  1
VISUALSTYLE
  2
AcDbVisualStyle
  3
ObjectDBX Classes
 90
     4095
 91
        3
280
     0
281
     0
  0
ENDSEC
  0
SECTION
  2
TABLES
  0
TABLE
  2
VPORT
  5
8
330
0
100
AcDbSymbolTable
 70
     1
  0
VPORT
  5
29
330
8
100
AcDbSymbolTableRecord
100
AcDbViewportTableRecord
  2
*Active
 70
     0
 10
0.0
 20
0.0
 11
1.0
 21
1.0
 12
0.0
 22
0.0
 13
0.0
 23
0.0
 14
0.5
 24
0.5
 15
0.5
 25
0.5
 16
0.0
 26
0.0
 36
1.0
 17
250.000244140625
 27
250.000244140625
 37
0.0
 40
474.90283203125
 41
0.7490461144909372
 42
50.0
 43
0.0
 44
0.0
 50
0.0
 51
0.0
 71
     0
 72
   100
 73
     1
 74
     3
 75
     0
 76
     0
 77
     0
 78
     0
281
     0
 65
     1
110
0.0
120
0.0
130
0.0
111
1.0
121
0.0
131
0.0
112
0.0
122
1.0
132
0.0
 79
     0
146
0.0
  0
ENDTAB
  0
TABLE
  2
LTYPE
  5
5
330
0
100
AcDbSymbolTable
 70
     1
  0
LTYPE
  5
14
330
5
100
AcDbSymbolTableRecord
100
AcDbLinetypeTableRecord
  2
ByBlock
 70
     0
  3

 72
    65
 73
     0
 40
0.0
  0
LTYPE
  5
15
330
5
100
AcDbSymbolTableRecord
100
AcDbLinetypeTableRecord
  2
ByLayer
 70
     0
  3

 72
    65
 73
     0
 40
0.0
  0
LTYPE
  5
16
330
5
100
AcDbSymbolTableRecord
100
AcDbLinetypeTableRecord
  2
Continuous
 70
     0
  3
Solid line
 72
    65
 73
     0
 40
0.0
  0
ENDTAB
  0
TABLE
  2
LAYER
  5
2
330
0
100
AcDbSymbolTable
 70
     2
  0
LAYER
  5
10
330
2
100
AcDbSymbolTableRecord
100
AcDbLayerTableRecord
  2
0
 70
     0
 62
     7
  6
Continuous
370
    -3
390
F
  0
LAYER
  5
3B
330
2
100
AcDbSymbolTableRecord
100
AcDbLayerTableRecord
  2
Layer 1
 70
     0
 62
     7
  6
Continuous
370
    -3
390
F
  0
ENDTAB
  0
TABLE
  2
STYLE
  5
3
330
0
100
AcDbSymbolTable
 70
     1
  0
STYLE
  5
11
330
3
100
AcDbSymbolTableRecord
100
AcDbTextStyleTableRecord
  2
Standard
 70
     0
 40
0.0
 41
1.0
 50
0.0
 71
     0
 42
0.2
  3
txt
  4

  0
ENDTAB
  0
TABLE
  2
VIEW
  5
6
330
0
100
AcDbSymbolTable
 70
     0
  0
ENDTAB
  0
TABLE
  2
UCS
  5
7
330
0
100
AcDbSymbolTable
 70
     0
  0
ENDTAB
  0
TABLE
  2
APPID
  5
9
330
0
100
AcDbSymbolTable
 70
     1
  0
APPID
  5
12
330
9
100
AcDbSymbolTableRecord
100
AcDbRegAppTableRecord
  2
ACAD
 70
     0
  0
ENDTAB
  0
TABLE
  2
DIMSTYLE
  5
A
330
0
100
AcDbSymbolTable
 70
     1
100
AcDbDimStyleTable
  0
DIMSTYLE
105
27
330
A
100
AcDbSymbolTableRecord
100
AcDbDimStyleTableRecord
  2
Standard
 70
     0
340
11
  0
ENDTAB
  0
TABLE
  2
BLOCK_RECORD
  5
1
330
0
100
AcDbSymbolTable
 70
    47
  0
BLOCK_RECORD
  5
1F
330
1
100
AcDbSymbolTableRecord
100
AcDbBlockTableRecord
  2
*Model_Space
340
22
  0
BLOCK_RECORD
  5
1B
330
1
100
AcDbSymbolTableRecord
100
AcDbBlockTableRecord
  2
*Paper_Space
340
1E
  0
BLOCK_RECORD
  5
23
330
1
100
AcDbSymbolTableRecord
100
AcDbBlockTableRecord
  2
*Paper_Space0
340
26
  0
BLOCK_RECORD
  5
3C
330
1
100
AcDbSymbolTableRecord
100
AcDbBlockTableRecord
  2
block 2
340
0
102
{BLKREFS
331
3D
102
}
  0
BLOCK_RECORD
  5
41
330
1
100
AcDbSymbolTableRecord
100
AcDbBlockTableRecord
  2
block 3
340
0
102
{BLKREFS
331
42
102
}
  0
BLOCK_RECORD
  5
45
330
1
100
AcDbSymbolTableRecord
100
AcDbBlockTableRecord
  2
block 4
340
0
102
{BLKREFS
331
46
102
}
  0
BLOCK_RECORD
  5
4A
330
1
100
AcDbSymbolTableRecord
100
AcDbBlockTableRecord
  2
block 5
340
0
102
{BLKREFS
331
4B
102
}
  0
BLOCK_RECORD
  5
4F
330
1
100
AcDbSymbolTableRecord
100
AcDbBlockTableRecord
  2
block 6
340
0
102
{BLKREFS
331
50
102
}
  0
BLOCK_RECORD
  5
54
330
1
100
AcDbSymbolTableRecord
100
AcDbBlockTableRecord
  2
block 7
340
0
102
{BLKREFS
331
55
102
}
  0
BLOCK_RECORD
  5
59
330
1
100
AcDbSymbolTableRecord
100
AcDbBlockTableRecord
  2
block 8
340
0
102
{BLKREFS
331
5A
102
}
  0
BLOCK_RECORD
  5
5D
330
1
100
AcDbSymbolTableRecord
100
AcDbBlockTableRecord
  2
block 9
340
0
102
{BLKREFS
331
5E
102
}
  0
BLOCK_RECORD
  5
62
330
1
100
AcDbSymbolTableRecord
100
AcDbBlockTableRecord
  2
block 10
340
0
102
{BLKREFS
331
63
102
}
  0
BLOCK_RECORD
  5
67
330
1
100
AcDbSymbolTableRecord
100
AcDbBlockTableRecord
  2
block 11
340
0
102
{BLKREFS
331
68
102
}
  0
BLOCK_RECORD
  5
6F
330
1
100
AcDbSymbolTableRecord
100
AcDbBlockTableRecord
  2
block 12
340
0
102
{BLKREFS
331
70
102
}
  0
BLOCK_RECORD
  5
73
330
1
100
AcDbSymbolTableRecord
100
AcDbBlockTableRecord
  2
block 13
340
0
102
{BLKREFS
331
74
102
}
  0
BLOCK_RECORD
  5
77
330
1
100
AcDbSymbolTableRecord
100
AcDbBlockTableRecord
  2
block 14
340
0
102
{BLKREFS
331
78
102
}
  0
BLOCK_RECORD
  5
7C
330
1
100
AcDbSymbolTableRecord
100
AcDbBlockTableRecord
  2
block 15
340
0
102
{BLKREFS
331
7D
102
}
  0
BLOCK_RECORD
  5
81
330
1
100
AcDbSymbolTableRecord
100
AcDbBlockTableRecord
  2
block 16
340
0
102
{BLKREFS
331
82
102
}
  0
BLOCK_RECORD
  5
85
330
1
100
AcDbSymbolTableRecord
100
AcDbBlockTableRecord
  2
block 17
340
0
102
{BLKREFS
331
86
102
}
  0
BLOCK_RECORD
  5
8A
330
1
100
AcDbSymbolTableRecord
100
AcDbBlockTableRecord
  2
block 18
340
0
102
{BLKREFS
331
8B
102
}
  0
BLOCK_RECORD
  5
8E
330
1
100
AcDbSymbolTableRecord
100
AcDbBlockTableRecord
  2
block 19
340
0
102
{BLKREFS
331
8F
102
}
  0
BLOCK_RECORD
  5
93
330
1
100
AcDbSymbolTableRecord
100
AcDbBlockTableRecord
  2
block 20
340
0
102
{BLKREFS
331
94
102
}
  0
BLOCK_RECORD
  5
97
330
1
100
AcDbSymbolTableRecord
100
AcDbBlockTableRecord
  2
block 21
340
0
102
{BLKREFS
331
98
102
}
  0
BLOCK_RECORD
  5
9C
330
1
100
AcDbSymbolTableRecord
100
AcDbBlockTableRecord
  2
block 22
340
0
102
{BLKREFS
331
9D
102
}
  0
BLOCK_RECORD
  5
A0
330
1
100
AcDbSymbolTableRecord
100
AcDbBlockTableRecord
  2
block 23
340
0
102
{BLKREFS
331
A1
102
}
  0
BLOCK_RECORD
  5
A5
330
1
100
AcDbSymbolTableRecord
100
AcDbBlockTableRecord
  2
block 24
340
0
102
{BLKREFS
331
A6
102
}
  0
BLOCK_RECORD
  5
A9
330
1
100
AcDbSymbolTableRecord
100
AcDbBlockTableRecord
  2
block 25
340
0
102
{BLKREFS
331
AA
102
}
  0
BLOCK_RECORD
  5
AE
330
1
100
AcDbSymbolTableRecord
100
AcDbBlockTableRecord
  2
block 26
340
0
102
{BLKREFS
331
AF
102
}
  0
BLOCK_RECORD
  5
B2
330
1
100
AcDbSymbolTableRecord
100
AcDbBlockTableRecord
  2
block 27
340
0
102
{BLKREFS
331
B3
102
}
  0
BLOCK_RECORD
  5
B7
330
1
100
AcDbSymbolTableRecord
100
AcDbBlockTableRecord
  2
block 28
340
0
102
{BLKREFS
331
B8
102
}
  0
BLOCK_RECORD
  5
BC
330
1
100
AcDbSymbolTableRecord
100
AcDbBlockTableRecord
  2
block 29
340
0
102
{BLKREFS
331
BD
102
}
  0
BLOCK_RECORD
  5
C1
330
1
100
AcDbSymbolTableRecord
100
AcDbBlockTableRecord
  2
block 30
340
0
102
{BLKREFS
331
C2
102
}
  0
BLOCK_RECORD
  5
C5
330
1
100
AcDbSymbolTableRecord
100
AcDbBlockTableRecord
  2
block 31
340
0
102
{BLKREFS
331
C6
102
}
  0
BLOCK_RECORD
  5
CA
330
1
100
AcDbSymbolTableRecord
100
AcDbBlockTableRecord
  2
block 32
340
0
102
{BLKREFS
331
CB
102
}
  0
BLOCK_RECORD
  5
CF
330
1
100
AcDbSymbolTableRecord
100
AcDbBlockTableRecord
  2
block 33
340
0
102
{BLKREFS
331
D0
102
}
  0
BLOCK_RECORD
  5
D4
330
1
100
AcDbSymbolTableRecord
100
AcDbBlockTableRecord
  2
block 34
340
0
102
{BLKREFS
331
D5
102
}
  0
BLOCK_RECORD
  5
D9
330
1
100
AcDbSymbolTableRecord
100
AcDbBlockTableRecord
  2
block 35
340
0
102
{BLKREFS
331
DA
102
}
  0
BLOCK_RECORD
  5
DE
330
1
100
AcDbSymbolTableRecord
100
AcDbBlockTableRecord
  2
block 36
340
0
102
{BLKREFS
331
DF
102
}
  0
BLOCK_RECORD
  5
E3
330
1
100
AcDbSymbolTableRecord
100
AcDbBlockTableRecord
  2
block 37
340
0
102
{BLKREFS
331
E4
102
}
  0
BLOCK_RECORD
  5
E8
330
1
100
AcDbSymbolTableRecord
100
AcDbBlockTableRecord
  2
block 38
340
0
102
{BLKREFS
331
E9
102
}
  0
BLOCK_RECORD
  5
ED
330
1
100
AcDbSymbolTableRecord
100
AcDbBlockTableRecord
  2
block 39
340
0
102
{BLKREFS
331
EE
102
}
  0
BLOCK_RECORD
  5
F2
330
1
100
AcDbSymbolTableRecord
100
AcDbBlockTableRecord
  2
block 40
340
0
102
{BLKREFS
331
F3
102
}
  0
BLOCK_RECORD
  5
F7
330
1
100
AcDbSymbolTableRecord
100
AcDbBlockTableRecord
  2
block 41
340
0
102
{BLKREFS
331
F8
102
}
  0
BLOCK_RECORD
  5
FC
330
1
100
AcDbSymbolTableRecord
100
AcDbBlockTableRecord
  2
block 42
340
0
102
{BLKREFS
331
FD
102
}
  0
BLOCK_RECORD
  5
101
330
1
100
AcDbSymbolTableRecord
100
AcDbBlockTableRecord
  2
block 43
340
0
102
{BLKREFS
331
102
102
}
  0
BLOCK_RECORD
  5
106
330
1
100
AcDbSymbolTableRecord
100
AcDbBlockTableRecord
  2
block 44
340
0
102
{BLKREFS
331
107
102
}
  0
BLOCK_RECORD
  5
10B
330
1
100
AcDbSymbolTableRecord
100
AcDbBlockTableRecord
  2
block 45
340
0
102
{BLKREFS
331
10C
102
}
  0
BLOCK_RECORD
  5
10F
330
1
100
AcDbSymbolTableRecord
100
AcDbBlockTableRecord
  2
block 46
340
0
102
{BLKREFS
331
110
102
}
  0
BLOCK_RECORD
  5
114
330
1
100
AcDbSymbolTableRecord
100
AcDbBlockTableRecord
  2
block 47
340
0
102
{BLKREFS
331
115
102
}
  0
ENDTAB
  0
ENDSEC
  0
SECTION
  2
BLOCKS
  0
BLOCK
  5
20
330
1F
100
AcDbEntity
  8
0
100
AcDbBlockBegin
  2
*Model_Space
 70
     0
 71
     0
 10
0.0
 20
0.0
 30
0.0
  3
*Model_Space
  1

  0
ENDBLK
  5
21
330
1F
100
AcDbEntity
  8
0
100
AcDbBlockEnd
  0
BLOCK
  5
1C
330
1B
100
AcDbEntity
 67
     1
  8
0
100
AcDbBlockBegin
  2
*Paper_Space
 70
     0
 71
     0
 10
0.0
 20
0.0
 30
0.0
  3
*Paper_Space
  1

  0
ENDBLK
  5
1D
330
1B
100
AcDbEntity
 67
     1
  8
0
100
AcDbBlockEnd
  0
BLOCK
  5
24
330
23
100
AcDbEntity
  8
0
100
AcDbBlockBegin
  2
*Paper_Space0
 70
     0
 71
     0
 10
0.0
 20
0.0
 30
0.0
  3
*Paper_Space0
  1

  0
ENDBLK
  5
25
330
23
100
AcDbEntity
  8
0
100
AcDbBlockEnd
  0
BLOCK
  5
3E
330
3C
100
AcDbEntity
  8
0
100
AcDbBlockBegin
  2
block 2
 70
     0
 71
     0
 10
0.0
 20
0.0
 30
0.0
  3
block 2
  1

  0
SPLINE
  5
40
330
3C
100
AcDbEntity
  8
Layer 1
370
     0
100
AcDbSpline
210
0.0
220
0.0
230
1.0
 70
    11
 71
     3
 72
   356
 73
   352
 74
     0
 42
0.0000000001
 43
0.0000000001
 40
0.0
 40
0.0
 40
0.0
 40
0.0
 40
1.0
 40
1.0
 40
1.0
 40
2.0
 40
2.0
 40
2.0
 40
3.0
 40
3.0
 40
3.0
 40
4.0
 40
4.0
 40
4.0
 40
5.0
 40
5.0
 40
5.0
 40
6.0
 40
6.0
 40
6.0
 40
7.0
 40
7.0
 40
7.0
 40
8.0
 40
8.0
 40
8.0
 40
9.0
 40
9.0
 40
9.0
 40
10.0
 40
10.0
 40
10.0
 40
11.0
 40
11.0
 40
11.0
 40
12.0
 40
12.0
 40
12.0
 40
13.0
 40
13.0
 40
13.0
 40
14.0
 40
14.0
 40
14.0
 40
15.0
 40
15.0
 40
15.0
 40
16.0
 40
16.0
 40
16.0
 40
17.0
 40
17.0
 40
17.0
 40
18.0
 40
18.0
 40
18.0
 40
19.0
 40
19.0
 40
19.0
 40
20.0
 40
20.0
 40
20.0
 40
21.0
 40
21.0
 40
21.0
 40
22.0
 40
22.0
 40
22.0
 40
23.0
 40
23.0
 40
23.0
 40
24.0
 40
24.0
 40
24.0
 40
25.0
 40
25.0
 40
25.0
 40
26.0
 40
26.0
 40
26.0
 40
27.0
 40
27.0
 40
27.0
 40
28.0
 40
28.0
 40
28.0
 40
29.0
 40
29.0
 40
29.0
 40
30.0
 40
30.0
 40
30.0
 40
31.0
 40
31.0
 40
31.0
 40
32.0
 40
32.0
 40
32.0
 40
33.0
 40
33.0
 40
33.0
 40
34.0
 40
34.0
 40
34.0
 40
35.0
 40
35.0
 40
35.0
 40
36.0
 40
36.0
 40
36.0
 40
37.0
 40
37.0
 40
37.0
 40
38.0
 40
38.0
 40
38.0
 40
39.0
 40
39.0
 40
39.0
 40
40.0
 40
40.0
 40
40.0
 40
41.0
 40
41.0
 40
41.0
 40
42.0
 40
42.0
 40
42.0
 40
43.0
 40
43.0
 40
43.0
 40
44.0
 40
44.0
 40
44.0
 40
45.0
 40
45.0
 40
45.0
 40
46.0
 40
46.0
 40
46.0
 40
47.0
 40
47.0
 40
47.0
 40
48.0
 40
48.0
 40
48.0
 40
49.0
 40
49.0
 40
49.0
 40
50.0
 40
50.0
 40
50.0
 40
51.0
 40
51.0
 40
51.0
 40
52.0
 40
52.0
 40
52.0
 40
53.0
 40
53.0
 40
53.0
 40
54.0
 40
54.0
 40
54.0
 40
55.0
 40
55.0
 40
55.0
 40
56.0
 40
56.0
 40
56.0
 40
57.0
 40
57.0
 40
57.0
 40
58.0
 40
58.0
 40
58.0
 40
59.0
 40
59.0
 40
59.0
 40
60.0
 40
60.0
 40
60.0
 40
61.0
 40
61.0
 40
61.0
 40
62.0
 40
62.0
 40
62.0
 40
63.0
 40
63.0
 40
63.0
 40
64.0
 40
64.0
 40
64.0
 40
65.0
 40
65.0
 40
65.0
 40
66.0
 40
66.0
 40
66.0
 40
67.0
 40
67.0
 40
67.0
 40
68.0
 40
68.0
 40
68.0
 40
69.0
 40
69.0
 40
69.0
 40
70.0
 40
70.0
 40
70.0
 40
71.0
 40
71.0
 40
71.0
 40
72.0
 40
72.0
 40
72.0
 40
73.0
 40
73.0
 40
73.0
 40
74.0
 40
74.0
 40
74.0
 40
75.0
 40
75.0
 40
75.0
 40
76.0
 40
76.0
 40
76.0
 40
77.0
 40
77.0
 40
77.0
 40
78.0
 40
78.0
 40
78.0
 40
79.0
 40
79.0
 40
79.0
 40
80.0
 40
80.0
 40
80.0
 40
81.0
 40
81.0
 40
81.0
 40
82.0
 40
82.0
 40
82.0
 40
83.0
 40
83.0
 40
83.0
 40
84.0
 40
84.0
 40
84.0
 40
85.0
 40
85.0
 40
85.0
 40
86.0
 40
86.0
 40
86.0
 40
87.0
 40
87.0
 40
87.0
 40
88.0
 40
88.0
 40
88.0
 40
89.0
 40
89.0
 40
89.0
 40
90.0
 40
90.0
 40
90.0
 40
91.0
 40
91.0
 40
91.0
 40
92.0
 40
92.0
 40
92.0
 40
93.0
 40
93.0
 40
93.0
 40
94.0
 40
94.0
 40
94.0
 40
95.0
 40
95.0
 40
95.0
 40
96.0
 40
96.0
 40
96.0
 40
97.0
 40
97.0
 40
97.0
 40
98.0
 40
98.0
 40
98.0
 40
99.0
 40
99.0
 40
99.0
 40
100.0
 40
100.0
 40
100.0
 40
101.0
 40
101.0
 40
101.0
 40
102.0
 40
102.0
 40
102.0
 40
103.0
 40
103.0
 40
103.0
 40
104.0
 40
104.0
 40
104.0
 40
105.0
 40
105.0
 40
105.0
 40
106.0
 40
106.0
 40
106.0
 40
107.0
 40
107.0
 40
107.0
 40
108.0
 40
108.0
 40
108.0
 40
109.0
 40
109.0
 40
109.0
 40
110.0
 40
110.0
 40
110.0
 40
111.0
 40
111.0
 40
111.0
 40
112.0
 40
112.0
 40
112.0
 40
113.0
 40
113.0
 40
113.0
 40
114.0
 40
114.0
 40
114.0
 40
115.0
 40
115.0
 40
115.0
 40
116.0
 40
116.0
 40
116.0
 40
117.0
 40
117.0
 40
117.0
 40
117.0
 10
421.73828125
 20
182.4755859375
 30
0.0
 10
422.0380859375
 20
193.4755859375
 30
0.0
 10
421.1376953125
 20
203.8759765625
 30
0.0
 10
419.6376953125
 20
213.67578125
 30
0.0
 10
419.6376953125
 20
213.67578125
 30
0.0
 10
419.6376953125
 20
213.67578125
 30
0.0
 10
419.6376953125
 20
213.67578125
 30
0.0
 10
418.4384765625
 20
221.3759765625
 30
0.0
 10
416.73828125
 20
228.775390625
 30
0.0
 10
414.9384765625
 20
235.67578125
 30
0.0
 10
408.337890625
 20
260.67578125
 30
0.0
 10
399.1376953125
 20
280.4755859375
 30
0.0
 10
398.4384765625
 20
294.4755859375
 30
0.0
 10
398.337890625
 20
296.07568359375
 30
0.0
 10
398.337890625
 20
297.4755859375
 30
0.0
 10
398.5380859375
 20
298.9755859375
 30
0.0
 10
400.5380859375
 20
317.9755859375
 30
0.0
 10
396.23828125
 20
340.9755859375
 30
0.0
 10
395.0380859375
 20
346.87548828125
 30
0.0
 10
395.0380859375
 20
346.87548828125
 30
0.0
 10
395.0380859375
 20
346.87548828125
 30
0.0
 10
395.0380859375
 20
346.87548828125
 30
0.0
 10
394.837890625
 20
347.775390625
 30
0.0
 10
394.73828125
 20
348.275390625
 30
0.0
 10
394.73828125
 20
348.275390625
 30
0.0
 10
403.4384765625
 20
363.9755859375
 30
0.0
 10
394.6376953125
 20
402.57568359375
 30
0.0
 10
394.6376953125
 20
402.57568359375
 30
0.0
 10
395.9384765625
 20
419.57568359375
 30
0.0
 10
376.6376953125
 20
436.57568359375
 30
0.0
 10
376.6376953125
 20
436.57568359375
 30
0.0
 10
377.9384765625
 20
441.275390625
 30
0.0
 10
378.337890625
 20
445.37548828125
 30
0.0
 10
378.23828125
 20
448.9755859375
 30
0.0
 10
378.23828125
 20
448.9755859375
 30
0.0
 10
378.23828125
 20
448.9755859375
 30
0.0
 10
378.23828125
 20
448.9755859375
 30
0.0
 10
377.6376953125
 20
448.67578125
 30
0.0
 10
377.1376953125
 20
448.37548828125
 30
0.0
 10
376.6376953125
 20
448.17578125
 30
0.0
 10
375.73828125
 20
447.775390625
 30
0.0
 10
374.6376953125
 20
448.17578125
 30
0.0
 10
374.23828125
 20
449.07568359375
 30
0.0
 10
372.9384765625
 20
452.275390625
 30
0.0
 10
368.5380859375
 20
458.57568359375
 30
0.0
 10
355.73828125
 20
454.07568359375
 30
0.0
 10
353.6376953125
 20
453.37548828125
 30
0.0
 10
351.4384765625
 20
454.275390625
 30
0.0
 10
350.5380859375
 20
456.17578125
 30
0.0
 10
349.337890625
 20
455.37548828125
 30
0.0
 10
347.73828125
 20
455.17578125
 30
0.0
 10
346.23828125
 20
455.87548828125
 30
0.0
 10
343.337890625
 20
457.275390625
 30
0.0
 10
337.4384765625
 20
457.87548828125
 30
0.0
 10
326.4384765625
 20
451.9755859375
 30
0.0
 10
325.6376953125
 20
451.57568359375
 30
0.0
 10
324.73828125
 20
451.775390625
 30
0.0
 10
324.23828125
 20
452.4755859375
 30
0.0
 10
321.73828125
 20
455.67578125
 30
0.0
 10
315.9384765625
 20
464.775390625
 30
0.0
 10
326.4384765625
 20
469.775390625
 30
0.0
 10
334.5380859375
 20
473.67578125
 30
0.0
 10
342.337890625
 20
471.87548828125
 30
0.0
 10
347.1376953125
 20
469.9755859375
 30
0.0
 10
349.0380859375
 20
469.275390625
 30
0.0
 10
350.5380859375
 20
467.87548828125
 30
0.0
 10
351.4384765625
 20
466.17578125
 30
0.0
 10
351.73828125
 20
466.775390625
 30
0.0
 10
351.9384765625
 20
467.275390625
 30
0.0
 10
352.337890625
 20
467.87548828125
 30
0.0
 10
352.4384765625
 20
468.07568359375
 30
0.0
 10
352.6376953125
 20
468.275390625
 30
0.0
 10
352.837890625
 20
468.37548828125
 30
0.0
 10
353.837890625
 20
469.17578125
 30
0.0
 10
357.1376953125
 20
471.57568359375
 30
0.0
 10
361.5380859375
 20
473.07568359375
 30
0.0
 10
361.5380859375
 20
473.07568359375
 30
0.0
 10
361.5380859375
 20
473.07568359375
 30
0.0
 10
361.5380859375
 20
473.07568359375
 30
0.0
 10
359.837890625
 20
473.775390625
 30
0.0
 10
358.6376953125
 20
474.07568359375
 30
0.0
 10
358.6376953125
 20
474.07568359375
 30
0.0
 10
337.0380859375
 20
482.87548828125
 30
0.0
 10
318.9384765625
 20
476.87548828125
 30
0.0
 10
306.73828125
 20
469.275390625
 30
0.0
 10
295.73828125
 20
462.37548828125
 30
0.0
 10
289.5380859375
 20
454.275390625
 30
0.0
 10
289.5380859375
 20
454.275390625
 30
0.0
 10
289.4384765625
 20
454.17578125
 30
0.0
 10
289.23828125
 20
453.9755859375
 30
0.0
 10
289.0380859375
 20
453.775390625
 30
0.0
 10
284.23828125
 20
449.37548828125
 30
0.0
 10
263.9384765625
 20
437.4755859375
 30
0.0
 10
242.9384765625
 20
427.17578125
 30
0.0
 10
242.9384765625
 20
427.17578125
 30
0.0
 10
242.9384765625
 20
427.17578125
 30
0.0
 10
242.9384765625
 20
427.17578125
 30
0.0
 10
242.337890625
 20
426.87548828125
 30
0.0
 10
241.73828125
 20
426.57568359375
 30
0.0
 10
241.1376953125
 20
426.275390625
 30
0.0
 10
241.1376953125
 20
426.275390625
 30
0.0
 10
241.1376953125
 20
426.275390625
 30
0.0
 10
241.1376953125
 20
426.275390625
 30
0.0
 10
236.73828125
 20
424.67578125
 30
0.0
 10
230.1376953125
 20
425.37548828125
 30
0.0
 10
225.837890625
 20
425.275390625
 30
0.0
 10
217.837890625
 20
425.17578125
 30
0.0
 10
210.23828125
 20
422.37548828125
 30
0.0
 10
202.73828125
 20
419.57568359375
 30
0.0
 10
201.5380859375
 20
419.07568359375
 30
0.0
 10
200.0380859375
 20
417.775390625
 30
0.0
 10
200.9384765625
 20
416.775390625
 30
0.0
 10
201.337890625
 20
416.37548828125
 30
0.0
 10
202.0380859375
 20
416.37548828125
 30
0.0
 10
202.6376953125
 20
416.4755859375
 30
0.0
 10
205.4384765625
 20
416.775390625
 30
0.0
 10
211.837890625
 20
414.67578125
 30
0.0
 10
214.6376953125
 20
414.9755859375
 30
0.0
 10
214.5380859375
 20
414.87548828125
 30
0.0
 10
214.4384765625
 20
414.775390625
 30
0.0
 10
214.23828125
 20
414.57568359375
 30
0.0
 10
212.0380859375
 20
413.775390625
 30
0.0
 10
209.837890625
 20
413.07568359375
 30
0.0
 10
207.837890625
 20
412.4755859375
 30
0.0
 10
204.1376953125
 20
411.37548828125
 30
0.0
 10
200.837890625
 20
410.275390625
 30
0.0
 10
197.9384765625
 20
409.07568359375
 30
0.0
 10
191.5380859375
 20
408.57568359375
 30
0.0
 10
184.337890625
 20
408.4755859375
 30
0.0
 10
177.337890625
 20
405.67578125
 30
0.0
 10
176.93798828125
 20
404.9755859375
 30
0.0
 10
186.1376953125
 20
405.07568359375
 30
0.0
 10
186.5380859375
 20
403.07568359375
 30
0.0
 10
186.5380859375
 20
403.07568359375
 30
0.0
 10
186.5380859375
 20
403.07568359375
 30
0.0
 10
186.5380859375
 20
403.07568359375
 30
0.0
 10
177.63818359375
 20
396.57568359375
 30
0.0
 10
173.73828125
 20
387.275390625
 30
0.0
 10
166.43798828125
 20
369.775390625
 30
0.0
 10
160.5380859375
 20
355.57568359375
 30
0.0
 10
155.93798828125
 20
339.87548828125
 30
0.0
 10
150.337890625
 20
320.67578125
 30
0.0
 10
150.337890625
 20
320.67578125
 30
0.0
 10
146.0380859375
 20
301.275390625
 30
0.0
 10
146.0380859375
 20
301.275390625
 30
0.0
 10
146.0380859375
 20
301.275390625
 30
0.0
 10
146.0380859375
 20
301.275390625
 30
0.0
 10
146.0380859375
 20
301.275390625
 30
0.0
 10
140.23828125
 20
297.775390625
 30
0.0
 10
131.43798828125
 20
290.07568359375
 30
0.0
 10
129.13818359375
 20
284.275390625
 30
0.0
 10
130.73828125
 20
286.9755859375
 30
0.0
 10
133.93798828125
 20
288.67578125
 30
0.0
 10
137.13818359375
 20
288.4755859375
 30
0.0
 10
139.13818359375
 20
285.17578125
 30
0.0
 10
137.93798828125
 20
280.8759765625
 30
0.0
 10
135.5380859375
 20
277.8759765625
 30
0.0
 10
133.13818359375
 20
274.8759765625
 30
0.0
 10
129.837890625
 20
272.8759765625
 30
0.0
 10
126.837890625
 20
270.4755859375
 30
0.0
 10
123.837890625
 20
268.0751953125
 30
0.0
 10
121.13818359375
 20
263.9755859375
 30
0.0
 10
120.63818359375
 20
260.17578125
 30
0.0
 10
123.93798828125
 20
260.4755859375
 30
0.0
 10
129.63818359375
 20
267.8759765625
 30
0.0
 10
133.23828125
 20
267.9755859375
 30
0.0
 10
131.93798828125
 20
261.17578125
 30
0.0
 10
118.5380859375
 20
256.8759765625
 30
0.0
 10
116.13818359375
 20
250.3759765625
 30
0.0
 10
115.73828125
 20
249.275390625
 30
0.0
 10
115.63818359375
 20
247.8759765625
 30
0.0
 10
116.63818359375
 20
247.275390625
 30
0.0
 10
119.23828125
 20
250.775390625
 30
0.0
 10
122.0380859375
 20
250.67578125
 30
0.0
 10
124.13818359375
 20
251.275390625
 30
0.0
 10
118.93798828125
 20
245.3759765625
 30
0.0
 10
115.63818359375
 20
235.275390625
 30
0.0
 10
113.93798828125
 20
227.5751953125
 30
0.0
 10
116.93798828125
 20
229.0751953125
 30
0.0
 10
119.5380859375
 20
231.17578125
 30
0.0
 10
121.63818359375
 20
233.67578125
 30
0.0
 10
121.73828125
 20
225.67578125
 30
0.0
 10
114.13818359375
 20
217.9755859375
 30
0.0
 10
117.13818359375
 20
210.4755859375
 30
0.0
 10
119.93798828125
 20
213.275390625
 30
0.0
 10
122.73828125
 20
215.9755859375
 30
0.0
 10
125.5380859375
 20
218.775390625
 30
0.0
 10
125.5380859375
 20
218.775390625
 30
0.0
 10
126.0380859375
 20
220.67578125
 30
0.0
 10
126.0380859375
 20
220.67578125
 30
0.0
 10
128.13818359375
 20
178.775390625
 30
0.0
 10
152.23828125
 20
141.17578125
 30
0.0
 10
152.23828125
 20
141.17578125
 30
0.0
 10
150.23828125
 20
105.17578125
 30
0.0
 10
159.5380859375
 20
99.8759765625
 30
0.0
 10
164.5380859375
 20
92.8759765625
 30
0.0
 10
169.5380859375
 20
85.8759765625
 30
0.0
 10
167.337890625
 20
82.5751953125
 30
0.0
 10
155.73828125
 20
83.0751953125
 30
0.0
 10
144.13818359375
 20
83.5751953125
 30
0.0
 10
155.73828125
 20
72.0751953125
 30
0.0
 10
149.73828125
 20
67.775390625
 30
0.0
 10
143.73828125
 20
63.4755859375
 30
0.0
 10
138.43798828125
 20
67.4755859375
 30
0.0
 10
133.93798828125
 20
65.275390625
 30
0.0
 10
129.43798828125
 20
63.0751953125
 30
0.0
 10
130.43798828125
 20
58.775390625
 30
0.0
 10
120.63818359375
 20
57.775390625
 30
0.0
 10
110.837890625
 20
56.775390625
 30
0.0
 10
110.13818359375
 20
54.275390625
 30
0.0
 10
106.63818359375
 20
50.275390625
 30
0.0
 10
103.13818359375
 20
46.275390625
 30
0.0
 10
72.13818359375
 20
47.275390625
 30
0.0
 10
72.13818359375
 20
47.275390625
 30
0.0
 10
72.93798828125
 20
43.775390625
 30
0.0
 10
74.63818359375
 20
41.17578125
 30
0.0
 10
77.5380859375
 20
39.0751953125
 30
0.0
 10
77.837890625
 20
38.8759765625
 30
0.0
 10
78.0380859375
 20
38.775390625
 30
0.0
 10
78.337890625
 20
38.5751953125
 30
0.0
 10
79.0380859375
 20
38.17578125
 30
0.0
 10
79.73828125
 20
37.775390625
 30
0.0
 10
80.5380859375
 20
37.3759765625
 30
0.0
 10
80.5380859375
 20
37.3759765625
 30
0.0
 10
80.5380859375
 20
37.3759765625
 30
0.0
 10
80.5380859375
 20
37.3759765625
 30
0.0
 10
85.63818359375
 20
35.0751953125
 30
0.0
 10
93.23828125
 20
33.67578125
 30
0.0
 10
103.93798828125
 20
32.5751953125
 30
0.0
 10
103.93798828125
 20
32.5751953125
 30
0.0
 10
104.0380859375
 20
32.5751953125
 30
0.0
 10
104.0380859375
 20
32.5751953125
 30
0.0
 10
111.13818359375
 20
31.8759765625
 30
0.0
 10
119.73828125
 20
31.275390625
 30
0.0
 10
129.837890625
 20
30.5751953125
 30
0.0
 10
129.93798828125
 20
30.5751953125
 30
0.0
 10
130.0380859375
 20
30.5751953125
 30
0.0
 10
130.13818359375
 20
30.5751953125
 30
0.0
 10
130.337890625
 20
30.5751953125
 30
0.0
 10
130.5380859375
 20
30.5751953125
 30
0.0
 10
130.73828125
 20
30.5751953125
 30
0.0
 10
137.23828125
 20
30.0751953125
 30
0.0
 10
143.5380859375
 20
30.275390625
 30
0.0
 10
149.43798828125
 20
30.8759765625
 30
0.0
 10
149.5380859375
 20
30.8759765625
 30
0.0
 10
149.63818359375
 20
30.8759765625
 30
0.0
 10
149.837890625
 20
30.8759765625
 30
0.0
 10
149.837890625
 20
30.8759765625
 30
0.0
 10
149.837890625
 20
30.8759765625
 30
0.0
 10
149.837890625
 20
30.8759765625
 30
0.0
 10
149.837890625
 20
30.8759765625
 30
0.0
 10
149.837890625
 20
30.8759765625
 30
0.0
 10
149.837890625
 20
30.8759765625
 30
0.0
 10
176.73828125
 20
33.67578125
 30
0.0
 10
196.837890625
 20
44.9755859375
 30
0.0
 10
201.23828125
 20
47.67578125
 30
0.0
 10
201.837890625
 20
48.0751953125
 30
0.0
 10
202.1376953125
 20
48.275390625
 30
0.0
 10
202.1376953125
 20
48.275390625
 30
0.0
 10
202.1376953125
 20
48.275390625
 30
0.0
 10
200.6376953125
 20
41.775390625
 30
0.0
 10
200.6376953125
 20
41.775390625
 30
0.0
 10
191.337890625
 20
33.4755859375
 30
0.0
 10
199.1376953125
 20
24.17578125
 30
0.0
 10
206.337890625
 20
17.9755859375
 30
0.0
 10
213.5380859375
 20
11.775390625
 30
0.0
 10
227.0380859375
 20
14.17578125
 30
0.0
 10
229.1376953125
 20
15.9755859375
 30
0.0
 10
231.337890625
 20
17.775390625
 30
0.0
 10
237.337890625
 20
16.275390625
 30
0.0
 10
237.337890625
 20
16.275390625
 30
0.0
 10
254.6376953125
 20
7.775390625
 30
0.0
 10
261.0380859375
 20
16.4755859375
 30
0.0
 10
261.0380859375
 20
16.4755859375
 30
0.0
 10
261.0380859375
 20
16.4755859375
 30
0.0
 10
265.23828125
 20
16.775390625
 30
0.0
 10
265.23828125
 20
16.775390625
 30
0.0
 10
265.23828125
 20
16.775390625
 30
0.0
 10
265.73828125
 20
14.4755859375
 30
0.0
 10
266.4384765625
 20
14.0751953125
 30
0.0
 10
279.73828125
 20
11.3759765625
 30
0.0
 10
298.23828125
 20
13.8759765625
 30
0.0
 10
298.23828125
 20
13.8759765625
 30
0.0
 10
301.9384765625
 20
13.8759765625
 30
0.0
 10
302.4384765625
 20
19.8759765625
 30
0.0
 10
303.5380859375
 20
26.17578125
 30
0.0
 10
304.73828125
 20
32.4755859375
 30
0.0
 10
308.837890625
 20
30.4755859375
 30
0.0
 10
308.837890625
 20
30.4755859375
 30
0.0
 10
315.0380859375
 20
24.67578125
 30
0.0
 10
336.6376953125
 20
26.4755859375
 30
0.0
 10
336.6376953125
 20
26.4755859375
 30
0.0
 10
342.837890625
 20
14.775390625
 30
0.0
 10
365.9384765625
 20
25.67578125
 30
0.0
 10
365.9384765625
 20
25.67578125
 30
0.0
 10
374.73828125
 20
24.5751953125
 30
0.0
 10
381.6376953125
 20
26.8759765625
 30
0.0
 10
386.6376953125
 20
30.4755859375
 30
0.0
 10
386.6376953125
 20
30.4755859375
 30
0.0
 10
386.6376953125
 20
30.4755859375
 30
0.0
 10
386.6376953125
 20
30.4755859375
 30
0.0
 10
387.6376953125
 20
31.275390625
 30
0.0
 10
388.6376953125
 20
32.0751953125
 30
0.0
 10
389.4384765625
 20
32.8759765625
 30
0.0
 10
390.0380859375
 20
33.3759765625
 30
0.0
 10
390.5380859375
 20
33.9755859375
 30
0.0
 10
391.0380859375
 20
34.5751953125
 30
0.0
 10
391.0380859375
 20
34.5751953125
 30
0.0
 10
391.0380859375
 20
34.5751953125
 30
0.0
 10
391.0380859375
 20
34.5751953125
 30
0.0
 10
393.0380859375
 20
36.9755859375
 30
0.0
 10
394.5380859375
 20
39.4755859375
 30
0.0
 10
395.4384765625
 20
42.0751953125
 30
0.0
 10
396.4384765625
 20
44.8759765625
 30
0.0
 10
396.837890625
 20
47.67578125
 30
0.0
 10
396.5380859375
 20
49.9755859375
 30
0.0
 10
395.5380859375
 20
57.17578125
 30
0.0
 10
383.337890625
 20
63.9755859375
 30
0.0
 10
377.73828125
 20
66.775390625
 30
0.0
 10
376.0380859375
 20
67.67578125
 30
0.0
 10
374.9384765625
 20
68.0751953125
 30
0.0
 10
374.9384765625
 20
68.0751953125
 30
0.0
 10
376.4384765625
 20
68.875
 30
0.0
 10
377.0380859375
 20
70.375
 30
0.0
 10
377.1376953125
 20
71.9755859375
 30
0.0
 10
377.1376953125
 20
71.9755859375
 30
0.0
 10
377.1376953125
 20
71.9755859375
 30
0.0
 10
377.1376953125
 20
71.9755859375
 30
0.0
 10
377.337890625
 20
74.375
 30
0.0
 10
376.6376953125
 20
76.875
 30
0.0
 10
376.6376953125
 20
76.875
 30
0.0
 10
384.4384765625
 20
76.4755859375
 30
0.0
 10
392.1376953125
 20
80.67578125
 30
0.0
 10
392.1376953125
 20
80.67578125
 30
0.0
 10
392.73828125
 20
79.875
 30
0.0
 10
393.5380859375
 20
79.17578125
 30
0.0
 10
394.4384765625
 20
78.67578125
 30
0.0
 10
397.4384765625
 20
76.875
 30
0.0
 10
401.6376953125
 20
76.875
 30
0.0
 10
403.837890625
 20
76.9755859375
 30
0.0
 10
404.837890625
 20
77.0751953125
 30
0.0
 10
405.4384765625
 20
77.17578125
 30
0.0
 10
405.4384765625
 20
77.17578125
 30
0.0
 10
410.73828125
 20
77.4755859375
 30
0.0
 10
423.337890625
 20
96.67578125
 30
0.0
 10
423.337890625
 20
98.375
 30
0.0
 10
423.337890625
 20
100.0751953125
 30
0.0
 10
423.6376953125
 20
101.875
 30
0.0
 10
427.1376953125
 20
112.8759765625
 30
0.0
 10
430.6376953125
 20
123.8759765625
 30
0.0
 10
420.23828125
 20
127.9755859375
 30
0.0
 10
421.73828125
 20
182.4755859375
 30
0.0
  0
INSERT
  5
42
330
3C
100
AcDbEntity
  8
Layer 1
100
AcDbBlockReference
  2
block 3
 10
0.0
 20
0.0
 30
0.0
  0
INSERT
  5
50
330
3C
100
AcDbEntity
  8
Layer 1
100
AcDbBlockReference
  2
block 6
 10
0.0
 20
0.0
 30
0.0
  0
INSERT
  5
55
330
3C
100
AcDbEntity
  8
Layer 1
100
AcDbBlockReference
  2
block 7
 10
0.0
 20
0.0
 30
0.0
  0
INSERT
  5
5A
330
3C
100
AcDbEntity
  8
Layer 1
100
AcDbBlockReference
  2
block 8
 10
0.0
 20
0.0
 30
0.0
  0
SPLINE
  5
6D
330
3C
100
AcDbEntity
  8
Layer 1
370
     0
100
AcDbSpline
210
0.0
220
0.0
230
1.0
 70
    11
 71
     3
 72
    47
 73
    43
 74
     0
 42
0.0000000001
 43
0.0000000001
 40
0.0
 40
0.0
 40
0.0
 40
0.0
 40
1.0
 40
1.0
 40
1.0
 40
2.0
 40
2.0
 40
2.0
 40
3.0
 40
3.0
 40
3.0
 40
4.0
 40
4.0
 40
4.0
 40
5.0
 40
5.0
 40
5.0
 40
6.0
 40
6.0
 40
6.0
 40
7.0
 40
7.0
 40
7.0
 40
8.0
 40
8.0
 40
8.0
 40
9.0
 40
9.0
 40
9.0
 40
10.0
 40
10.0
 40
10.0
 40
11.0
 40
11.0
 40
11.0
 40
12.0
 40
12.0
 40
12.0
 40
13.0
 40
13.0
 40
13.0
 40
14.0
 40
14.0
 40
14.0
 40
14.0
 10
352.1376953125
 20
467.775390625
 30
0.0
 10
351.837890625
 20
467.17578125
 30
0.0
 10
351.5380859375
 20
466.57568359375
 30
0.0
 10
351.23828125
 20
466.07568359375
 30
0.0
 10
351.837890625
 20
464.87548828125
 30
0.0
 10
352.23828125
 20
463.57568359375
 30
0.0
 10
352.23828125
 20
462.17578125
 30
0.0
 10
352.23828125
 20
461.07568359375
 30
0.0
 10
352.23828125
 20
459.87548828125
 30
0.0
 10
352.0380859375
 20
458.775390625
 30
0.0
 10
351.837890625
 20
457.67578125
 30
0.0
 10
351.23828125
 20
456.67578125
 30
0.0
 10
350.337890625
 20
456.17578125
 30
0.0
 10
351.23828125
 20
454.275390625
 30
0.0
 10
353.4384765625
 20
453.275390625
 30
0.0
 10
355.5380859375
 20
454.07568359375
 30
0.0
 10
368.337890625
 20
458.57568359375
 30
0.0
 10
372.6376953125
 20
452.37548828125
 30
0.0
 10
374.0380859375
 20
449.07568359375
 30
0.0
 10
374.4384765625
 20
448.17578125
 30
0.0
 10
375.5380859375
 20
447.67578125
 30
0.0
 10
376.4384765625
 20
448.17578125
 30
0.0
 10
376.9384765625
 20
448.37548828125
 30
0.0
 10
377.4384765625
 20
448.67578125
 30
0.0
 10
378.0380859375
 20
448.9755859375
 30
0.0
 10
383.1376953125
 20
451.87548828125
 30
0.0
 10
390.9384765625
 20
458.37548828125
 30
0.0
 10
381.1376953125
 20
468.07568359375
 30
0.0
 10
379.6376953125
 20
469.57568359375
 30
0.0
 10
378.1376953125
 20
470.67578125
 30
0.0
 10
376.6376953125
 20
471.57568359375
 30
0.0
 10
371.23828125
 20
474.775390625
 30
0.0
 10
365.837890625
 20
474.4755859375
 30
0.0
 10
361.5380859375
 20
473.07568359375
 30
0.0
 10
361.4384765625
 20
473.07568359375
 30
0.0
 10
361.337890625
 20
472.9755859375
 30
0.0
 10
361.23828125
 20
472.9755859375
 30
0.0
 10
356.73828125
 20
471.57568359375
 30
0.0
 10
353.4384765625
 20
469.07568359375
 30
0.0
 10
352.5380859375
 20
468.275390625
 30
0.0
 10
352.4384765625
 20
468.17578125
 30
0.0
 10
352.23828125
 20
467.9755859375
 30
0.0
 10
352.1376953125
 20
467.775390625
 30
0.0
  0
SPLINE
  5
6E
330
3C
100
AcDbEntity
  8
Layer 1
370
     0
100
AcDbSpline
210
0.0
220
0.0
230
1.0
 70
    11
 71
     3
 72
    32
 73
    28
 74
     0
 42
0.0000000001
 43
0.0000000001
 40
0.0
 40
0.0
 40
0.0
 40
0.0
 40
1.0
 40
1.0
 40
1.0
 40
2.0
 40
2.0
 40
2.0
 40
3.0
 40
3.0
 40
3.0
 40
4.0
 40
4.0
 40
4.0
 40
5.0
 40
5.0
 40
5.0
 40
6.0
 40
6.0
 40
6.0
 40
7.0
 40
7.0
 40
7.0
 40
8.0
 40
8.0
 40
8.0
 40
9.0
 40
9.0
 40
9.0
 40
9.0
 10
352.1376953125
 20
458.775390625
 30
0.0
 10
352.337890625
 20
459.87548828125
 30
0.0
 10
352.337890625
 20
461.07568359375
 30
0.0
 10
352.337890625
 20
462.17578125
 30
0.0
 10
352.337890625
 20
463.57568359375
 30
0.0
 10
351.9384765625
 20
464.87548828125
 30
0.0
 10
351.337890625
 20
466.07568359375
 30
0.0
 10
350.4384765625
 20
467.775390625
 30
0.0
 10
348.9384765625
 20
469.17578125
 30
0.0
 10
347.0380859375
 20
469.87548828125
 30
0.0
 10
342.23828125
 20
471.775390625
 30
0.0
 10
334.337890625
 20
473.57568359375
 30
0.0
 10
326.337890625
 20
469.67578125
 30
0.0
 10
315.73828125
 20
464.57568359375
 30
0.0
 10
321.5380859375
 20
455.57568359375
 30
0.0
 10
324.1376953125
 20
452.37548828125
 30
0.0
 10
324.6376953125
 20
451.67578125
 30
0.0
 10
325.6376953125
 20
451.4755859375
 30
0.0
 10
326.337890625
 20
451.87548828125
 30
0.0
 10
337.4384765625
 20
457.775390625
 30
0.0
 10
343.23828125
 20
457.17578125
 30
0.0
 10
346.1376953125
 20
455.775390625
 30
0.0
 10
347.6376953125
 20
455.07568359375
 30
0.0
 10
349.23828125
 20
455.275390625
 30
0.0
 10
350.4384765625
 20
456.07568359375
 30
0.0
 10
351.337890625
 20
456.775390625
 30
0.0
 10
351.9384765625
 20
457.67578125
 30
0.0
 10
352.1376953125
 20
458.775390625
 30
0.0
  0
INSERT
  5
70
330
3C
100
AcDbEntity
  8
Layer 1
100
AcDbBlockReference
  2
block 12
 10
0.0
 20
0.0
 30
0.0
  0
INSERT
  5
C2
330
3C
100
AcDbEntity
  8
Layer 1
100
AcDbBlockReference
  2
block 30
 10
0.0
 20
0.0
 30
0.0
  0
INSERT
  5
10C
330
3C
100
AcDbEntity
  8
Layer 1
100
AcDbBlockReference
  2
block 45
 10
0.0
 20
0.0
 30
0.0
  0
ENDBLK
  5
3F
330
3C
100
AcDbEntity
  8
0
100
AcDbBlockEnd
  0
BLOCK
  5
43
330
41
100
AcDbEntity
  8
0
100
AcDbBlockBegin
  2
block 3
 70
     0
 71
     0
 10
0.0
 20
0.0
 30
0.0
  3
block 3
  1

  0
INSERT
  5
46
330
41
100
AcDbEntity
  8
Layer 1
100
AcDbBlockReference
  2
block 4
 10
0.0
 20
0.0
 30
0.0
  0
INSERT
  5
4B
330
41
100
AcDbEntity
  8
Layer 1
100
AcDbBlockReference
  2
block 5
 10
0.0
 20
0.0
 30
0.0
  0
ENDBLK
  5
44
330
41
100
AcDbEntity
  8
0
100
AcDbBlockEnd
  0
BLOCK
  5
47
330
45
100
AcDbEntity
  8
0
100
AcDbBlockBegin
  2
block 4
 70
     0
 71
     0
 10
0.0
 20
0.0
 30
0.0
  3
block 4
  1

  0
SPLINE
  5
49
330
45
100
AcDbEntity
  8
Layer 1
370
     0
100
AcDbSpline
210
0.0
220
0.0
230
1.0
 70
    11
 71
     3
 72
    14
 73
    10
 74
     0
 42
0.0000000001
 43
0.0000000001
 40
0.0
 40
0.0
 40
0.0
 40
0.0
 40
1.0
 40
1.0
 40
1.0
 40
2.0
 40
2.0
 40
2.0
 40
3.0
 40
3.0
 40
3.0
 40
3.0
 10
326.837890625
 20
439.67578125
 30
0.0
 10
323.6376953125
 20
442.67578125
 30
0.0
 10
325.837890625
 20
448.17578125
 30
0.0
 10
329.23828125
 20
450.9755859375
 30
0.0
 10
334.4384765625
 20
455.275390625
 30
0.0
 10
339.337890625
 20
459.87548828125
 30
0.0
 10
345.337890625
 20
453.9755859375
 30
0.0
 10
353.837890625
 20
445.4755859375
 30
0.0
 10
339.6376953125
 20
430.57568359375
 30
0.0
 10
326.837890625
 20
439.67578125
 30
0.0
  0
ENDBLK
  5
48
330
45
100
AcDbEntity
  8
0
100
AcDbBlockEnd
  0
BLOCK
  5
4C
330
4A
100
AcDbEntity
  8
0
100
AcDbBlockBegin
  2
block 5
 70
     0
 71
     0
 10
0.0
 20
0.0
 30
0.0
  3
block 5
  1

  0
SPLINE
  5
4E
330
4A
100
AcDbEntity
  8
Layer 1
370
     0
100
AcDbSpline
210
0.0
220
0.0
230
1.0
 70
    11
 71
     3
 72
    17
 73
    13
 74
     0
 42
0.0000000001
 43
0.0000000001
 40
0.0
 40
0.0
 40
0.0
 40
0.0
 40
1.0
 40
1.0
 40
1.0
 40
2.0
 40
2.0
 40
2.0
 40
3.0
 40
3.0
 40
3.0
 40
4.0
 40
4.0
 40
4.0
 40
4.0
 10
356.1376953125
 20
439.67578125
 30
0.0
 10
351.1376953125
 20
442.4755859375
 30
0.0
 10
350.9384765625
 20
449.4755859375
 30
0.0
 10
355.6376953125
 20
452.67578125
 30
0.0
 10
358.9384765625
 20
454.87548828125
 30
0.0
 10
363.5380859375
 20
456.57568359375
 30
0.0
 10
367.9384765625
 20
453.4755859375
 30
0.0
 10
376.23828125
 20
447.67578125
 30
0.0
 10
371.73828125
 20
435.275390625
 30
0.0
 10
360.73828125
 20
437.9755859375
 30
0.0
 10
358.9384765625
 20
438.4755859375
 30
0.0
 10
357.337890625
 20
439.07568359375
 30
0.0
 10
356.1376953125
 20
439.67578125
 30
0.0
  0
ENDBLK
  5
4D
330
4A
100
AcDbEntity
  8
0
100
AcDbBlockEnd
  0
BLOCK
  5
51
330
4F
100
AcDbEntity
  8
0
100
AcDbBlockBegin
  2
block 6
 70
     0
 71
     0
 10
0.0
 20
0.0
 30
0.0
  3
block 6
  1

  0
SPLINE
  5
53
330
4F
100
AcDbEntity
  8
Layer 1
370
     0
100
AcDbSpline
210
0.0
220
0.0
230
1.0
 70
    11
 71
     3
 72
    17
 73
    13
 74
     0
 42
0.0000000001
 43
0.0000000001
 40
0.0
 40
0.0
 40
0.0
 40
0.0
 40
1.0
 40
1.0
 40
1.0
 40
2.0
 40
2.0
 40
2.0
 40
3.0
 40
3.0
 40
3.0
 40
4.0
 40
4.0
 40
4.0
 40
4.0
 10
334.337890625
 20
451.07568359375
 30
0.0
 10
337.099609375
 20
451.07568359375
 30
0.0
 10
339.337890625
 20
448.8369140625
 30
0.0
 10
339.337890625
 20
446.07568359375
 30
0.0
 10
339.337890625
 20
443.31396484375
 30
0.0
 10
337.099609375
 20
441.07568359375
 30
0.0
 10
334.337890625
 20
441.07568359375
 30
0.0
 10
331.5771484375
 20
441.07568359375
 30
0.0
 10
329.337890625
 20
443.31396484375
 30
0.0
 10
329.337890625
 20
446.07568359375
 30
0.0
 10
329.337890625
 20
448.8369140625
 30
0.0
 10
331.5771484375
 20
451.07568359375
 30
0.0
 10
334.337890625
 20
451.07568359375
 30
0.0
  0
ENDBLK
  5
52
330
4F
100
AcDbEntity
  8
0
100
AcDbBlockEnd
  0
BLOCK
  5
56
330
54
100
AcDbEntity
  8
0
100
AcDbBlockBegin
  2
block 7
 70
     0
 71
     0
 10
0.0
 20
0.0
 30
0.0
  3
block 7
  1

  0
SPLINE
  5
58
330
54
100
AcDbEntity
  8
Layer 1
370
     0
100
AcDbSpline
210
0.0
220
0.0
230
1.0
 70
    11
 71
     3
 72
    17
 73
    13
 74
     0
 42
0.0000000001
 43
0.0000000001
 40
0.0
 40
0.0
 40
0.0
 40
0.0
 40
1.0
 40
1.0
 40
1.0
 40
2.0
 40
2.0
 40
2.0
 40
3.0
 40
3.0
 40
3.0
 40
4.0
 40
4.0
 40
4.0
 40
4.0
 10
358.6376953125
 20
450.07568359375
 30
0.0
 10
361.3994140625
 20
450.07568359375
 30
0.0
 10
363.6376953125
 20
447.8369140625
 30
0.0
 10
363.6376953125
 20
445.07568359375
 30
0.0
 10
363.6376953125
 20
442.31396484375
 30
0.0
 10
361.3994140625
 20
440.07568359375
 30
0.0
 10
358.6376953125
 20
440.07568359375
 30
0.0
 10
355.8759765625
 20
440.07568359375
 30
0.0
 10
353.6376953125
 20
442.31396484375
 30
0.0
 10
353.6376953125
 20
445.07568359375
 30
0.0
 10
353.6376953125
 20
447.8369140625
 30
0.0
 10
355.8759765625
 20
450.07568359375
 30
0.0
 10
358.6376953125
 20
450.07568359375
 30
0.0
  0
ENDBLK
  5
57
330
54
100
AcDbEntity
  8
0
100
AcDbBlockEnd
  0
BLOCK
  5
5B
330
59
100
AcDbEntity
  8
0
100
AcDbBlockBegin
  2
block 8
 70
     0
 71
     0
 10
0.0
 20
0.0
 30
0.0
  3
block 8
  1

  0
INSERT
  5
5E
330
59
100
AcDbEntity
  8
Layer 1
100
AcDbBlockReference
  2
block 9
 10
0.0
 20
0.0
 30
0.0
  0
INSERT
  5
63
330
59
100
AcDbEntity
  8
Layer 1
100
AcDbBlockReference
  2
block 10
 10
0.0
 20
0.0
 30
0.0
  0
INSERT
  5
68
330
59
100
AcDbEntity
  8
Layer 1
100
AcDbBlockReference
  2
block 11
 10
0.0
 20
0.0
 30
0.0
  0
SPLINE
  5
6C
330
59
100
AcDbEntity
  8
Layer 1
370
     0
100
AcDbSpline
210
0.0
220
0.0
230
1.0
 70
    11
 71
     3
 72
    17
 73
    13
 74
     0
 42
0.0000000001
 43
0.0000000001
 40
0.0
 40
0.0
 40
0.0
 40
0.0
 40
1.0
 40
1.0
 40
1.0
 40
2.0
 40
2.0
 40
2.0
 40
3.0
 40
3.0
 40
3.0
 40
4.0
 40
4.0
 40
4.0
 40
4.0
 10
376.837890625
 20
471.57568359375
 30
0.0
 10
379.0380859375
 20
482.275390625
 30
0.0
 10
370.23828125
 20
485.87548828125
 30
0.0
 10
366.1376953125
 20
486.67578125
 30
0.0
 10
361.837890625
 20
487.4755859375
 30
0.0
 10
351.4384765625
 20
479.9755859375
 30
0.0
 10
361.4384765625
 20
479.17578125
 30
0.0
 10
368.9384765625
 20
478.57568359375
 30
0.0
 10
364.4384765625
 20
474.87548828125
 30
0.0
 10
361.6376953125
 20
473.17578125
 30
0.0
 10
366.0380859375
 20
474.37548828125
 30
0.0
 10
371.4384765625
 20
474.67578125
 30
0.0
 10
376.837890625
 20
471.57568359375
 30
0.0
  0
ENDBLK
  5
5C
330
59
100
AcDbEntity
  8
0
100
AcDbBlockEnd
  0
BLOCK
  5
5F
330
5D
100
AcDbEntity
  8
0
100
AcDbBlockBegin
  2
block 9
 70
     0
 71
     0
 10
0.0
 20
0.0
 30
0.0
  3
block 9
  1

  0
SPLINE
  5
61
330
5D
100
AcDbEntity
  8
Layer 1
370
     0
100
AcDbSpline
210
0.0
220
0.0
230
1.0
 70
    11
 71
     3
 72
    23
 73
    19
 74
     0
 42
0.0000000001
 43
0.0000000001
 40
0.0
 40
0.0
 40
0.0
 40
0.0
 40
1.0
 40
1.0
 40
1.0
 40
2.0
 40
2.0
 40
2.0
 40
3.0
 40
3.0
 40
3.0
 40
4.0
 40
4.0
 40
4.0
 40
5.0
 40
5.0
 40
5.0
 40
6.0
 40
6.0
 40
6.0
 40
6.0
 10
342.1376953125
 20
422.17578125
 30
0.0
 10
342.1376953125
 20
422.17578125
 30
0.0
 10
334.337890625
 20
429.37548828125
 30
0.0
 10
346.1376953125
 20
431.9755859375
 30
0.0
 10
357.9384765625
 20
434.67578125
 30
0.0
 10
369.23828125
 20
433.07568359375
 30
0.0
 10
370.5380859375
 20
427.57568359375
 30
0.0
 10
371.837890625
 20
422.37548828125
 30
0.0
 10
365.0380859375
 20
428.57568359375
 30
0.0
 10
361.837890625
 20
421.275390625
 30
0.0
 10
361.4384765625
 20
420.67578125
 30
0.0
 10
360.9384765625
 20
420.07568359375
 30
0.0
 10
360.23828125
 20
419.775390625
 30
0.0
 10
357.9384765625
 20
418.67578125
 30
0.0
 10
355.0380859375
 20
418.775390625
 30
0.0
 10
352.837890625
 20
420.4755859375
 30
0.0
 10
349.1376953125
 20
425.17578125
 30
0.0
 10
343.1376953125
 20
426.67578125
 30
0.0
 10
342.1376953125
 20
422.17578125
 30
0.0
  0
ENDBLK
  5
60
330
5D
100
AcDbEntity
  8
0
100
AcDbBlockEnd
  0
BLOCK
  5
64
330
62
100
AcDbEntity
  8
0
100
AcDbBlockBegin
  2
block 10
 70
     0
 71
     0
 10
0.0
 20
0.0
 30
0.0
  3
block 10
  1

  0
SPLINE
  5
66
330
62
100
AcDbEntity
  8
Layer 1
370
     0
100
AcDbSpline
210
0.0
220
0.0
230
1.0
 70
    11
 71
     3
 72
    26
 73
    22
 74
     0
 42
0.0000000001
 43
0.0000000001
 40
0.0
 40
0.0
 40
0.0
 40
0.0
 40
1.0
 40
1.0
 40
1.0
 40
2.0
 40
2.0
 40
2.0
 40
3.0
 40
3.0
 40
3.0
 40
4.0
 40
4.0
 40
4.0
 40
5.0
 40
5.0
 40
5.0
 40
6.0
 40
6.0
 40
6.0
 40
7.0
 40
7.0
 40
7.0
 40
7.0
 10
315.0380859375
 20
487.17578125
 30
0.0
 10
315.0380859375
 20
487.17578125
 30
0.0
 10
289.5380859375
 20
490.37548828125
 30
0.0
 10
281.1376953125
 20
474.9755859375
 30
0.0
 10
278.337890625
 20
469.9755859375
 30
0.0
 10
278.5380859375
 20
463.67578125
 30
0.0
 10
282.1376953125
 20
459.17578125
 30
0.0
 10
288.4384765625
 20
451.07568359375
 30
0.0
 10
300.337890625
 20
451.275390625
 30
0.0
 10
300.337890625
 20
451.275390625
 30
0.0
 10
300.337890625
 20
451.275390625
 30
0.0
 10
309.337890625
 20
459.775390625
 30
0.0
 10
307.1376953125
 20
469.07568359375
 30
0.0
 10
307.1376953125
 20
469.07568359375
 30
0.0
 10
293.0380859375
 20
470.275390625
 30
0.0
 10
296.837890625
 20
476.275390625
 30
0.0
 10
297.9384765625
 20
478.07568359375
 30
0.0
 10
299.9384765625
 20
479.17578125
 30
0.0
 10
302.0380859375
 20
479.4755859375
 30
0.0
 10
307.73828125
 20
480.17578125
 30
0.0
 10
321.73828125
 20
482.4755859375
 30
0.0
 10
315.0380859375
 20
487.17578125
 30
0.0
  0
ENDBLK
  5
65
330
62
100
AcDbEntity
  8
0
100
AcDbBlockEnd
  0
BLOCK
  5
69
330
67
100
AcDbEntity
  8
0
100
AcDbBlockBegin
  2
block 11
 70
     0
 71
     0
 10
0.0
 20
0.0
 30
0.0
  3
block 11
  1

  0
SPLINE
  5
6B
330
67
100
AcDbEntity
  8
Layer 1
370
     0
100
AcDbSpline
210
0.0
220
0.0
230
1.0
 70
    11
 71
     3
 72
   113
 73
   109
 74
     0
 42
0.0000000001
 43
0.0000000001
 40
0.0
 40
0.0
 40
0.0
 40
0.0
 40
1.0
 40
1.0
 40
1.0
 40
2.0
 40
2.0
 40
2.0
 40
3.0
 40
3.0
 40
3.0
 40
4.0
 40
4.0
 40
4.0
 40
5.0
 40
5.0
 40
5.0
 40
6.0
 40
6.0
 40
6.0
 40
7.0
 40
7.0
 40
7.0
 40
8.0
 40
8.0
 40
8.0
 40
9.0
 40
9.0
 40
9.0
 40
10.0
 40
10.0
 40
10.0
 40
11.0
 40
11.0
 40
11.0
 40
12.0
 40
12.0
 40
12.0
 40
13.0
 40
13.0
 40
13.0
 40
14.0
 40
14.0
 40
14.0
 40
15.0
 40
15.0
 40
15.0
 40
16.0
 40
16.0
 40
16.0
 40
17.0
 40
17.0
 40
17.0
 40
18.0
 40
18.0
 40
18.0
 40
19.0
 40
19.0
 40
19.0
 40
20.0
 40
20.0
 40
20.0
 40
21.0
 40
21.0
 40
21.0
 40
22.0
 40
22.0
 40
22.0
 40
23.0
 40
23.0
 40
23.0
 40
24.0
 40
24.0
 40
24.0
 40
25.0
 40
25.0
 40
25.0
 40
26.0
 40
26.0
 40
26.0
 40
27.0
 40
27.0
 40
27.0
 40
28.0
 40
28.0
 40
28.0
 40
29.0
 40
29.0
 40
29.0
 40
30.0
 40
30.0
 40
30.0
 40
31.0
 40
31.0
 40
31.0
 40
32.0
 40
32.0
 40
32.0
 40
33.0
 40
33.0
 40
33.0
 40
34.0
 40
34.0
 40
34.0
 40
35.0
 40
35.0
 40
35.0
 40
36.0
 40
36.0
 40
36.0
 40
36.0
 10
325.5380859375
 20
415.775390625
 30
0.0
 10
327.73828125
 20
414.67578125
 30
0.0
 10
330.0380859375
 20
413.67578125
 30
0.0
 10
332.337890625
 20
412.67578125
 30
0.0
 10
334.6376953125
 20
411.67578125
 30
0.0
 10
336.9384765625
 20
410.775390625
 30
0.0
 10
339.23828125
 20
409.775390625
 30
0.0
 10
340.4384765625
 20
409.37548828125
 30
0.0
 10
341.5380859375
 20
408.87548828125
 30
0.0
 10
342.73828125
 20
408.4755859375
 30
0.0
 10
343.9384765625
 20
408.07568359375
 30
0.0
 10
345.0380859375
 20
407.57568359375
 30
0.0
 10
346.23828125
 20
407.275390625
 30
0.0
 10
347.4384765625
 20
406.87548828125
 30
0.0
 10
348.5380859375
 20
406.4755859375
 30
0.0
 10
349.73828125
 20
406.07568359375
 30
0.0
 10
350.9384765625
 20
405.775390625
 30
0.0
 10
352.0380859375
 20
405.37548828125
 30
0.0
 10
353.23828125
 20
405.07568359375
 30
0.0
 10
354.4384765625
 20
404.775390625
 30
0.0
 10
355.6376953125
 20
404.4755859375
 30
0.0
 10
356.837890625
 20
404.17578125
 30
0.0
 10
356.837890625
 20
404.17578125
 30
0.0
 10
360.4384765625
 20
403.4755859375
 30
0.0
 10
360.4384765625
 20
403.4755859375
 30
0.0
 10
360.4384765625
 20
403.4755859375
 30
0.0
 10
364.0380859375
 20
402.9755859375
 30
0.0
 10
364.0380859375
 20
402.9755859375
 30
0.0
 10
365.23828125
 20
402.87548828125
 30
0.0
 10
366.4384765625
 20
402.775390625
 30
0.0
 10
367.6376953125
 20
402.775390625
 30
0.0
 10
368.837890625
 20
402.87548828125
 30
0.0
 10
370.0380859375
 20
402.775390625
 30
0.0
 10
371.1376953125
 20
402.9755859375
 30
0.0
 10
372.1376953125
 20
403.17578125
 30
0.0
 10
373.23828125
 20
403.4755859375
 30
0.0
 10
374.1376953125
 20
403.87548828125
 30
0.0
 10
375.1376953125
 20
404.37548828125
 30
0.0
 10
376.0380859375
 20
404.87548828125
 30
0.0
 10
376.9384765625
 20
405.4755859375
 30
0.0
 10
377.837890625
 20
406.07568359375
 30
0.0
 10
378.73828125
 20
406.775390625
 30
0.0
 10
379.73828125
 20
407.57568359375
 30
0.0
 10
379.73828125
 20
407.57568359375
 30
0.0
 10
379.73828125
 20
407.57568359375
 30
0.0
 10
379.73828125
 20
407.57568359375
 30
0.0
 10
379.73828125
 20
407.57568359375
 30
0.0
 10
380.23828125
 20
407.87548828125
 30
0.0
 10
380.23828125
 20
407.87548828125
 30
0.0
 10
380.23828125
 20
407.87548828125
 30
0.0
 10
382.73828125
 20
407.37548828125
 30
0.0
 10
382.73828125
 20
407.37548828125
 30
0.0
 10
382.73828125
 20
407.37548828125
 30
0.0
 10
380.23828125
 20
406.87548828125
 30
0.0
 10
380.23828125
 20
406.87548828125
 30
0.0
 10
380.23828125
 20
406.87548828125
 30
0.0
 10
380.73828125
 20
407.17578125
 30
0.0
 10
380.73828125
 20
407.17578125
 30
0.0
 10
380.73828125
 20
407.17578125
 30
0.0
 10
380.73828125
 20
407.17578125
 30
0.0
 10
380.73828125
 20
407.17578125
 30
0.0
 10
380.6376953125
 20
405.775390625
 30
0.0
 10
380.0380859375
 20
404.4755859375
 30
0.0
 10
379.1376953125
 20
403.37548828125
 30
0.0
 10
378.23828125
 20
402.275390625
 30
0.0
 10
377.0380859375
 20
401.37548828125
 30
0.0
 10
375.73828125
 20
400.87548828125
 30
0.0
 10
374.4384765625
 20
400.275390625
 30
0.0
 10
373.1376953125
 20
399.9755859375
 30
0.0
 10
371.6376953125
 20
399.775390625
 30
0.0
 10
370.337890625
 20
399.67578125
 30
0.0
 10
369.0380859375
 20
399.67578125
 30
0.0
 10
367.73828125
 20
399.67578125
 30
0.0
 10
366.4384765625
 20
399.775390625
 30
0.0
 10
365.1376953125
 20
399.87548828125
 30
0.0
 10
363.837890625
 20
399.9755859375
 30
0.0
 10
362.5380859375
 20
400.17578125
 30
0.0
 10
361.337890625
 20
400.37548828125
 30
0.0
 10
360.0380859375
 20
400.67578125
 30
0.0
 10
358.837890625
 20
400.9755859375
 30
0.0
 10
357.5380859375
 20
401.275390625
 30
0.0
 10
356.337890625
 20
401.57568359375
 30
0.0
 10
355.1376953125
 20
401.87548828125
 30
0.0
 10
353.9384765625
 20
402.275390625
 30
0.0
 10
352.73828125
 20
402.67578125
 30
0.0
 10
351.5380859375
 20
403.07568359375
 30
0.0
 10
350.337890625
 20
403.4755859375
 30
0.0
 10
349.1376953125
 20
403.9755859375
 30
0.0
 10
347.9384765625
 20
404.37548828125
 30
0.0
 10
346.837890625
 20
404.87548828125
 30
0.0
 10
345.6376953125
 20
405.37548828125
 30
0.0
 10
344.4384765625
 20
405.87548828125
 30
0.0
 10
343.337890625
 20
406.37548828125
 30
0.0
 10
342.23828125
 20
406.87548828125
 30
0.0
 10
341.1376953125
 20
407.37548828125
 30
0.0
 10
339.9384765625
 20
407.9755859375
 30
0.0
 10
338.837890625
 20
408.4755859375
 30
0.0
 10
337.73828125
 20
408.9755859375
 30
0.0
 10
336.6376953125
 20
409.57568359375
 30
0.0
 10
335.5380859375
 20
410.17578125
 30
0.0
 10
335.5380859375
 20
410.17578125
 30
0.0
 10
332.23828125
 20
411.9755859375
 30
0.0
 10
332.23828125
 20
411.9755859375
 30
0.0
 10
330.0380859375
 20
413.17578125
 30
0.0
 10
327.9384765625
 20
414.4755859375
 30
0.0
 10
325.837890625
 20
415.87548828125
 30
0.0
 10
325.837890625
 20
415.87548828125
 30
0.0
 10
325.5380859375
 20
415.775390625
 30
0.0
 10
325.5380859375
 20
415.775390625
 30
0.0
  0
ENDBLK
  5
6A
330
67
100
AcDbEntity
  8
0
100
AcDbBlockEnd
  0
BLOCK
  5
71
330
6F
100
AcDbEntity
  8
0
100
AcDbBlockBegin
  2
block 12
 70
     0
 71
     0
 10
0.0
 20
0.0
 30
0.0
  3
block 12
  1

  0
INSERT
  5
74
330
6F
100
AcDbEntity
  8
Layer 1
100
AcDbBlockReference
  2
block 13
 10
0.0
 20
0.0
 30
0.0
  0
INSERT
  5
B8
330
6F
100
AcDbEntity
  8
Layer 1
100
AcDbBlockReference
  2
block 28
 10
0.0
 20
0.0
 30
0.0
  0
INSERT
  5
BD
330
6F
100
AcDbEntity
  8
Layer 1
100
AcDbBlockReference
  2
block 29
 10
0.0
 20
0.0
 30
0.0
  0
ENDBLK
  5
72
330
6F
100
AcDbEntity
  8
0
100
AcDbBlockEnd
  0
BLOCK
  5
75
330
73
100
AcDbEntity
  8
0
100
AcDbBlockBegin
  2
block 13
 70
     0
 71
     0
 10
0.0
 20
0.0
 30
0.0
  3
block 13
  1

  0
INSERT
  5
78
330
73
100
AcDbEntity
  8
Layer 1
100
AcDbBlockReference
  2
block 14
 10
0.0
 20
0.0
 30
0.0
  0
INSERT
  5
7D
330
73
100
AcDbEntity
  8
Layer 1
100
AcDbBlockReference
  2
block 15
 10
0.0
 20
0.0
 30
0.0
  0
INSERT
  5
82
330
73
100
AcDbEntity
  8
Layer 1
100
AcDbBlockReference
  2
block 16
 10
0.0
 20
0.0
 30
0.0
  0
INSERT
  5
8B
330
73
100
AcDbEntity
  8
Layer 1
100
AcDbBlockReference
  2
block 18
 10
0.0
 20
0.0
 30
0.0
  0
INSERT
  5
94
330
73
100
AcDbEntity
  8
Layer 1
100
AcDbBlockReference
  2
block 20
 10
0.0
 20
0.0
 30
0.0
  0
INSERT
  5
9D
330
73
100
AcDbEntity
  8
Layer 1
100
AcDbBlockReference
  2
block 22
 10
0.0
 20
0.0
 30
0.0
  0
INSERT
  5
A6
330
73
100
AcDbEntity
  8
Layer 1
100
AcDbBlockReference
  2
block 24
 10
0.0
 20
0.0
 30
0.0
  0
INSERT
  5
AF
330
73
100
AcDbEntity
  8
Layer 1
100
AcDbBlockReference
  2
block 26
 10
0.0
 20
0.0
 30
0.0
  0
ENDBLK
  5
76
330
73
100
AcDbEntity
  8
0
100
AcDbBlockEnd
  0
BLOCK
  5
79
330
77
100
AcDbEntity
  8
0
100
AcDbBlockBegin
  2
block 14
 70
     0
 71
     0
 10
0.0
 20
0.0
 30
0.0
  3
block 14
  1

  0
SPLINE
  5
7B
330
77
100
AcDbEntity
  8
Layer 1
370
     0
100
AcDbSpline
210
0.0
220
0.0
230
1.0
 70
    11
 71
     3
 72
    14
 73
    10
 74
     0
 42
0.0000000001
 43
0.0000000001
 40
0.0
 40
0.0
 40
0.0
 40
0.0
 40
1.0
 40
1.0
 40
1.0
 40
2.0
 40
2.0
 40
2.0
 40
3.0
 40
3.0
 40
3.0
 40
3.0
 10
223.9384765625
 20
83.3759765625
 30
0.0
 10
223.9384765625
 20
83.3759765625
 30
0.0
 10
224.4384765625
 20
79.3759765625
 30
0.0
 10
223.1376953125
 20
77.5751953125
 30
0.0
 10
221.837890625
 20
75.775390625
 30
0.0
 10
227.5380859375
 20
77.8759765625
 30
0.0
 10
228.1376953125
 20
83.3759765625
 30
0.0
 10
228.1376953125
 20
83.3759765625
 30
0.0
 10
225.4384765625
 20
86.67578125
 30
0.0
 10
223.9384765625
 20
83.3759765625
 30
0.0
  0
ENDBLK
  5
7A
330
77
100
AcDbEntity
  8
0
100
AcDbBlockEnd
  0
BLOCK
  5
7E
330
7C
100
AcDbEntity
  8
0
100
AcDbBlockBegin
  2
block 15
 70
     0
 71
     0
 10
0.0
 20
0.0
 30
0.0
  3
block 15
  1

  0
SPLINE
  5
80
330
7C
100
AcDbEntity
  8
Layer 1
370
     0
100
AcDbSpline
210
0.0
220
0.0
230
1.0
 70
    11
 71
     3
 72
    14
 73
    10
 74
     0
 42
0.0000000001
 43
0.0000000001
 40
0.0
 40
0.0
 40
0.0
 40
0.0
 40
1.0
 40
1.0
 40
1.0
 40
2.0
 40
2.0
 40
2.0
 40
3.0
 40
3.0
 40
3.0
 40
3.0
 10
210.9384765625
 20
68.9755859375
 30
0.0
 10
210.9384765625
 20
68.9755859375
 30
0.0
 10
214.9384765625
 20
67.4755859375
 30
0.0
 10
215.4384765625
 20
67.4755859375
 30
0.0
 10
215.4384765625
 20
67.4755859375
 30
0.0
 10
212.0380859375
 20
64.4755859375
 30
0.0
 10
209.1376953125
 20
65.0751953125
 30
0.0
 10
209.1376953125
 20
65.0751953125
 30
0.0
 10
207.9384765625
 20
67.4755859375
 30
0.0
 10
210.9384765625
 20
68.9755859375
 30
0.0
  0
ENDBLK
  5
7F
330
7C
100
AcDbEntity
  8
0
100
AcDbBlockEnd
  0
BLOCK
  5
83
330
81
100
AcDbEntity
  8
0
100
AcDbBlockBegin
  2
block 16
 70
     0
 71
     0
 10
0.0
 20
0.0
 30
0.0
  3
block 16
  1

  0
INSERT
  5
86
330
81
100
AcDbEntity
  8
Layer 1
100
AcDbBlockReference
  2
block 17
 10
0.0
 20
0.0
 30
0.0
  0
ENDBLK
  5
84
330
81
100
AcDbEntity
  8
0
100
AcDbBlockEnd
  0
BLOCK
  5
87
330
85
100
AcDbEntity
  8
0
100
AcDbBlockBegin
  2
block 17
 70
     0
 71
     0
 10
0.0
 20
0.0
 30
0.0
  3
block 17
  1

  0
SPLINE
  5
89
330
85
100
AcDbEntity
  8
Layer 1
370
     0
100
AcDbSpline
210
0.0
220
0.0
230
1.0
 70
    11
 71
     3
 72
    17
 73
    13
 74
     0
 42
0.0000000001
 43
0.0000000001
 40
0.0
 40
0.0
 40
0.0
 40
0.0
 40
1.0
 40
1.0
 40
1.0
 40
2.0
 40
2.0
 40
2.0
 40
3.0
 40
3.0
 40
3.0
 40
4.0
 40
4.0
 40
4.0
 40
4.0
 10
230.4384765625
 20
26.8759765625
 30
0.0
 10
231.337890625
 20
33.0751953125
 30
0.0
 10
214.1376953125
 20
42.3759765625
 30
0.0
 10
210.73828125
 20
26.67578125
 30
0.0
 10
210.5380859375
 20
25.67578125
 30
0.0
 10
210.6376953125
 20
24.5751953125
 30
0.0
 10
211.0380859375
 20
23.5751953125
 30
0.0
 10
212.9384765625
 20
19.775390625
 30
0.0
 10
218.73828125
 20
14.3759765625
 30
0.0
 10
221.9384765625
 20
15.67578125
 30
0.0
 10
225.6376953125
 20
17.0751953125
 30
0.0
 10
230.6376953125
 20
23.3759765625
 30
0.0
 10
230.4384765625
 20
26.8759765625
 30
0.0
  0
ENDBLK
  5
88
330
85
100
AcDbEntity
  8
0
100
AcDbBlockEnd
  0
BLOCK
  5
8C
330
8A
100
AcDbEntity
  8
0
100
AcDbBlockBegin
  2
block 18
 70
     0
 71
     0
 10
0.0
 20
0.0
 30
0.0
  3
block 18
  1

  0
INSERT
  5
8F
330
8A
100
AcDbEntity
  8
Layer 1
100
AcDbBlockReference
  2
block 19
 10
0.0
 20
0.0
 30
0.0
  0
ENDBLK
  5
8D
330
8A
100
AcDbEntity
  8
0
100
AcDbBlockEnd
  0
BLOCK
  5
90
330
8E
100
AcDbEntity
  8
0
100
AcDbBlockBegin
  2
block 19
 70
     0
 71
     0
 10
0.0
 20
0.0
 30
0.0
  3
block 19
  1

  0
SPLINE
  5
92
330
8E
100
AcDbEntity
  8
Layer 1
370
     0
100
AcDbSpline
210
0.0
220
0.0
230
1.0
 70
    11
 71
     3
 72
    14
 73
    10
 74
     0
 42
0.0000000001
 43
0.0000000001
 40
0.0
 40
0.0
 40
0.0
 40
0.0
 40
1.0
 40
1.0
 40
1.0
 40
2.0
 40
2.0
 40
2.0
 40
3.0
 40
3.0
 40
3.0
 40
3.0
 10
261.4384765625
 20
29.17578125
 30
0.0
 10
261.5380859375
 20
34.4755859375
 30
0.0
 10
245.6376953125
 20
50.17578125
 30
0.0
 10
240.837890625
 20
28.17578125
 30
0.0
 10
241.337890625
 20
24.5751953125
 30
0.0
 10
247.1376953125
 20
17.5751953125
 30
0.0
 10
251.837890625
 20
17.775390625
 30
0.0
 10
255.5380859375
 20
19.275390625
 30
0.0
 10
262.1376953125
 20
25.775390625
 30
0.0
 10
261.4384765625
 20
29.17578125
 30
0.0
  0
ENDBLK
  5
91
330
8E
100
AcDbEntity
  8
0
100
AcDbBlockEnd
  0
BLOCK
  5
95
330
93
100
AcDbEntity
  8
0
100
AcDbBlockBegin
  2
block 20
 70
     0
 71
     0
 10
0.0
 20
0.0
 30
0.0
  3
block 20
  1

  0
INSERT
  5
98
330
93
100
AcDbEntity
  8
Layer 1
100
AcDbBlockReference
  2
block 21
 10
0.0
 20
0.0
 30
0.0
  0
ENDBLK
  5
96
330
93
100
AcDbEntity
  8
0
100
AcDbBlockEnd
  0
BLOCK
  5
99
330
97
100
AcDbEntity
  8
0
100
AcDbBlockBegin
  2
block 21
 70
     0
 71
     0
 10
0.0
 20
0.0
 30
0.0
  3
block 21
  1

  0
SPLINE
  5
9B
330
97
100
AcDbEntity
  8
Layer 1
370
     0
100
AcDbSpline
210
0.0
220
0.0
230
1.0
 70
    11
 71
     3
 72
    20
 73
    16
 74
     0
 42
0.0000000001
 43
0.0000000001
 40
0.0
 40
0.0
 40
0.0
 40
0.0
 40
1.0
 40
1.0
 40
1.0
 40
2.0
 40
2.0
 40
2.0
 40
3.0
 40
3.0
 40
3.0
 40
4.0
 40
4.0
 40
4.0
 40
5.0
 40
5.0
 40
5.0
 40
5.0
 10
293.73828125
 20
28.3759765625
 30
0.0
 10
293.5380859375
 20
24.67578125
 30
0.0
 10
292.337890625
 20
19.17578125
 30
0.0
 10
286.837890625
 20
15.4755859375
 30
0.0
 10
286.837890625
 20
15.4755859375
 30
0.0
 10
277.337890625
 20
21.9755859375
 30
0.0
 10
277.337890625
 20
21.9755859375
 30
0.0
 10
274.0380859375
 20
24.275390625
 30
0.0
 10
272.9384765625
 20
28.775390625
 30
0.0
 10
275.1376953125
 20
32.17578125
 30
0.0
 10
277.837890625
 20
36.5751953125
 30
0.0
 10
282.73828125
 20
40.4755859375
 30
0.0
 10
290.5380859375
 20
34.8759765625
 30
0.0
 10
292.6376953125
 20
33.275390625
 30
0.0
 10
293.9384765625
 20
30.8759765625
 30
0.0
 10
293.73828125
 20
28.3759765625
 30
0.0
  0
ENDBLK
  5
9A
330
97
100
AcDbEntity
  8
0
100
AcDbBlockEnd
  0
BLOCK
  5
9E
330
9C
100
AcDbEntity
  8
0
100
AcDbBlockBegin
  2
block 22
 70
     0
 71
     0
 10
0.0
 20
0.0
 30
0.0
  3
block 22
  1

  0
INSERT
  5
A1
330
9C
100
AcDbEntity
  8
Layer 1
100
AcDbBlockReference
  2
block 23
 10
0.0
 20
0.0
 30
0.0
  0
ENDBLK
  5
9F
330
9C
100
AcDbEntity
  8
0
100
AcDbBlockEnd
  0
BLOCK
  5
A2
330
A0
100
AcDbEntity
  8
0
100
AcDbBlockBegin
  2
block 23
 70
     0
 71
     0
 10
0.0
 20
0.0
 30
0.0
  3
block 23
  1

  0
SPLINE
  5
A4
330
A0
100
AcDbEntity
  8
Layer 1
370
     0
100
AcDbSpline
210
0.0
220
0.0
230
1.0
 70
    11
 71
     3
 72
    23
 73
    19
 74
     0
 42
0.0000000001
 43
0.0000000001
 40
0.0
 40
0.0
 40
0.0
 40
0.0
 40
1.0
 40
1.0
 40
1.0
 40
2.0
 40
2.0
 40
2.0
 40
3.0
 40
3.0
 40
3.0
 40
4.0
 40
4.0
 40
4.0
 40
5.0
 40
5.0
 40
5.0
 40
6.0
 40
6.0
 40
6.0
 40
6.0
 10
359.5380859375
 20
44.775390625
 30
0.0
 10
361.837890625
 20
45.67578125
 30
0.0
 10
364.4384765625
 20
45.17578125
 30
0.0
 10
366.1376953125
 20
43.4755859375
 30
0.0
 10
368.4384765625
 20
41.275390625
 30
0.0
 10
371.4384765625
 20
39.775390625
 30
0.0
 10
371.4384765625
 20
35.3759765625
 30
0.0
 10
371.1376953125
 20
32.3759765625
 30
0.0
 10
368.6376953125
 20
26.3759765625
 30
0.0
 10
368.6376953125
 20
26.3759765625
 30
0.0
 10
368.6376953125
 20
26.3759765625
 30
0.0
 10
357.0380859375
 20
28.5751953125
 30
0.0
 10
357.0380859375
 20
28.5751953125
 30
0.0
 10
354.1376953125
 20
29.17578125
 30
0.0
 10
352.0380859375
 20
31.67578125
 30
0.0
 10
352.0380859375
 20
34.5751953125
 30
0.0
 10
352.0380859375
 20
38.0751953125
 30
0.0
 10
353.4384765625
 20
42.3759765625
 30
0.0
 10
359.5380859375
 20
44.775390625
 30
0.0
  0
ENDBLK
  5
A3
330
A0
100
AcDbEntity
  8
0
100
AcDbBlockEnd
  0
BLOCK
  5
A7
330
A5
100
AcDbEntity
  8
0
100
AcDbBlockBegin
  2
block 24
 70
     0
 71
     0
 10
0.0
 20
0.0
 30
0.0
  3
block 24
  1

  0
INSERT
  5
AA
330
A5
100
AcDbEntity
  8
Layer 1
100
AcDbBlockReference
  2
block 25
 10
0.0
 20
0.0
 30
0.0
  0
ENDBLK
  5
A8
330
A5
100
AcDbEntity
  8
0
100
AcDbBlockEnd
  0
BLOCK
  5
AB
330
A9
100
AcDbEntity
  8
0
100
AcDbBlockBegin
  2
block 25
 70
     0
 71
     0
 10
0.0
 20
0.0
 30
0.0
  3
block 25
  1

  0
SPLINE
  5
AD
330
A9
100
AcDbEntity
  8
Layer 1
370
     0
100
AcDbSpline
210
0.0
220
0.0
230
1.0
 70
    11
 71
     3
 72
    17
 73
    13
 74
     0
 42
0.0000000001
 43
0.0000000001
 40
0.0
 40
0.0
 40
0.0
 40
0.0
 40
1.0
 40
1.0
 40
1.0
 40
2.0
 40
2.0
 40
2.0
 40
3.0
 40
3.0
 40
3.0
 40
4.0
 40
4.0
 40
4.0
 40
4.0
 10
377.73828125
 20
35.9755859375
 30
0.0
 10
376.837890625
 20
36.0751953125
 30
0.0
 10
376.23828125
 20
36.8759765625
 30
0.0
 10
376.5380859375
 20
37.67578125
 30
0.0
 10
377.9384765625
 20
41.275390625
 30
0.0
 10
380.73828125
 20
47.4755859375
 30
0.0
 10
382.9384765625
 20
46.9755859375
 30
0.0
 10
386.1376953125
 20
46.275390625
 30
0.0
 10
393.6376953125
 20
39.17578125
 30
0.0
 10
390.23828125
 20
28.17578125
 30
0.0
 10
390.337890625
 20
28.17578125
 30
0.0
 10
382.23828125
 20
35.67578125
 30
0.0
 10
377.73828125
 20
35.9755859375
 30
0.0
  0
ENDBLK
  5
AC
330
A9
100
AcDbEntity
  8
0
100
AcDbBlockEnd
  0
BLOCK
  5
B0
330
AE
100
AcDbEntity
  8
0
100
AcDbBlockBegin
  2
block 26
 70
     0
 71
     0
 10
0.0
 20
0.0
 30
0.0
  3
block 26
  1

  0
INSERT
  5
B3
330
AE
100
AcDbEntity
  8
Layer 1
100
AcDbBlockReference
  2
block 27
 10
0.0
 20
0.0
 30
0.0
  0
ENDBLK
  5
B1
330
AE
100
AcDbEntity
  8
0
100
AcDbBlockEnd
  0
BLOCK
  5
B4
330
B2
100
AcDbEntity
  8
0
100
AcDbBlockBegin
  2
block 27
 70
     0
 71
     0
 10
0.0
 20
0.0
 30
0.0
  3
block 27
  1

  0
SPLINE
  5
B6
330
B2
100
AcDbEntity
  8
Layer 1
370
     0
100
AcDbSpline
210
0.0
220
0.0
230
1.0
 70
    11
 71
     3
 72
    23
 73
    19
 74
     0
 42
0.0000000001
 43
0.0000000001
 40
0.0
 40
0.0
 40
0.0
 40
0.0
 40
1.0
 40
1.0
 40
1.0
 40
2.0
 40
2.0
 40
2.0
 40
3.0
 40
3.0
 40
3.0
 40
4.0
 40
4.0
 40
4.0
 40
5.0
 40
5.0
 40
5.0
 40
6.0
 40
6.0
 40
6.0
 40
6.0
 10
390.6376953125
 20
45.67578125
 30
0.0
 10
391.6376953125
 20
45.8759765625
 30
0.0
 10
392.6376953125
 20
45.5751953125
 30
0.0
 10
393.337890625
 20
44.9755859375
 30
0.0
 10
395.1376953125
 20
43.3759765625
 30
0.0
 10
398.23828125
 20
39.8759765625
 30
0.0
 10
397.837890625
 20
36.275390625
 30
0.0
 10
397.1376953125
 20
31.17578125
 30
0.0
 10
397.1376953125
 20
31.17578125
 30
0.0
 10
397.1376953125
 20
31.17578125
 30
0.0
 10
397.1376953125
 20
31.17578125
 30
0.0
 10
392.73828125
 20
33.67578125
 30
0.0
 10
391.1376953125
 20
32.9755859375
 30
0.0
 10
389.4384765625
 20
32.3759765625
 30
0.0
 10
385.6376953125
 20
38.5751953125
 30
0.0
 10
385.6376953125
 20
38.5751953125
 30
0.0
 10
385.6376953125
 20
38.5751953125
 30
0.0
 10
382.837890625
 20
43.9755859375
 30
0.0
 10
390.6376953125
 20
45.67578125
 30
0.0
  0
ENDBLK
  5
B5
330
B2
100
AcDbEntity
  8
0
100
AcDbBlockEnd
  0
BLOCK
  5
B9
330
B7
100
AcDbEntity
  8
0
100
AcDbBlockBegin
  2
block 28
 70
     0
 71
     0
 10
0.0
 20
0.0
 30
0.0
  3
block 28
  1

  0
SPLINE
  5
BB
330
B7
100
AcDbEntity
  8
Layer 1
370
     0
100
AcDbSpline
210
0.0
220
0.0
230
1.0
 70
    11
 71
     3
 72
    14
 73
    10
 74
     0
 42
0.0000000001
 43
0.0000000001
 40
0.0
 40
0.0
 40
0.0
 40
0.0
 40
1.0
 40
1.0
 40
1.0
 40
2.0
 40
2.0
 40
2.0
 40
3.0
 40
3.0
 40
3.0
 40
3.0
 10
394.6376953125
 20
81.17578125
 30
0.0
 10
394.6376953125
 20
81.17578125
 30
0.0
 10
394.9384765625
 20
73.9755859375
 30
0.0
 10
387.337890625
 20
74.67578125
 30
0.0
 10
387.337890625
 20
74.67578125
 30
0.0
 10
395.837890625
 20
69.17578125
 30
0.0
 10
404.1376953125
 20
77.8759765625
 30
0.0
 10
404.1376953125
 20
77.8759765625
 30
0.0
 10
400.5380859375
 20
85.275390625
 30
0.0
 10
394.6376953125
 20
81.17578125
 30
0.0
  0
ENDBLK
  5
BA
330
B7
100
AcDbEntity
  8
0
100
AcDbBlockEnd
  0
BLOCK
  5
BE
330
BC
100
AcDbEntity
  8
0
100
AcDbBlockBegin
  2
block 29
 70
     0
 71
     0
 10
0.0
 20
0.0
 30
0.0
  3
block 29
  1

  0
SPLINE
  5
C0
330
BC
100
AcDbEntity
  8
Layer 1
370
     0
100
AcDbSpline
210
0.0
220
0.0
230
1.0
 70
    11
 71
     3
 72
    17
 73
    13
 74
     0
 42
0.0000000001
 43
0.0000000001
 40
0.0
 40
0.0
 40
0.0
 40
0.0
 40
1.0
 40
1.0
 40
1.0
 40
2.0
 40
2.0
 40
2.0
 40
3.0
 40
3.0
 40
3.0
 40
4.0
 40
4.0
 40
4.0
 40
4.0
 10
388.5380859375
 20
101.775390625
 30
0.0
 10
388.5380859375
 20
101.775390625
 30
0.0
 10
388.6376953125
 20
101.4755859375
 30
0.0
 10
388.837890625
 20
101.0751953125
 30
0.0
 10
389.6376953125
 20
98.9755859375
 30
0.0
 10
392.23828125
 20
93.0751953125
 30
0.0
 10
393.73828125
 20
92.775390625
 30
0.0
 10
395.5380859375
 20
92.4755859375
 30
0.0
 10
397.4384765625
 20
99.0751953125
 30
0.0
 10
399.0380859375
 20
100.775390625
 30
0.0
 10
401.1376953125
 20
100.9755859375
 30
0.0
 10
391.837890625
 20
111.4755859375
 30
0.0
 10
388.5380859375
 20
101.775390625
 30
0.0
  0
ENDBLK
  5
BF
330
BC
100
AcDbEntity
  8
0
100
AcDbBlockEnd
  0
BLOCK
  5
C3
330
C1
100
AcDbEntity
  8
0
100
AcDbBlockBegin
  2
block 30
 70
     0
 71
     0
 10
0.0
 20
0.0
 30
0.0
  3
block 30
  1

  0
INSERT
  5
C6
330
C1
100
AcDbEntity
  8
Layer 1
100
AcDbBlockReference
  2
block 31
 10
0.0
 20
0.0
 30
0.0
  0
INSERT
  5
CB
330
C1
100
AcDbEntity
  8
Layer 1
100
AcDbBlockReference
  2
block 32
 10
0.0
 20
0.0
 30
0.0
  0
INSERT
  5
D0
330
C1
100
AcDbEntity
  8
Layer 1
100
AcDbBlockReference
  2
block 33
 10
0.0
 20
0.0
 30
0.0
  0
INSERT
  5
D5
330
C1
100
AcDbEntity
  8
Layer 1
100
AcDbBlockReference
  2
block 34
 10
0.0
 20
0.0
 30
0.0
  0
INSERT
  5
DA
330
C1
100
AcDbEntity
  8
Layer 1
100
AcDbBlockReference
  2
block 35
 10
0.0
 20
0.0
 30
0.0
  0
INSERT
  5
DF
330
C1
100
AcDbEntity
  8
Layer 1
100
AcDbBlockReference
  2
block 36
 10
0.0
 20
0.0
 30
0.0
  0
INSERT
  5
E4
330
C1
100
AcDbEntity
  8
Layer 1
100
AcDbBlockReference
  2
block 37
 10
0.0
 20
0.0
 30
0.0
  0
INSERT
  5
E9
330
C1
100
AcDbEntity
  8
Layer 1
100
AcDbBlockReference
  2
block 38
 10
0.0
 20
0.0
 30
0.0
  0
INSERT
  5
EE
330
C1
100
AcDbEntity
  8
Layer 1
100
AcDbBlockReference
  2
block 39
 10
0.0
 20
0.0
 30
0.0
  0
INSERT
  5
F3
330
C1
100
AcDbEntity
  8
Layer 1
100
AcDbBlockReference
  2
block 40
 10
0.0
 20
0.0
 30
0.0
  0
INSERT
  5
F8
330
C1
100
AcDbEntity
  8
Layer 1
100
AcDbBlockReference
  2
block 41
 10
0.0
 20
0.0
 30
0.0
  0
INSERT
  5
FD
330
C1
100
AcDbEntity
  8
Layer 1
100
AcDbBlockReference
  2
block 42
 10
0.0
 20
0.0
 30
0.0
  0
INSERT
  5
102
330
C1
100
AcDbEntity
  8
Layer 1
100
AcDbBlockReference
  2
block 43
 10
0.0
 20
0.0
 30
0.0
  0
INSERT
  5
107
330
C1
100
AcDbEntity
  8
Layer 1
100
AcDbBlockReference
  2
block 44
 10
0.0
 20
0.0
 30
0.0
  0
ENDBLK
  5
C4
330
C1
100
AcDbEntity
  8
0
100
AcDbBlockEnd
  0
BLOCK
  5
C7
330
C5
100
AcDbEntity
  8
0
100
AcDbBlockBegin
  2
block 31
 70
     0
 71
     0
 10
0.0
 20
0.0
 30
0.0
  3
block 31
  1

  0
SPLINE
  5
C9
330
C5
100
AcDbEntity
  8
Layer 1
370
     0
100
AcDbSpline
210
0.0
220
0.0
230
1.0
 70
    11
 71
     3
 72
    29
 73
    25
 74
     0
 42
0.0000000001
 43
0.0000000001
 40
0.0
 40
0.0
 40
0.0
 40
0.0
 40
1.0
 40
1.0
 40
1.0
 40
2.0
 40
2.0
 40
2.0
 40
3.0
 40
3.0
 40
3.0
 40
4.0
 40
4.0
 40
4.0
 40
5.0
 40
5.0
 40
5.0
 40
6.0
 40
6.0
 40
6.0
 40
7.0
 40
7.0
 40
7.0
 40
8.0
 40
8.0
 40
8.0
 40
8.0
 10
243.5380859375
 20
394.57568359375
 30
0.0
 10
246.837890625
 20
393.57568359375
 30
0.0
 10
250.1376953125
 20
391.9755859375
 30
0.0
 10
252.0380859375
 20
389.17578125
 30
0.0
 10
253.0380859375
 20
387.775390625
 30
0.0
 10
253.6376953125
 20
386.17578125
 30
0.0
 10
253.9384765625
 20
384.57568359375
 30
0.0
 10
255.4384765625
 20
377.775390625
 30
0.0
 10
252.4384765625
 20
370.17578125
 30
0.0
 10
246.6376953125
 20
366.275390625
 30
0.0
 10
244.337890625
 20
364.775390625
 30
0.0
 10
241.73828125
 20
363.775390625
 30
0.0
 10
239.23828125
 20
362.57568359375
 30
0.0
 10
232.837890625
 20
359.57568359375
 30
0.0
 10
226.9384765625
 20
355.4755859375
 30
0.0
 10
220.337890625
 20
352.9755859375
 30
0.0
 10
213.73828125
 20
350.4755859375
 30
0.0
 10
205.837890625
 20
349.775390625
 30
0.0
 10
199.9384765625
 20
353.775390625
 30
0.0
 10
190.4384765625
 20
360.07568359375
 30
0.0
 10
184.337890625
 20
380.4755859375
 30
0.0
 10
195.73828125
 20
387.4755859375
 30
0.0
 10
209.1376953125
 20
395.57568359375
 30
0.0
 10
228.73828125
 20
399.17578125
 30
0.0
 10
243.5380859375
 20
394.57568359375
 30
0.0
  0
ENDBLK
  5
C8
330
C5
100
AcDbEntity
  8
0
100
AcDbBlockEnd
  0
BLOCK
  5
CC
330
CA
100
AcDbEntity
  8
0
100
AcDbBlockBegin
  2
block 32
 70
     0
 71
     0
 10
0.0
 20
0.0
 30
0.0
  3
block 32
  1

  0
SPLINE
  5
CE
330
CA
100
AcDbEntity
  8
Layer 1
370
     0
100
AcDbSpline
210
0.0
220
0.0
230
1.0
 70
    11
 71
     3
 72
    29
 73
    25
 74
     0
 42
0.0000000001
 43
0.0000000001
 40
0.0
 40
0.0
 40
0.0
 40
0.0
 40
1.0
 40
1.0
 40
1.0
 40
2.0
 40
2.0
 40
2.0
 40
3.0
 40
3.0
 40
3.0
 40
4.0
 40
4.0
 40
4.0
 40
5.0
 40
5.0
 40
5.0
 40
6.0
 40
6.0
 40
6.0
 40
7.0
 40
7.0
 40
7.0
 40
8.0
 40
8.0
 40
8.0
 40
8.0
 10
398.5380859375
 20
298.9755859375
 30
0.0
 10
398.4384765625
 20
297.57568359375
 30
0.0
 10
398.4384765625
 20
296.07568359375
 30
0.0
 10
398.4384765625
 20
294.4755859375
 30
0.0
 10
395.4384765625
 20
295.87548828125
 30
0.0
 10
392.73828125
 20
298.275390625
 30
0.0
 10
390.6376953125
 20
301.275390625
 30
0.0
 10
388.4384765625
 20
304.275390625
 30
0.0
 10
386.837890625
 20
308.07568359375
 30
0.0
 10
386.0380859375
 20
312.07568359375
 30
0.0
 10
385.337890625
 20
315.57568359375
 30
0.0
 10
385.23828125
 20
319.275390625
 30
0.0
 10
385.1376953125
 20
322.87548828125
 30
0.0
 10
385.1376953125
 20
324.37548828125
 30
0.0
 10
385.0380859375
 20
325.9755859375
 30
0.0
 10
385.1376953125
 20
327.57568359375
 30
0.0
 10
385.23828125
 20
330.17578125
 30
0.0
 10
385.5380859375
 20
332.67578125
 30
0.0
 10
386.337890625
 20
334.9755859375
 30
0.0
 10
388.23828125
 20
339.9755859375
 30
0.0
 10
390.9384765625
 20
344.775390625
 30
0.0
 10
394.9384765625
 20
346.775390625
 30
0.0
 10
395.837890625
 20
340.9755859375
 30
0.0
 10
400.0380859375
 20
317.9755859375
 30
0.0
 10
398.5380859375
 20
298.9755859375
 30
0.0
  0
ENDBLK
  5
CD
330
CA
100
AcDbEntity
  8
0
100
AcDbBlockEnd
  0
BLOCK
  5
D1
330
CF
100
AcDbEntity
  8
0
100
AcDbBlockBegin
  2
block 33
 70
     0
 71
     0
 10
0.0
 20
0.0
 30
0.0
  3
block 33
  1

  0
SPLINE
  5
D3
330
CF
100
AcDbEntity
  8
Layer 1
370
     0
100
AcDbSpline
210
0.0
220
0.0
230
1.0
 70
    11
 71
     3
 72
    35
 73
    31
 74
     0
 42
0.0000000001
 43
0.0000000001
 40
0.0
 40
0.0
 40
0.0
 40
0.0
 40
1.0
 40
1.0
 40
1.0
 40
2.0
 40
2.0
 40
2.0
 40
3.0
 40
3.0
 40
3.0
 40
4.0
 40
4.0
 40
4.0
 40
5.0
 40
5.0
 40
5.0
 40
6.0
 40
6.0
 40
6.0
 40
7.0
 40
7.0
 40
7.0
 40
8.0
 40
8.0
 40
8.0
 40
9.0
 40
9.0
 40
9.0
 40
10.0
 40
10.0
 40
10.0
 40
10.0
 10
150.337890625
 20
320.87548828125
 30
0.0
 10
158.0380859375
 20
326.57568359375
 30
0.0
 10
170.337890625
 20
328.9755859375
 30
0.0
 10
178.5380859375
 20
329.57568359375
 30
0.0
 10
181.73828125
 20
329.775390625
 30
0.0
 10
185.23828125
 20
329.67578125
 30
0.0
 10
187.9384765625
 20
327.87548828125
 30
0.0
 10
191.0380859375
 20
325.87548828125
 30
0.0
 10
192.5380859375
 20
322.17578125
 30
0.0
 10
193.837890625
 20
318.775390625
 30
0.0
 10
195.9384765625
 20
313.37548828125
 30
0.0
 10
198.0380859375
 20
307.4755859375
 30
0.0
 10
196.6376953125
 20
301.87548828125
 30
0.0
 10
195.23828125
 20
296.4755859375
 30
0.0
 10
190.837890625
 20
292.4755859375
 30
0.0
 10
186.5380859375
 20
288.9755859375
 30
0.0
 10
185.23828125
 20
287.9755859375
 30
0.0
 10
183.93798828125
 20
286.9755859375
 30
0.0
 10
182.43798828125
 20
286.275390625
 30
0.0
 10
180.63818359375
 20
285.3759765625
 30
0.0
 10
178.63818359375
 20
285.0751953125
 30
0.0
 10
176.63818359375
 20
284.775390625
 30
0.0
 10
166.0380859375
 20
283.4755859375
 30
0.0
 10
154.93798828125
 20
285.3759765625
 30
0.0
 10
145.43798828125
 20
290.275390625
 30
0.0
 10
144.837890625
 20
290.57568359375
 30
0.0
 10
144.23828125
 20
290.87548828125
 30
0.0
 10
143.73828125
 20
291.275390625
 30
0.0
 10
143.73828125
 20
291.275390625
 30
0.0
 10
150.337890625
 20
320.87548828125
 30
0.0
 10
150.337890625
 20
320.87548828125
 30
0.0
  0
ENDBLK
  5
D2
330
CF
100
AcDbEntity
  8
0
100
AcDbBlockEnd
  0
BLOCK
  5
D6
330
D4
100
AcDbEntity
  8
0
100
AcDbBlockBegin
  2
block 34
 70
     0
 71
     0
 10
0.0
 20
0.0
 30
0.0
  3
block 34
  1

  0
SPLINE
  5
D8
330
D4
100
AcDbEntity
  8
Layer 1
370
     0
100
AcDbSpline
210
0.0
220
0.0
230
1.0
 70
    11
 71
     3
 72
    38
 73
    34
 74
     0
 42
0.0000000001
 43
0.0000000001
 40
0.0
 40
0.0
 40
0.0
 40
0.0
 40
1.0
 40
1.0
 40
1.0
 40
2.0
 40
2.0
 40
2.0
 40
3.0
 40
3.0
 40
3.0
 40
4.0
 40
4.0
 40
4.0
 40
5.0
 40
5.0
 40
5.0
 40
6.0
 40
6.0
 40
6.0
 40
7.0
 40
7.0
 40
7.0
 40
8.0
 40
8.0
 40
8.0
 40
9.0
 40
9.0
 40
9.0
 40
10.0
 40
10.0
 40
10.0
 40
11.0
 40
11.0
 40
11.0
 40
11.0
 10
165.93798828125
 20
259.17578125
 30
0.0
 10
170.0380859375
 20
260.17578125
 30
0.0
 10
174.5380859375
 20
259.275390625
 30
0.0
 10
177.93798828125
 20
256.775390625
 30
0.0
 10
181.43798828125
 20
254.275390625
 30
0.0
 10
187.23828125
 20
252.0751953125
 30
0.0
 10
189.73828125
 20
248.4755859375
 30
0.0
 10
193.6376953125
 20
242.8759765625
 30
0.0
 10
203.837890625
 20
228.9755859375
 30
0.0
 10
205.23828125
 20
227.0751953125
 30
0.0
 10
207.23828125
 20
224.17578125
 30
0.0
 10
207.73828125
 20
220.4755859375
 30
0.0
 10
207.5380859375
 20
216.9755859375
 30
0.0
 10
206.9384765625
 20
205.0751953125
 30
0.0
 10
198.1376953125
 20
193.9755859375
 30
0.0
 10
186.6376953125
 20
190.67578125
 30
0.0
 10
183.13818359375
 20
189.67578125
 30
0.0
 10
179.43798828125
 20
189.275390625
 30
0.0
 10
175.837890625
 20
189.3759765625
 30
0.0
 10
172.63818359375
 20
189.3759765625
 30
0.0
 10
169.337890625
 20
189.775390625
 30
0.0
 10
166.337890625
 20
190.8759765625
 30
0.0
 10
160.337890625
 20
192.9755859375
 30
0.0
 10
155.63818359375
 20
197.8759765625
 30
0.0
 10
152.13818359375
 20
203.17578125
 30
0.0
 10
147.73828125
 20
209.9755859375
 30
0.0
 10
143.43798828125
 20
219.8759765625
 30
0.0
 10
144.0380859375
 20
228.17578125
 30
0.0
 10
144.337890625
 20
232.17578125
 30
0.0
 10
146.837890625
 20
236.0751953125
 30
0.0
 10
148.43798828125
 20
239.67578125
 30
0.0
 10
148.5380859375
 20
239.5751953125
 30
0.0
 10
156.5380859375
 20
256.3759765625
 30
0.0
 10
165.93798828125
 20
259.17578125
 30
0.0
  0
ENDBLK
  5
D7
330
D4
100
AcDbEntity
  8
0
100
AcDbBlockEnd
  0
BLOCK
  5
DB
330
D9
100
AcDbEntity
  8
0
100
AcDbBlockBegin
  2
block 35
 70
     0
 71
     0
 10
0.0
 20
0.0
 30
0.0
  3
block 35
  1

  0
SPLINE
  5
DD
330
D9
100
AcDbEntity
  8
Layer 1
370
     0
100
AcDbSpline
210
0.0
220
0.0
230
1.0
 70
    11
 71
     3
 72
    32
 73
    28
 74
     0
 42
0.0000000001
 43
0.0000000001
 40
0.0
 40
0.0
 40
0.0
 40
0.0
 40
1.0
 40
1.0
 40
1.0
 40
2.0
 40
2.0
 40
2.0
 40
3.0
 40
3.0
 40
3.0
 40
4.0
 40
4.0
 40
4.0
 40
5.0
 40
5.0
 40
5.0
 40
6.0
 40
6.0
 40
6.0
 40
7.0
 40
7.0
 40
7.0
 40
8.0
 40
8.0
 40
8.0
 40
9.0
 40
9.0
 40
9.0
 40
9.0
 10
170.43798828125
 20
165.0751953125
 30
0.0
 10
175.23828125
 20
166.67578125
 30
0.0
 10
181.0380859375
 20
164.9755859375
 30
0.0
 10
184.23828125
 20
160.8759765625
 30
0.0
 10
185.837890625
 20
158.775390625
 30
0.0
 10
186.73828125
 20
156.17578125
 30
0.0
 10
187.5380859375
 20
153.67578125
 30
0.0
 10
188.337890625
 20
151.17578125
 30
0.0
 10
189.0380859375
 20
148.4755859375
 30
0.0
 10
188.9384765625
 20
145.8759765625
 30
0.0
 10
188.9384765625
 20
143.17578125
 30
0.0
 10
188.0380859375
 20
140.4755859375
 30
0.0
 10
186.23828125
 20
138.5751953125
 30
0.0
 10
183.837890625
 20
136.17578125
 30
0.0
 10
180.23828125
 20
135.3759765625
 30
0.0
 10
176.837890625
 20
135.17578125
 30
0.0
 10
174.5380859375
 20
134.9755859375
 30
0.0
 10
172.13818359375
 20
135.0751953125
 30
0.0
 10
170.13818359375
 20
136.17578125
 30
0.0
 10
168.0380859375
 20
137.3759765625
 30
0.0
 10
166.93798828125
 20
139.67578125
 30
0.0
 10
165.837890625
 20
141.775390625
 30
0.0
 10
163.73828125
 20
146.17578125
 30
0.0
 10
160.73828125
 20
150.8759765625
 30
0.0
 10
162.13818359375
 20
155.67578125
 30
0.0
 10
163.43798828125
 20
159.9755859375
 30
0.0
 10
166.13818359375
 20
163.67578125
 30
0.0
 10
170.43798828125
 20
165.0751953125
 30
0.0
  0
ENDBLK
  5
DC
330
D9
100
AcDbEntity
  8
0
100
AcDbBlockEnd
  0
BLOCK
  5
E0
330
DE
100
AcDbEntity
  8
0
100
AcDbBlockBegin
  2
block 36
 70
     0
 71
     0
 10
0.0
 20
0.0
 30
0.0
  3
block 36
  1

  0
SPLINE
  5
E2
330
DE
100
AcDbEntity
  8
Layer 1
370
     0
100
AcDbSpline
210
0.0
220
0.0
230
1.0
 70
    11
 71
     3
 72
    38
 73
    34
 74
     0
 42
0.0000000001
 43
0.0000000001
 40
0.0
 40
0.0
 40
0.0
 40
0.0
 40
1.0
 40
1.0
 40
1.0
 40
2.0
 40
2.0
 40
2.0
 40
3.0
 40
3.0
 40
3.0
 40
4.0
 40
4.0
 40
4.0
 40
5.0
 40
5.0
 40
5.0
 40
6.0
 40
6.0
 40
6.0
 40
7.0
 40
7.0
 40
7.0
 40
8.0
 40
8.0
 40
8.0
 40
9.0
 40
9.0
 40
9.0
 40
10.0
 40
10.0
 40
10.0
 40
11.0
 40
11.0
 40
11.0
 40
11.0
 10
248.6376953125
 20
209.3759765625
 30
0.0
 10
251.9384765625
 20
209.275390625
 30
0.0
 10
255.23828125
 20
208.4755859375
 30
0.0
 10
258.4384765625
 20
207.4755859375
 30
0.0
 10
263.1376953125
 20
205.9755859375
 30
0.0
 10
267.837890625
 20
203.5751953125
 30
0.0
 10
270.837890625
 20
199.5751953125
 30
0.0
 10
272.837890625
 20
196.8759765625
 30
0.0
 10
273.9384765625
 20
193.5751953125
 30
0.0
 10
274.73828125
 20
190.275390625
 30
0.0
 10
277.23828125
 20
179.9755859375
 30
0.0
 10
276.5380859375
 20
167.9755859375
 30
0.0
 10
269.1376953125
 20
160.4755859375
 30
0.0
 10
268.1376953125
 20
159.4755859375
 30
0.0
 10
266.9384765625
 20
158.4755859375
 30
0.0
 10
265.6376953125
 20
157.8759765625
 30
0.0
 10
264.23828125
 20
157.17578125
 30
0.0
 10
262.73828125
 20
156.8759765625
 30
0.0
 10
261.23828125
 20
156.67578125
 30
0.0
 10
251.0380859375
 20
155.4755859375
 30
0.0
 10
241.0380859375
 20
160.3759765625
 30
0.0
 10
233.1376953125
 20
166.775390625
 30
0.0
 10
230.5380859375
 20
168.8759765625
 30
0.0
 10
228.0380859375
 20
171.17578125
 30
0.0
 10
226.5380859375
 20
174.0751953125
 30
0.0
 10
224.1376953125
 20
178.67578125
 30
0.0
 10
224.4384765625
 20
183.8759765625
 30
0.0
 10
224.6376953125
 20
188.8759765625
 30
0.0
 10
224.73828125
 20
191.9755859375
 30
0.0
 10
224.0380859375
 20
196.17578125
 30
0.0
 10
225.5380859375
 20
198.9755859375
 30
0.0
 10
229.0380859375
 20
206.275390625
 30
0.0
 10
241.23828125
 20
209.67578125
 30
0.0
 10
248.6376953125
 20
209.3759765625
 30
0.0
  0
ENDBLK
  5
E1
330
DE
100
AcDbEntity
  8
0
100
AcDbBlockEnd
  0
BLOCK
  5
E5
330
E3
100
AcDbEntity
  8
0
100
AcDbBlockBegin
  2
block 37
 70
     0
 71
     0
 10
0.0
 20
0.0
 30
0.0
  3
block 37
  1

  0
SPLINE
  5
E7
330
E3
100
AcDbEntity
  8
Layer 1
370
     0
100
AcDbSpline
210
0.0
220
0.0
230
1.0
 70
    11
 71
     3
 72
    32
 73
    28
 74
     0
 42
0.0000000001
 43
0.0000000001
 40
0.0
 40
0.0
 40
0.0
 40
0.0
 40
1.0
 40
1.0
 40
1.0
 40
2.0
 40
2.0
 40
2.0
 40
3.0
 40
3.0
 40
3.0
 40
4.0
 40
4.0
 40
4.0
 40
5.0
 40
5.0
 40
5.0
 40
6.0
 40
6.0
 40
6.0
 40
7.0
 40
7.0
 40
7.0
 40
8.0
 40
8.0
 40
8.0
 40
9.0
 40
9.0
 40
9.0
 40
9.0
 10
277.0380859375
 20
123.275390625
 30
0.0
 10
280.23828125
 20
122.275390625
 30
0.0
 10
283.337890625
 20
120.8759765625
 30
0.0
 10
285.6376953125
 20
118.4755859375
 30
0.0
 10
289.4384765625
 20
114.5751953125
 30
0.0
 10
290.5380859375
 20
108.67578125
 30
0.0
 10
290.4384765625
 20
103.17578125
 30
0.0
 10
290.337890625
 20
92.5751953125
 30
0.0
 10
285.73828125
 20
81.275390625
 30
0.0
 10
276.5380859375
 20
76.0751953125
 30
0.0
 10
273.337890625
 20
74.275390625
 30
0.0
 10
269.73828125
 20
73.17578125
 30
0.0
 10
266.1376953125
 20
72.275390625
 30
0.0
 10
259.837890625
 20
70.5751953125
 30
0.0
 10
252.6376953125
 20
69.3759765625
 30
0.0
 10
247.337890625
 20
73.17578125
 30
0.0
 10
245.337890625
 20
74.5751953125
 30
0.0
 10
243.9384765625
 20
76.5751953125
 30
0.0
 10
242.4384765625
 20
78.4755859375
 30
0.0
 10
239.837890625
 20
82.17578125
 30
0.0
 10
237.1376953125
 20
86.0751953125
 30
0.0
 10
236.6376953125
 20
90.5751953125
 30
0.0
 10
235.837890625
 20
97.775390625
 30
0.0
 10
241.337890625
 20
112.275390625
 30
0.0
 10
246.337890625
 20
117.275390625
 30
0.0
 10
253.837890625
 20
124.4755859375
 30
0.0
 10
267.5380859375
 20
126.0751953125
 30
0.0
 10
277.0380859375
 20
123.275390625
 30
0.0
  0
ENDBLK
  5
E6
330
E3
100
AcDbEntity
  8
0
100
AcDbBlockEnd
  0
BLOCK
  5
EA
330
E8
100
AcDbEntity
  8
0
100
AcDbBlockBegin
  2
block 38
 70
     0
 71
     0
 10
0.0
 20
0.0
 30
0.0
  3
block 38
  1

  0
SPLINE
  5
EC
330
E8
100
AcDbEntity
  8
Layer 1
370
     0
100
AcDbSpline
210
0.0
220
0.0
230
1.0
 70
    11
 71
     3
 72
    20
 73
    16
 74
     0
 42
0.0000000001
 43
0.0000000001
 40
0.0
 40
0.0
 40
0.0
 40
0.0
 40
1.0
 40
1.0
 40
1.0
 40
2.0
 40
2.0
 40
2.0
 40
3.0
 40
3.0
 40
3.0
 40
4.0
 40
4.0
 40
4.0
 40
5.0
 40
5.0
 40
5.0
 40
5.0
 10
274.337890625
 20
60.275390625
 30
0.0
 10
273.9384765625
 20
59.775390625
 30
0.0
 10
273.6376953125
 20
59.0751953125
 30
0.0
 10
273.837890625
 20
58.4755859375
 30
0.0
 10
273.9384765625
 20
58.17578125
 30
0.0
 10
274.23828125
 20
57.9755859375
 30
0.0
 10
274.4384765625
 20
57.775390625
 30
0.0
 10
276.73828125
 20
55.9755859375
 30
0.0
 10
279.6376953125
 20
54.8759765625
 30
0.0
 10
282.4384765625
 20
55.17578125
 30
0.0
 10
286.9384765625
 20
55.5751953125
 30
0.0
 10
293.73828125
 20
62.67578125
 30
0.0
 10
288.5380859375
 20
66.67578125
 30
0.0
 10
283.6376953125
 20
70.4755859375
 30
0.0
 10
276.837890625
 20
63.775390625
 30
0.0
 10
274.337890625
 20
60.275390625
 30
0.0
  0
ENDBLK
  5
EB
330
E8
100
AcDbEntity
  8
0
100
AcDbBlockEnd
  0
BLOCK
  5
EF
330
ED
100
AcDbEntity
  8
0
100
AcDbBlockBegin
  2
block 39
 70
     0
 71
     0
 10
0.0
 20
0.0
 30
0.0
  3
block 39
  1

  0
SPLINE
  5
F1
330
ED
100
AcDbEntity
  8
Layer 1
370
     0
100
AcDbSpline
210
0.0
220
0.0
230
1.0
 70
    11
 71
     3
 72
    32
 73
    28
 74
     0
 42
0.0000000001
 43
0.0000000001
 40
0.0
 40
0.0
 40
0.0
 40
0.0
 40
1.0
 40
1.0
 40
1.0
 40
2.0
 40
2.0
 40
2.0
 40
3.0
 40
3.0
 40
3.0
 40
4.0
 40
4.0
 40
4.0
 40
5.0
 40
5.0
 40
5.0
 40
6.0
 40
6.0
 40
6.0
 40
7.0
 40
7.0
 40
7.0
 40
8.0
 40
8.0
 40
8.0
 40
9.0
 40
9.0
 40
9.0
 40
9.0
 10
226.837890625
 20
54.9755859375
 30
0.0
 10
228.0380859375
 20
54.9755859375
 30
0.0
 10
229.1376953125
 20
55.3759765625
 30
0.0
 10
230.1376953125
 20
55.9755859375
 30
0.0
 10
231.0380859375
 20
56.5751953125
 30
0.0
 10
231.837890625
 20
57.3759765625
 30
0.0
 10
232.837890625
 20
57.775390625
 30
0.0
 10
234.9384765625
 20
58.67578125
 30
0.0
 10
237.5380859375
 20
57.8759765625
 30
0.0
 10
238.9384765625
 20
59.8759765625
 30
0.0
 10
241.837890625
 20
59.3759765625
 30
0.0
 10
240.337890625
 20
59.67578125
 30
0.0
 10
243.23828125
 20
59.17578125
 30
0.0
 10
243.6376953125
 20
57.5751953125
 30
0.0
 10
243.23828125
 20
55.775390625
 30
0.0
 10
242.1376953125
 20
54.4755859375
 30
0.0
 10
240.337890625
 20
52.3759765625
 30
0.0
 10
237.23828125
 20
52.0751953125
 30
0.0
 10
234.5380859375
 20
51.8759765625
 30
0.0
 10
232.4384765625
 20
51.775390625
 30
0.0
 10
230.23828125
 20
51.775390625
 30
0.0
 10
228.337890625
 20
52.67578125
 30
0.0
 10
227.837890625
 20
52.8759765625
 30
0.0
 10
227.337890625
 20
53.275390625
 30
0.0
 10
227.1376953125
 20
53.775390625
 30
0.0
 10
227.1376953125
 20
53.775390625
 30
0.0
 10
226.837890625
 20
54.9755859375
 30
0.0
 10
226.837890625
 20
54.9755859375
 30
0.0
  0
ENDBLK
  5
F0
330
ED
100
AcDbEntity
  8
0
100
AcDbBlockEnd
  0
BLOCK
  5
F4
330
F2
100
AcDbEntity
  8
0
100
AcDbBlockBegin
  2
block 40
 70
     0
 71
     0
 10
0.0
 20
0.0
 30
0.0
  3
block 40
  1

  0
SPLINE
  5
F6
330
F2
100
AcDbEntity
  8
Layer 1
370
     0
100
AcDbSpline
210
0.0
220
0.0
230
1.0
 70
    11
 71
     3
 72
    38
 73
    34
 74
     0
 42
0.0000000001
 43
0.0000000001
 40
0.0
 40
0.0
 40
0.0
 40
0.0
 40
1.0
 40
1.0
 40
1.0
 40
2.0
 40
2.0
 40
2.0
 40
3.0
 40
3.0
 40
3.0
 40
4.0
 40
4.0
 40
4.0
 40
5.0
 40
5.0
 40
5.0
 40
6.0
 40
6.0
 40
6.0
 40
7.0
 40
7.0
 40
7.0
 40
8.0
 40
8.0
 40
8.0
 40
9.0
 40
9.0
 40
9.0
 40
10.0
 40
10.0
 40
10.0
 40
11.0
 40
11.0
 40
11.0
 40
11.0
 10
377.73828125
 20
67.3759765625
 30
0.0
 10
377.23828125
 20
66.67578125
 30
0.0
 10
376.6376953125
 20
65.9755859375
 30
0.0
 10
375.837890625
 20
65.5751953125
 30
0.0
 10
374.23828125
 20
64.5751953125
 30
0.0
 10
372.4384765625
 20
64.275390625
 30
0.0
 10
370.5380859375
 20
63.9755859375
 30
0.0
 10
362.5380859375
 20
62.775390625
 30
0.0
 10
354.4384765625
 20
62.275390625
 30
0.0
 10
346.337890625
 20
62.4755859375
 30
0.0
 10
343.23828125
 20
62.5751953125
 30
0.0
 10
339.5380859375
 20
63.9755859375
 30
0.0
 10
342.9384765625
 20
66.8759765625
 30
0.0
 10
345.337890625
 20
68.8759765625
 30
0.0
 10
349.6376953125
 20
67.4755859375
 30
0.0
 10
352.5380859375
 20
68.5751953125
 30
0.0
 10
358.5380859375
 20
70.9755859375
 30
0.0
 10
363.9384765625
 20
72.0751953125
 30
0.0
 10
370.337890625
 20
71.8759765625
 30
0.0
 10
372.0380859375
 20
71.8759765625
 30
0.0
 10
374.0380859375
 20
74.4755859375
 30
0.0
 10
375.5380859375
 20
73.775390625
 30
0.0
 10
376.1376953125
 20
73.4755859375
 30
0.0
 10
376.73828125
 20
73.0751953125
 30
0.0
 10
377.23828125
 20
72.5751953125
 30
0.0
 10
377.23828125
 20
72.5751953125
 30
0.0
 10
377.23828125
 20
72.5751953125
 30
0.0
 10
377.23828125
 20
72.5751953125
 30
0.0
 10
377.0380859375
 20
70.9755859375
 30
0.0
 10
376.5380859375
 20
69.4755859375
 30
0.0
 10
375.0380859375
 20
68.67578125
 30
0.0
 10
374.9384765625
 20
68.67578125
 30
0.0
 10
376.0380859375
 20
68.275390625
 30
0.0
 10
377.73828125
 20
67.3759765625
 30
0.0
  0
ENDBLK
  5
F5
330
F2
100
AcDbEntity
  8
0
100
AcDbBlockEnd
  0
BLOCK
  5
F9
330
F7
100
AcDbEntity
  8
0
100
AcDbBlockBegin
  2
block 41
 70
     0
 71
     0
 10
0.0
 20
0.0
 30
0.0
  3
block 41
  1

  0
SPLINE
  5
FB
330
F7
100
AcDbEntity
  8
Layer 1
370
     0
100
AcDbSpline
210
0.0
220
0.0
230
1.0
 70
    11
 71
     3
 72
    29
 73
    25
 74
     0
 42
0.0000000001
 43
0.0000000001
 40
0.0
 40
0.0
 40
0.0
 40
0.0
 40
1.0
 40
1.0
 40
1.0
 40
2.0
 40
2.0
 40
2.0
 40
3.0
 40
3.0
 40
3.0
 40
4.0
 40
4.0
 40
4.0
 40
5.0
 40
5.0
 40
5.0
 40
6.0
 40
6.0
 40
6.0
 40
7.0
 40
7.0
 40
7.0
 40
8.0
 40
8.0
 40
8.0
 40
8.0
 10
269.23828125
 20
285.3759765625
 30
0.0
 10
270.1376953125
 20
283.9755859375
 30
0.0
 10
270.6376953125
 20
282.275390625
 30
0.0
 10
271.0380859375
 20
280.5751953125
 30
0.0
 10
272.23828125
 20
275.0751953125
 30
0.0
 10
271.73828125
 20
268.8759765625
 30
0.0
 10
267.9384765625
 20
264.775390625
 30
0.0
 10
265.5380859375
 20
262.275390625
 30
0.0
 10
262.23828125
 20
260.8759765625
 30
0.0
 10
258.9384765625
 20
260.17578125
 30
0.0
 10
257.6376953125
 20
259.8759765625
 30
0.0
 10
256.23828125
 20
259.775390625
 30
0.0
 10
254.837890625
 20
259.775390625
 30
0.0
 10
253.337890625
 20
259.775390625
 30
0.0
 10
251.73828125
 20
259.8759765625
 30
0.0
 10
250.23828125
 20
260.4755859375
 30
0.0
 10
247.837890625
 20
261.4755859375
 30
0.0
 10
246.1376953125
 20
263.67578125
 30
0.0
 10
244.9384765625
 20
265.9755859375
 30
0.0
 10
241.6376953125
 20
272.4755859375
 30
0.0
 10
240.9384765625
 20
286.275390625
 30
0.0
 10
247.73828125
 20
291.275390625
 30
0.0
 10
252.9384765625
 20
295.07568359375
 30
0.0
 10
265.9384765625
 20
290.4755859375
 30
0.0
 10
269.23828125
 20
285.3759765625
 30
0.0
  0
ENDBLK
  5
FA
330
F7
100
AcDbEntity
  8
0
100
AcDbBlockEnd
  0
BLOCK
  5
FE
330
FC
100
AcDbEntity
  8
0
100
AcDbBlockBegin
  2
block 42
 70
     0
 71
     0
 10
0.0
 20
0.0
 30
0.0
  3
block 42
  1

  0
SPLINE
  5
100
330
FC
100
AcDbEntity
  8
Layer 1
370
     0
100
AcDbSpline
210
0.0
220
0.0
230
1.0
 70
    11
 71
     3
 72
    26
 73
    22
 74
     0
 42
0.0000000001
 43
0.0000000001
 40
0.0
 40
0.0
 40
0.0
 40
0.0
 40
1.0
 40
1.0
 40
1.0
 40
2.0
 40
2.0
 40
2.0
 40
3.0
 40
3.0
 40
3.0
 40
4.0
 40
4.0
 40
4.0
 40
5.0
 40
5.0
 40
5.0
 40
6.0
 40
6.0
 40
6.0
 40
7.0
 40
7.0
 40
7.0
 40
7.0
 10
238.4384765625
 20
247.3759765625
 30
0.0
 10
238.6376953125
 20
245.0751953125
 30
0.0
 10
238.6376953125
 20
242.775390625
 30
0.0
 10
238.6376953125
 20
240.5751953125
 30
0.0
 10
238.5380859375
 20
238.0751953125
 30
0.0
 10
238.1376953125
 20
235.17578125
 30
0.0
 10
236.1376953125
 20
233.67578125
 30
0.0
 10
234.5380859375
 20
232.3759765625
 30
0.0
 10
232.23828125
 20
232.3759765625
 30
0.0
 10
230.23828125
 20
232.3759765625
 30
0.0
 10
229.0380859375
 20
232.3759765625
 30
0.0
 10
227.5380859375
 20
232.4755859375
 30
0.0
 10
226.837890625
 20
233.4755859375
 30
0.0
 10
226.337890625
 20
234.17578125
 30
0.0
 10
226.23828125
 20
234.9755859375
 30
0.0
 10
226.23828125
 20
235.8759765625
 30
0.0
 10
225.9384765625
 20
240.275390625
 30
0.0
 10
225.0380859375
 20
249.775390625
 30
0.0
 10
229.4384765625
 20
252.775390625
 30
0.0
 10
233.5380859375
 20
255.5751953125
 30
0.0
 10
238.1376953125
 20
251.8759765625
 30
0.0
 10
238.4384765625
 20
247.3759765625
 30
0.0
  0
ENDBLK
  5
FF
330
FC
100
AcDbEntity
  8
0
100
AcDbBlockEnd
  0
BLOCK
  5
103
330
101
100
AcDbEntity
  8
0
100
AcDbBlockBegin
  2
block 43
 70
     0
 71
     0
 10
0.0
 20
0.0
 30
0.0
  3
block 43
  1

  0
SPLINE
  5
105
330
101
100
AcDbEntity
  8
Layer 1
370
     0
100
AcDbSpline
210
0.0
220
0.0
230
1.0
 70
    11
 71
     3
 72
    14
 73
    10
 74
     0
 42
0.0000000001
 43
0.0000000001
 40
0.0
 40
0.0
 40
0.0
 40
0.0
 40
1.0
 40
1.0
 40
1.0
 40
2.0
 40
2.0
 40
2.0
 40
3.0
 40
3.0
 40
3.0
 40
3.0
 10
419.5380859375
 20
213.67578125
 30
0.0
 10
418.337890625
 20
214.9755859375
 30
0.0
 10
417.4384765625
 20
216.8759765625
 30
0.0
 10
416.9384765625
 20
218.5751953125
 30
0.0
 10
415.23828125
 20
224.0751953125
 30
0.0
 10
414.837890625
 20
229.8759765625
 30
0.0
 10
414.837890625
 20
235.67578125
 30
0.0
 10
416.73828125
 20
228.775390625
 30
0.0
 10
418.337890625
 20
221.4755859375
 30
0.0
 10
419.5380859375
 20
213.67578125
 30
0.0
  0
ENDBLK
  5
104
330
101
100
AcDbEntity
  8
0
100
AcDbBlockEnd
  0
BLOCK
  5
108
330
106
100
AcDbEntity
  8
0
100
AcDbBlockBegin
  2
block 44
 70
     0
 71
     0
 10
0.0
 20
0.0
 30
0.0
  3
block 44
  1

  0
SPLINE
  5
10A
330
106
100
AcDbEntity
  8
Layer 1
370
     0
100
AcDbSpline
210
0.0
220
0.0
230
1.0
 70
    11
 71
     3
 72
    17
 73
    13
 74
     0
 42
0.0000000001
 43
0.0000000001
 40
0.0
 40
0.0
 40
0.0
 40
0.0
 40
1.0
 40
1.0
 40
1.0
 40
2.0
 40
2.0
 40
2.0
 40
3.0
 40
3.0
 40
3.0
 40
4.0
 40
4.0
 40
4.0
 40
4.0
 10
383.5380859375
 20
136.4755859375
 30
0.0
 10
382.73828125
 20
135.17578125
 30
0.0
 10
382.0380859375
 20
133.8759765625
 30
0.0
 10
381.23828125
 20
132.67578125
 30
0.0
 10
377.5380859375
 20
133.67578125
 30
0.0
 10
370.73828125
 20
136.275390625
 30
0.0
 10
373.6376953125
 20
139.67578125
 30
0.0
 10
373.73828125
 20
139.775390625
 30
0.0
 10
373.9384765625
 20
139.8759765625
 30
0.0
 10
374.0380859375
 20
139.8759765625
 30
0.0
 10
377.5380859375
 20
140.67578125
 30
0.0
 10
381.337890625
 20
139.17578125
 30
0.0
 10
383.5380859375
 20
136.4755859375
 30
0.0
  0
ENDBLK
  5
109
330
106
100
AcDbEntity
  8
0
100
AcDbBlockEnd
  0
BLOCK
  5
10D
330
10B
100
AcDbEntity
  8
0
100
AcDbBlockBegin
  2
block 45
 70
     0
 71
     0
 10
0.0
 20
0.0
 30
0.0
  3
block 45
  1

  0
INSERT
  5
110
330
10B
100
AcDbEntity
  8
Layer 1
100
AcDbBlockReference
  2
block 46
 10
0.0
 20
0.0
 30
0.0
  0
INSERT
  5
115
330
10B
100
AcDbEntity
  8
Layer 1
100
AcDbBlockReference
  2
block 47
 10
0.0
 20
0.0
 30
0.0
  0
SPLINE
  5
119
330
10B
100
AcDbEntity
  8
Layer 1
370
     0
100
AcDbSpline
210
0.0
220
0.0
230
1.0
 70
    11
 71
     3
 72
   125
 73
   121
 74
     0
 42
0.0000000001
 43
0.0000000001
 40
0.0
 40
0.0
 40
0.0
 40
0.0
 40
1.0
 40
1.0
 40
1.0
 40
2.0
 40
2.0
 40
2.0
 40
3.0
 40
3.0
 40
3.0
 40
4.0
 40
4.0
 40
4.0
 40
5.0
 40
5.0
 40
5.0
 40
6.0
 40
6.0
 40
6.0
 40
7.0
 40
7.0
 40
7.0
 40
8.0
 40
8.0
 40
8.0
 40
9.0
 40
9.0
 40
9.0
 40
10.0
 40
10.0
 40
10.0
 40
11.0
 40
11.0
 40
11.0
 40
12.0
 40
12.0
 40
12.0
 40
13.0
 40
13.0
 40
13.0
 40
14.0
 40
14.0
 40
14.0
 40
15.0
 40
15.0
 40
15.0
 40
16.0
 40
16.0
 40
16.0
 40
17.0
 40
17.0
 40
17.0
 40
18.0
 40
18.0
 40
18.0
 40
19.0
 40
19.0
 40
19.0
 40
20.0
 40
20.0
 40
20.0
 40
21.0
 40
21.0
 40
21.0
 40
22.0
 40
22.0
 40
22.0
 40
23.0
 40
23.0
 40
23.0
 40
24.0
 40
24.0
 40
24.0
 40
25.0
 40
25.0
 40
25.0
 40
26.0
 40
26.0
 40
26.0
 40
27.0
 40
27.0
 40
27.0
 40
28.0
 40
28.0
 40
28.0
 40
29.0
 40
29.0
 40
29.0
 40
30.0
 40
30.0
 40
30.0
 40
31.0
 40
31.0
 40
31.0
 40
32.0
 40
32.0
 40
32.0
 40
33.0
 40
33.0
 40
33.0
 40
34.0
 40
34.0
 40
34.0
 40
35.0
 40
35.0
 40
35.0
 40
36.0
 40
36.0
 40
36.0
 40
37.0
 40
37.0
 40
37.0
 40
38.0
 40
38.0
 40
38.0
 40
39.0
 40
39.0
 40
39.0
 40
40.0
 40
40.0
 40
40.0
 40
40.0
 10
396.23828125
 20
137.3759765625
 30
0.0
 10
395.837890625
 20
138.67578125
 30
0.0
 10
395.4384765625
 20
140.0751953125
 30
0.0
 10
394.9384765625
 20
141.3759765625
 30
0.0
 10
394.73828125
 20
142.0751953125
 30
0.0
 10
394.4384765625
 20
142.775390625
 30
0.0
 10
394.23828125
 20
143.3759765625
 30
0.0
 10
394.0380859375
 20
144.0751953125
 30
0.0
 10
393.73828125
 20
144.775390625
 30
0.0
 10
393.5380859375
 20
145.3759765625
 30
0.0
 10
393.5380859375
 20
145.3759765625
 30
0.0
 10
393.23828125
 20
146.275390625
 30
0.0
 10
393.23828125
 20
146.275390625
 30
0.0
 10
393.23828125
 20
146.275390625
 30
0.0
 10
393.0380859375
 20
147.275390625
 30
0.0
 10
393.0380859375
 20
147.275390625
 30
0.0
 10
392.837890625
 20
147.8759765625
 30
0.0
 10
392.73828125
 20
148.5751953125
 30
0.0
 10
392.6376953125
 20
149.275390625
 30
0.0
 10
392.4384765625
 20
150.5751953125
 30
0.0
 10
392.23828125
 20
151.9755859375
 30
0.0
 10
392.1376953125
 20
153.275390625
 30
0.0
 10
392.0380859375
 20
153.9755859375
 30
0.0
 10
392.0380859375
 20
154.67578125
 30
0.0
 10
392.0380859375
 20
155.275390625
 30
0.0
 10
394.1376953125
 20
161.5751953125
 30
0.0
 10
395.837890625
 20
168.3759765625
 30
0.0
 10
396.837890625
 20
175.8759765625
 30
0.0
 10
403.5380859375
 20
222.67578125
 30
0.0
 10
395.4384765625
 20
270.67578125
 30
0.0
 10
388.0380859375
 20
301.17578125
 30
0.0
 10
385.23828125
 20
312.87548828125
 30
0.0
 10
382.4384765625
 20
322.07568359375
 30
0.0
 10
380.73828125
 20
327.4755859375
 30
0.0
 10
380.73828125
 20
327.4755859375
 30
0.0
 10
380.73828125
 20
327.4755859375
 30
0.0
 10
380.73828125
 20
327.4755859375
 30
0.0
 10
379.5380859375
 20
331.17578125
 30
0.0
 10
378.837890625
 20
333.17578125
 30
0.0
 10
378.837890625
 20
333.17578125
 30
0.0
 10
378.837890625
 20
333.17578125
 30
0.0
 10
315.337890625
 20
325.37548828125
 30
0.0
 10
303.337890625
 20
359.37548828125
 30
0.0
 10
303.337890625
 20
359.37548828125
 30
0.0
 10
281.9384765625
 20
325.275390625
 30
0.0
 10
274.6376953125
 20
260.9755859375
 30
0.0
 10
272.5380859375
 20
242.17578125
 30
0.0
 10
272.4384765625
 20
223.17578125
 30
0.0
 10
274.23828125
 20
204.275390625
 30
0.0
 10
274.5380859375
 20
201.275390625
 30
0.0
 10
274.9384765625
 20
198.17578125
 30
0.0
 10
275.23828125
 20
195.17578125
 30
0.0
 10
276.6376953125
 20
184.775390625
 30
0.0
 10
278.1376953125
 20
172.5751953125
 30
0.0
 10
279.337890625
 20
162.0751953125
 30
0.0
 10
280.337890625
 20
153.17578125
 30
0.0
 10
280.9384765625
 20
149.67578125
 30
0.0
 10
281.0380859375
 20
145.5751953125
 30
0.0
 10
281.0380859375
 20
145.5751953125
 30
0.0
 10
319.837890625
 20
120.0751953125
 30
0.0
 10
311.837890625
 20
85.5751953125
 30
0.0
 10
311.837890625
 20
85.5751953125
 30
0.0
 10
355.837890625
 20
93.275390625
 30
0.0
 10
381.0380859375
 20
132.5751953125
 30
0.0
 10
381.837890625
 20
133.775390625
 30
0.0
 10
382.6376953125
 20
135.0751953125
 30
0.0
 10
383.337890625
 20
136.3759765625
 30
0.0
 10
385.337890625
 20
139.775390625
 30
0.0
 10
387.1376953125
 20
143.4755859375
 30
0.0
 10
388.837890625
 20
147.275390625
 30
0.0
 10
388.837890625
 20
146.9755859375
 30
0.0
 10
388.9384765625
 20
146.775390625
 30
0.0
 10
388.9384765625
 20
146.4755859375
 30
0.0
 10
388.9384765625
 20
146.4755859375
 30
0.0
 10
389.1376953125
 20
145.275390625
 30
0.0
 10
389.1376953125
 20
145.275390625
 30
0.0
 10
389.1376953125
 20
145.275390625
 30
0.0
 10
389.4384765625
 20
144.0751953125
 30
0.0
 10
389.4384765625
 20
144.0751953125
 30
0.0
 10
389.6376953125
 20
143.275390625
 30
0.0
 10
389.9384765625
 20
142.67578125
 30
0.0
 10
390.23828125
 20
141.9755859375
 30
0.0
 10
390.5380859375
 20
141.275390625
 30
0.0
 10
390.73828125
 20
140.5751953125
 30
0.0
 10
391.0380859375
 20
139.9755859375
 30
0.0
 10
391.5380859375
 20
138.67578125
 30
0.0
 10
392.1376953125
 20
137.3759765625
 30
0.0
 10
392.6376953125
 20
136.0751953125
 30
0.0
 10
393.1376953125
 20
134.8759765625
 30
0.0
 10
393.6376953125
 20
133.5751953125
 30
0.0
 10
394.1376953125
 20
132.4755859375
 30
0.0
 10
394.5380859375
 20
131.3759765625
 30
0.0
 10
395.0380859375
 20
130.275390625
 30
0.0
 10
395.4384765625
 20
129.275390625
 30
0.0
 10
395.837890625
 20
128.275390625
 30
0.0
 10
396.1376953125
 20
127.3759765625
 30
0.0
 10
396.337890625
 20
126.4755859375
 30
0.0
 10
396.5380859375
 20
125.67578125
 30
0.0
 10
396.73828125
 20
124.8759765625
 30
0.0
 10
396.837890625
 20
124.275390625
 30
0.0
 10
396.9384765625
 20
123.6748046875
 30
0.0
 10
396.9384765625
 20
123.1748046875
 30
0.0
 10
396.9384765625
 20
122.775390625
 30
0.0
 10
396.9384765625
 20
122.4755859375
 30
0.0
 10
396.9384765625
 20
122.275390625
 30
0.0
 10
396.9384765625
 20
122.275390625
 30
0.0
 10
396.9384765625
 20
122.275390625
 30
0.0
 10
397.0380859375
 20
122.4755859375
 30
0.0
 10
397.1376953125
 20
122.775390625
 30
0.0
 10
397.337890625
 20
123.0751953125
 30
0.0
 10
397.4384765625
 20
123.5751953125
 30
0.0
 10
397.5380859375
 20
124.275390625
 30
0.0
 10
397.6376953125
 20
124.9755859375
 30
0.0
 10
397.73828125
 20
125.775390625
 30
0.0
 10
397.73828125
 20
126.6748046875
 30
0.0
 10
397.73828125
 20
127.5751953125
 30
0.0
 10
397.73828125
 20
128.6748046875
 30
0.0
 10
397.5380859375
 20
129.775390625
 30
0.0
 10
397.5380859375
 20
132.17578125
 30
0.0
 10
396.9384765625
 20
134.775390625
 30
0.0
 10
396.23828125
 20
137.3759765625
 30
0.0
  0
ENDBLK
  5
10E
330
10B
100
AcDbEntity
  8
0
100
AcDbBlockEnd
  0
BLOCK
  5
111
330
10F
100
AcDbEntity
  8
0
100
AcDbBlockBegin
  2
block 46
 70
     0
 71
     0
 10
0.0
 20
0.0
 30
0.0
  3
block 46
  1

  0
SPLINE
  5
113
330
10F
100
AcDbEntity
  8
Layer 1
370
     0
100
AcDbSpline
210
0.0
220
0.0
230
1.0
 70
    11
 71
     3
 72
   200
 73
   196
 74
     0
 42
0.0000000001
 43
0.0000000001
 40
0.0
 40
0.0
 40
0.0
 40
0.0
 40
1.0
 40
1.0
 40
1.0
 40
2.0
 40
2.0
 40
2.0
 40
3.0
 40
3.0
 40
3.0
 40
4.0
 40
4.0
 40
4.0
 40
5.0
 40
5.0
 40
5.0
 40
6.0
 40
6.0
 40
6.0
 40
7.0
 40
7.0
 40
7.0
 40
8.0
 40
8.0
 40
8.0
 40
9.0
 40
9.0
 40
9.0
 40
10.0
 40
10.0
 40
10.0
 40
11.0
 40
11.0
 40
11.0
 40
12.0
 40
12.0
 40
12.0
 40
13.0
 40
13.0
 40
13.0
 40
14.0
 40
14.0
 40
14.0
 40
15.0
 40
15.0
 40
15.0
 40
16.0
 40
16.0
 40
16.0
 40
17.0
 40
17.0
 40
17.0
 40
18.0
 40
18.0
 40
18.0
 40
19.0
 40
19.0
 40
19.0
 40
20.0
 40
20.0
 40
20.0
 40
21.0
 40
21.0
 40
21.0
 40
22.0
 40
22.0
 40
22.0
 40
23.0
 40
23.0
 40
23.0
 40
24.0
 40
24.0
 40
24.0
 40
25.0
 40
25.0
 40
25.0
 40
26.0
 40
26.0
 40
26.0
 40
27.0
 40
27.0
 40
27.0
 40
28.0
 40
28.0
 40
28.0
 40
29.0
 40
29.0
 40
29.0
 40
30.0
 40
30.0
 40
30.0
 40
31.0
 40
31.0
 40
31.0
 40
32.0
 40
32.0
 40
32.0
 40
33.0
 40
33.0
 40
33.0
 40
34.0
 40
34.0
 40
34.0
 40
35.0
 40
35.0
 40
35.0
 40
36.0
 40
36.0
 40
36.0
 40
37.0
 40
37.0
 40
37.0
 40
38.0
 40
38.0
 40
38.0
 40
39.0
 40
39.0
 40
39.0
 40
40.0
 40
40.0
 40
40.0
 40
41.0
 40
41.0
 40
41.0
 40
42.0
 40
42.0
 40
42.0
 40
43.0
 40
43.0
 40
43.0
 40
44.0
 40
44.0
 40
44.0
 40
45.0
 40
45.0
 40
45.0
 40
46.0
 40
46.0
 40
46.0
 40
47.0
 40
47.0
 40
47.0
 40
48.0
 40
48.0
 40
48.0
 40
49.0
 40
49.0
 40
49.0
 40
50.0
 40
50.0
 40
50.0
 40
51.0
 40
51.0
 40
51.0
 40
52.0
 40
52.0
 40
52.0
 40
53.0
 40
53.0
 40
53.0
 40
54.0
 40
54.0
 40
54.0
 40
55.0
 40
55.0
 40
55.0
 40
56.0
 40
56.0
 40
56.0
 40
57.0
 40
57.0
 40
57.0
 40
58.0
 40
58.0
 40
58.0
 40
59.0
 40
59.0
 40
59.0
 40
60.0
 40
60.0
 40
60.0
 40
61.0
 40
61.0
 40
61.0
 40
62.0
 40
62.0
 40
62.0
 40
63.0
 40
63.0
 40
63.0
 40
64.0
 40
64.0
 40
64.0
 40
65.0
 40
65.0
 40
65.0
 40
65.0
 10
236.73828125
 20
343.9755859375
 30
0.0
 10
236.73828125
 20
343.9755859375
 30
0.0
 10
237.0380859375
 20
342.9755859375
 30
0.0
 10
237.5380859375
 20
341.07568359375
 30
0.0
 10
238.0380859375
 20
339.17578125
 30
0.0
 10
238.6376953125
 20
336.37548828125
 30
0.0
 10
239.337890625
 20
332.67578125
 30
0.0
 10
239.9384765625
 20
329.07568359375
 30
0.0
 10
240.6376953125
 20
324.57568359375
 30
0.0
 10
240.9384765625
 20
319.4755859375
 30
0.0
 10
241.23828125
 20
314.37548828125
 30
0.0
 10
241.4384765625
 20
308.4755859375
 30
0.0
 10
240.337890625
 20
302.07568359375
 30
0.0
 10
240.23828125
 20
301.275390625
 30
0.0
 10
240.0380859375
 20
300.4755859375
 30
0.0
 10
239.837890625
 20
299.67578125
 30
0.0
 10
239.6376953125
 20
298.87548828125
 30
0.0
 10
239.4384765625
 20
298.07568359375
 30
0.0
 10
239.23828125
 20
297.275390625
 30
0.0
 10
238.9384765625
 20
296.4755859375
 30
0.0
 10
238.6376953125
 20
295.67578125
 30
0.0
 10
238.4384765625
 20
294.87548828125
 30
0.0
 10
238.337890625
 20
294.4755859375
 30
0.0
 10
238.1376953125
 20
294.07568359375
 30
0.0
 10
238.0380859375
 20
293.67578125
 30
0.0
 10
237.837890625
 20
293.275390625
 30
0.0
 10
237.73828125
 20
292.87548828125
 30
0.0
 10
237.5380859375
 20
292.4755859375
 30
0.0
 10
236.23828125
 20
289.37548828125
 30
0.0
 10
234.837890625
 20
286.07568359375
 30
0.0
 10
233.4384765625
 20
282.775390625
 30
0.0
 10
230.6376953125
 20
276.17578125
 30
0.0
 10
227.837890625
 20
269.0751953125
 30
0.0
 10
225.73828125
 20
261.67578125
 30
0.0
 10
224.73828125
 20
257.9755859375
 30
0.0
 10
223.9384765625
 20
254.0751953125
 30
0.0
 10
223.5380859375
 20
250.17578125
 30
0.0
 10
223.1376953125
 20
246.275390625
 30
0.0
 10
223.0380859375
 20
242.17578125
 30
0.0
 10
222.73828125
 20
238.0751953125
 30
0.0
 10
222.337890625
 20
229.775390625
 30
0.0
 10
221.837890625
 20
221.3759765625
 30
0.0
 10
221.0380859375
 20
212.9755859375
 30
0.0
 10
220.0380859375
 20
204.5751953125
 30
0.0
 10
219.0380859375
 20
196.0751953125
 30
0.0
 10
216.23828125
 20
187.8759765625
 30
0.0
 10
216.23828125
 20
187.8759765625
 30
0.0
 10
215.73828125
 20
186.3759765625
 30
0.0
 10
215.73828125
 20
186.3759765625
 30
0.0
 10
215.73828125
 20
186.3759765625
 30
0.0
 10
215.0380859375
 20
184.8759765625
 30
0.0
 10
215.0380859375
 20
184.8759765625
 30
0.0
 10
215.0380859375
 20
184.8759765625
 30
0.0
 10
214.337890625
 20
183.4755859375
 30
0.0
 10
214.337890625
 20
183.4755859375
 30
0.0
 10
214.1376953125
 20
182.9755859375
 30
0.0
 10
213.837890625
 20
182.5751953125
 30
0.0
 10
213.73828125
 20
182.17578125
 30
0.0
 10
213.4384765625
 20
181.3759765625
 30
0.0
 10
213.1376953125
 20
180.4755859375
 30
0.0
 10
212.9384765625
 20
179.67578125
 30
0.0
 10
212.73828125
 20
178.775390625
 30
0.0
 10
212.6376953125
 20
177.8759765625
 30
0.0
 10
212.6376953125
 20
176.9755859375
 30
0.0
 10
212.5380859375
 20
173.275390625
 30
0.0
 10
213.5380859375
 20
169.5751953125
 30
0.0
 10
214.9384765625
 20
165.9755859375
 30
0.0
 10
216.337890625
 20
162.3759765625
 30
0.0
 10
218.0380859375
 20
158.9755859375
 30
0.0
 10
219.837890625
 20
155.67578125
 30
0.0
 10
221.6376953125
 20
152.3759765625
 30
0.0
 10
223.4384765625
 20
149.17578125
 30
0.0
 10
225.23828125
 20
145.9755859375
 30
0.0
 10
226.1376953125
 20
144.3759765625
 30
0.0
 10
226.9384765625
 20
142.775390625
 30
0.0
 10
227.837890625
 20
141.275390625
 30
0.0
 10
228.6376953125
 20
139.775390625
 30
0.0
 10
229.4384765625
 20
138.0751953125
 30
0.0
 10
230.1376953125
 20
136.4755859375
 30
0.0
 10
231.4384765625
 20
133.275390625
 30
0.0
 10
232.4384765625
 20
130.0751953125
 30
0.0
 10
233.337890625
 20
126.9755859375
 30
0.0
 10
235.0380859375
 20
120.775390625
 30
0.0
 10
235.837890625
 20
114.9755859375
 30
0.0
 10
236.23828125
 20
109.8759765625
 30
0.0
 10
236.6376953125
 20
104.67578125
 30
0.0
 10
236.4384765625
 20
100.17578125
 30
0.0
 10
235.9384765625
 20
96.4755859375
 30
0.0
 10
235.4384765625
 20
92.775390625
 30
0.0
 10
234.5380859375
 20
89.9755859375
 30
0.0
 10
233.5380859375
 20
88.275390625
 30
0.0
 10
233.0380859375
 20
87.3759765625
 30
0.0
 10
232.6376953125
 20
86.775390625
 30
0.0
 10
232.337890625
 20
86.3759765625
 30
0.0
 10
232.0380859375
 20
85.9755859375
 30
0.0
 10
231.837890625
 20
85.775390625
 30
0.0
 10
231.837890625
 20
85.775390625
 30
0.0
 10
231.837890625
 20
85.775390625
 30
0.0
 10
232.0380859375
 20
85.9755859375
 30
0.0
 10
232.337890625
 20
86.3759765625
 30
0.0
 10
232.6376953125
 20
86.775390625
 30
0.0
 10
233.0380859375
 20
87.4755859375
 30
0.0
 10
233.4384765625
 20
88.3759765625
 30
0.0
 10
234.23828125
 20
90.17578125
 30
0.0
 10
234.9384765625
 20
92.9755859375
 30
0.0
 10
235.23828125
 20
96.5751953125
 30
0.0
 10
235.5380859375
 20
100.17578125
 30
0.0
 10
235.4384765625
 20
104.67578125
 30
0.0
 10
234.837890625
 20
109.67578125
 30
0.0
 10
234.23828125
 20
114.67578125
 30
0.0
 10
233.0380859375
 20
120.3759765625
 30
0.0
 10
231.23828125
 20
126.275390625
 30
0.0
 10
230.337890625
 20
129.275390625
 30
0.0
 10
229.23828125
 20
132.275390625
 30
0.0
 10
227.837890625
 20
135.275390625
 30
0.0
 10
227.1376953125
 20
136.775390625
 30
0.0
 10
226.4384765625
 20
138.275390625
 30
0.0
 10
225.5380859375
 20
139.775390625
 30
0.0
 10
224.6376953125
 20
141.275390625
 30
0.0
 10
223.73828125
 20
142.775390625
 30
0.0
 10
222.837890625
 20
144.3759765625
 30
0.0
 10
221.0380859375
 20
147.4755859375
 30
0.0
 10
219.0380859375
 20
150.67578125
 30
0.0
 10
217.1376953125
 20
153.9755859375
 30
0.0
 10
215.23828125
 20
157.275390625
 30
0.0
 10
213.4384765625
 20
160.775390625
 30
0.0
 10
211.837890625
 20
164.5751953125
 30
0.0
 10
210.337890625
 20
168.3759765625
 30
0.0
 10
209.0380859375
 20
172.4755859375
 30
0.0
 10
209.0380859375
 20
176.8759765625
 30
0.0
 10
209.0380859375
 20
179.0751953125
 30
0.0
 10
209.4384765625
 20
181.3759765625
 30
0.0
 10
210.337890625
 20
183.5751953125
 30
0.0
 10
210.5380859375
 20
184.17578125
 30
0.0
 10
210.837890625
 20
184.5751953125
 30
0.0
 10
211.0380859375
 20
185.0751953125
 30
0.0
 10
211.0380859375
 20
185.0751953125
 30
0.0
 10
211.23828125
 20
185.4755859375
 30
0.0
 10
211.23828125
 20
185.4755859375
 30
0.0
 10
211.23828125
 20
185.4755859375
 30
0.0
 10
211.337890625
 20
185.775390625
 30
0.0
 10
211.337890625
 20
185.775390625
 30
0.0
 10
211.337890625
 20
185.775390625
 30
0.0
 10
211.6376953125
 20
186.3759765625
 30
0.0
 10
211.6376953125
 20
186.3759765625
 30
0.0
 10
211.6376953125
 20
186.3759765625
 30
0.0
 10
212.23828125
 20
187.67578125
 30
0.0
 10
212.23828125
 20
187.67578125
 30
0.0
 10
212.23828125
 20
187.67578125
 30
0.0
 10
212.73828125
 20
189.0751953125
 30
0.0
 10
212.73828125
 20
189.0751953125
 30
0.0
 10
215.23828125
 20
196.5751953125
 30
0.0
 10
216.23828125
 20
204.9755859375
 30
0.0
 10
217.1376953125
 20
213.275390625
 30
0.0
 10
218.0380859375
 20
221.5751953125
 30
0.0
 10
218.5380859375
 20
229.9755859375
 30
0.0
 10
219.0380859375
 20
238.17578125
 30
0.0
 10
219.337890625
 20
242.275390625
 30
0.0
 10
219.4384765625
 20
246.3759765625
 30
0.0
 10
219.9384765625
 20
250.5751953125
 30
0.0
 10
220.4384765625
 20
254.67578125
 30
0.0
 10
221.337890625
 20
258.67578125
 30
0.0
 10
222.4384765625
 20
262.5751953125
 30
0.0
 10
224.6376953125
 20
270.275390625
 30
0.0
 10
227.73828125
 20
277.3759765625
 30
0.0
 10
230.73828125
 20
283.9755859375
 30
0.0
 10
232.23828125
 20
287.275390625
 30
0.0
 10
233.73828125
 20
290.4755859375
 30
0.0
 10
235.1376953125
 20
293.57568359375
 30
0.0
 10
235.337890625
 20
293.9755859375
 30
0.0
 10
235.5380859375
 20
294.37548828125
 30
0.0
 10
235.6376953125
 20
294.67578125
 30
0.0
 10
235.6376953125
 20
294.67578125
 30
0.0
 10
236.0380859375
 20
295.775390625
 30
0.0
 10
236.0380859375
 20
295.775390625
 30
0.0
 10
236.337890625
 20
296.4755859375
 30
0.0
 10
236.6376953125
 20
297.275390625
 30
0.0
 10
236.9384765625
 20
297.9755859375
 30
0.0
 10
237.1376953125
 20
298.775390625
 30
0.0
 10
237.337890625
 20
299.4755859375
 30
0.0
 10
237.5380859375
 20
300.275390625
 30
0.0
 10
237.73828125
 20
300.9755859375
 30
0.0
 10
237.9384765625
 20
301.775390625
 30
0.0
 10
238.0380859375
 20
302.57568359375
 30
0.0
 10
239.23828125
 20
308.57568359375
 30
0.0
 10
239.4384765625
 20
314.37548828125
 30
0.0
 10
239.4384765625
 20
319.4755859375
 30
0.0
 10
239.337890625
 20
324.57568359375
 30
0.0
 10
238.9384765625
 20
328.9755859375
 30
0.0
 10
238.5380859375
 20
332.67578125
 30
0.0
 10
238.0380859375
 20
336.275390625
 30
0.0
 10
237.6376953125
 20
339.17578125
 30
0.0
 10
237.337890625
 20
341.07568359375
 30
0.0
 10
237.0380859375
 20
342.9755859375
 30
0.0
 10
236.73828125
 20
343.9755859375
 30
0.0
 10
236.73828125
 20
343.9755859375
 30
0.0
  0
ENDBLK
  5
112
330
10F
100
AcDbEntity
  8
0
100
AcDbBlockEnd
  0
BLOCK
  5
116
330
114
100
AcDbEntity
  8
0
100
AcDbBlockBegin
  2
block 47
 70
     0
 71
     0
 10
0.0
 20
0.0
 30
0.0
  3
block 47
  1

  0
SPLINE
  5
118
330
114
100
AcDbEntity
  8
Layer 1
370
     0
100
AcDbSpline
210
0.0
220
0.0
230
1.0
 70
    11
 71
     3
 72
    26
 73
    22
 74
     0
 42
0.0000000001
 43
0.0000000001
 40
0.0
 40
0.0
 40
0.0
 40
0.0
 40
1.0
 40
1.0
 40
1.0
 40
2.0
 40
2.0
 40
2.0
 40
3.0
 40
3.0
 40
3.0
 40
4.0
 40
4.0
 40
4.0
 40
5.0
 40
5.0
 40
5.0
 40
6.0
 40
6.0
 40
6.0
 40
7.0
 40
7.0
 40
7.0
 40
7.0
 10
180.837890625
 20
70.275390625
 30
0.0
 10
185.6376953125
 20
62.5751953125
 30
0.0
 10
193.837890625
 20
68.775390625
 30
0.0
 10
193.837890625
 20
68.775390625
 30
0.0
 10
193.837890625
 20
68.775390625
 30
0.0
 10
197.1376953125
 20
64.0751953125
 30
0.0
 10
197.1376953125
 20
64.0751953125
 30
0.0
 10
200.4384765625
 20
60.775390625
 30
0.0
 10
208.4384765625
 20
60.3759765625
 30
0.0
 10
208.4384765625
 20
60.3759765625
 30
0.0
 10
196.4384765625
 20
16.3759765625
 30
0.0
 10
84.63818359375
 20
32.9755859375
 30
0.0
 10
78.43798828125
 20
38.9755859375
 30
0.0
 10
71.337890625
 20
43.275390625
 30
0.0
 10
72.23828125
 20
47.67578125
 30
0.0
 10
72.23828125
 20
47.67578125
 30
0.0
 10
159.73828125
 20
34.67578125
 30
0.0
 10
179.837890625
 20
66.775390625
 30
0.0
 10
179.837890625
 20
66.775390625
 30
0.0
 10
179.837890625
 20
66.775390625
 30
0.0
 10
180.837890625
 20
70.275390625
 30
0.0
 10
180.837890625
 20
70.275390625
 30
0.0
  0
ENDBLK
  5
117
330
114
100
AcDbEntity
  8
0
100
AcDbBlockEnd
  0
ENDSEC
  0
SECTION
  2
ENTITIES
  0
INSERT
  5
3D
330
1F
100
AcDbEntity
  8
Layer 1
100
AcDbBlockReference
  2
block 2
 10
0.0
 20
0.0
 30
0.0
  0
ENDSEC
  0
SECTION
  2
OBJECTS
  0
DICTIONARY
  5
C
330
0
100
AcDbDictionary
281
     1
  3
ACAD_GROUP
350
D
  3
ACAD_LAYOUT
350
1A
  3
ACAD_MLINESTYLE
350
17
  3
ACAD_PLOTSETTINGS
350
19
  3
ACAD_PLOTSTYLENAME
350
E
  3
ACAD_TABLESTYLE
350
11A
  3
ACAD_VISUALSTYLE
350
2A
  0
DICTIONARY
  5
D
102
{ACAD_REACTORS
330
C
102
}
330
C
100
AcDbDictionary
281
     1
  0
DICTIONARY
  5
1A
102
{ACAD_REACTORS
330
C
102
}
330
C
100
AcDbDictionary
281
     1
  3
Layout1
350
1E
  3
Layout2
350
26
  3
Model
350
22
  0
DICTIONARY
  5
17
102
{ACAD_REACTORS
330
C
102
}
330
C
100
AcDbDictionary
281
     1
  3
Standard
350
18
  0
DICTIONARY
  5
19
102
{ACAD_REACTORS
330
C
102
}
330
C
100
AcDbDictionary
281
     1
  0
ACDBDICTIONARYWDFLT
  5
E
102
{ACAD_REACTORS
330
C
102
}
330
C
100
AcDbDictionary
281
     1
  3
Normal
350
F
100
AcDbDictionaryWithDefault
340
F
  0
DICTIONARY
  5
11A
102
{ACAD_REACTORS
330
C
102
}
330
C
100
AcDbDictionary
281
     1
  0
DICTIONARY
  5
2A
102
{ACAD_REACTORS
330
C
102
}
330
C
100
AcDbDictionary
281
     1
  3
2dWireframe
350
2F
  3
3D Hidden
350
31
  3
3dWireframe
350
30
  3
Basic
350
32
  3
Brighten
350
36
  3
ColorChange
350
3A
  3
Conceptual
350
34
  3
Dim
350
35
  3
Facepattern
350
39
  3
Flat
350
2B
  3
FlatWithEdges
350
2C
  3
Gouraud
350
2D
  3
GouraudWithEdges
350
2E
  3
Linepattern
350
38
  3
Realistic
350
33
  3
Thicken
350
37
  0
LAYOUT
  5
1E
102
{ACAD_REACTORS
330
1A
102
}
330
1A
100
AcDbPlotSettings
  1

  2
none_device
  4

  6

 40
0.0
 41
0.0
 42
0.0
 43
0.0
 44
0.0
 45
0.0
 46
0.0
 47
0.0
 48
0.0
 49
0.0
140
0.0
141
0.0
142
1.0
143
1.0
 70
   688
 72
     0
 73
     0
 74
     5
  7

 75
    16
 76
     0
 77
     2
 78
   300
147
1.0
148
0.0
149
0.0
100
AcDbLayout
  1
Layout1
 70
     1
 71
     1
 10
0.0
 20
0.0
 11
12.0
 21
9.0
 12
0.0
 22
0.0
 32
0.0
 14
1.000000000000000E+20
 24
1.000000000000000E+20
 34
1.000000000000000E+20
 15
-1.000000000000000E+20
 25
-1.000000000000000E+20
 35
-1.000000000000000E+20
146
0.0
 13
0.0
 23
0.0
 33
0.0
 16
1.0
 26
0.0
 36
0.0
 17
0.0
 27
1.0
 37
0.0
 76
     0
330
1B
  0
LAYOUT
  5
26
102
{ACAD_REACTORS
330
1A
102
}
330
1A
100
AcDbPlotSettings
  1

  2
none_device
  4

  6

 40
0.0
 41
0.0
 42
0.0
 43
0.0
 44
0.0
 45
0.0
 46
0.0
 47
0.0
 48
0.0
 49
0.0
140
0.0
141
0.0
142
1.0
143
1.0
 70
   688
 72
     0
 73
     0
 74
     5
  7

 75
    16
 76
     0
 77
     2
 78
   300
147
1.0
148
0.0
149
0.0
100
AcDbLayout
  1
Layout2
 70
     1
 71
     2
 10
0.0
 20
0.0
 11
0.0
 21
0.0
 12
0.0
 22
0.0
 32
0.0
 14
0.0
 24
0.0
 34
0.0
 15
0.0
 25
0.0
 35
0.0
146
0.0
 13
0.0
 23
0.0
 33
0.0
 16
1.0
 26
0.0
 36
0.0
 17
0.0
 27
1.0
 37
0.0
 76
     0
330
23
  0
LAYOUT
  5
22
102
{ACAD_REACTORS
330
1A
102
}
330
1A
100
AcDbPlotSettings
  1

  2
none_device
  4

  6

 40
0.0
 41
0.0
 42
0.0
 43
0.0
 44
0.0
 45
0.0
 46
0.0
 47
0.0
 48
0.0
 49
0.0
140
0.0
141
0.0
142
1.0
143
1.0
 70
  1712
 72
     0
 73
     0
 74
     0
  7

 75
     0
 76
     0
 77
     2
 78
   300
147
1.0
148
0.0
149
0.0
100
AcDbLayout
  1
Model
 70
     1
 71
     0
 10
0.0
 20
0.0
 11
12.0
 21
9.0
 12
0.0
 22
0.0
 32
0.0
 14
1.000000000000000E+20
 24
1.000000000000000E+20
 34
1.000000000000000E+20
 15
-1.000000000000000E+20
 25
-1.000000000000000E+20
 35
-1.000000000000000E+20
146
0.0
 13
0.0
 23
0.0
 33
0.0
 16
1.0
 26
0.0
 36
0.0
 17
0.0
 27
1.0
 37
0.0
 76
     0
330
1F
331
29
  0
MLINESTYLE
  5
18
102
{ACAD_REACTORS
330
17
102
}
330
17
100
AcDbMlineStyle
  2
Standard
 70
     0
  3

 62
   256
 51
90.0
 52
90.0
 71
     2
 49
0.5
 62
   256
  6
BYLAYER
 49
-0.5
 62
   256
  6
BYLAYER
  0
ACDBPLACEHOLDER
  5
F
102
{ACAD_REACTORS
330
E
102
}
330
E
  0
VISUALSTYLE
  5
2F
102
{ACAD_REACTORS
330
2A
102
}
330
2A
100
AcDbVisualStyle
  2
2dWireframe
 70
     4
 71
     0
 72
     2
 73
     0
 90
        0
 40
-0.6
 41
-30.0
 62
     5
 63
     7
421
 16777215
 74
     1
 91
        4
 64
     7
 65
   257
 75
     1
175
     1
 42
1.0
 92
        0
 66
   257
 43
1.0
 76
     1
 77
     6
 78
     2
 67
     7
 79
     5
170
     0
171
     0
290
     0
174
     0
 93
        1
 44
0.0
173
     0
291
     0
 45
0.0
1001
ACAD
1000
AcDbSavedByObjectVersion
1070
     0
  0
VISUALSTYLE
  5
31
102
{ACAD_REACTORS
330
2A
102
}
330
2A
100
AcDbVisualStyle
  2
3D Hidden
 70
     6
 71
     1
 72
     2
 73
     2
 90
        0
 40
-0.6
 41
-30.0
 62
     5
 63
     7
421
 16777215
 74
     2
 91
        2
 64
     7
 65
   257
 75
     2
175
     1
 42
40.0
 92
        0
 66
   257
 43
1.0
 76
     1
 77
     6
 78
     2
 67
     7
 79
     3
170
     0
171
     0
290
     0
174
     0
 93
        1
 44
0.0
173
     0
291
     0
 45
0.0
1001
ACAD
1000
AcDbSavedByObjectVersion
1070
     0
  0
VISUALSTYLE
  5
30
102
{ACAD_REACTORS
330
2A
102
}
330
2A
100
AcDbVisualStyle
  2
3dWireframe
 70
     5
 71
     0
 72
     2
 73
     0
 90
        0
 40
-0.6
 41
-30.0
 62
     5
 63
     7
421
 16777215
 74
     1
 91
        4
 64
     7
 65
   257
 75
     1
175
     1
 42
1.0
 92
        0
 66
   257
 43
1.0
 76
     1
 77
     6
 78
     2
 67
     7
 79
     5
170
     0
171
     0
290
     0
174
     0
 93
        1
 44
0.0
173
     0
291
     0
 45
0.0
1001
ACAD
1000
AcDbSavedByObjectVersion
1070
     0
  0
VISUALSTYLE
  5
32
102
{ACAD_REACTORS
330
2A
102
}
330
2A
100
AcDbVisualStyle
  2
Basic
 70
     7
 71
     1
 72
     0
 73
     1
 90
        0
 40
-0.6
 41
-30.0
 62
     5
 63
     7
421
 16777215
 74
     0
 91
        4
 64
     7
 65
   257
 75
     1
175
     1
 42
1.0
 92
        8
 66
     7
 43
1.0
 76
     1
 77
     6
 78
     2
 67
     7
 79
     5
170
     0
171
     0
290
     0
174
     0
 93
        1
 44
0.0
173
     0
291
     1
 45
0.0
1001
ACAD
1000
AcDbSavedByObjectVersion
1070
     0
  0
VISUALSTYLE
  5
36
102
{ACAD_REACTORS
330
2A
102
}
330
2A
100
AcDbVisualStyle
  2
Brighten
 70
    12
 71
     2
 72
     2
 73
     0
 90
        0
 40
-0.6
 41
-30.0
 62
     5
 63
     7
421
 16777215
 74
     1
 91
        4
 64
     7
 65
   257
 75
     1
175
     1
 42
1.0
 92
        8
 66
     7
 43
1.0
 76
     1
 77
     6
 78
     2
 67
     7
 79
     5
170
     0
171
     0
290
     0
174
     0
 93
        1
 44
50.0
173
     0
291
     1
 45
0.0
1001
ACAD
1000
AcDbSavedByObjectVersion
1070
     0
  0
VISUALSTYLE
  5
3A
102
{ACAD_REACTORS
330
2A
102
}
330
2A
100
AcDbVisualStyle
  2
ColorChange
 70
    16
 71
     2
 72
     2
 73
     3
 90
        0
 40
-0.6
 41
-30.0
 62
     5
 63
     8
421
  8421504
 74
     1
 91
        4
 64
     7
 65
   257
 75
     1
175
     1
 42
1.0
 92
        8
 66
     8
424
  8421504
 43
1.0
 76
     1
 77
     6
 78
     2
 67
     7
 79
     5
170
     0
171
     0
290
     0
174
     0
 93
        1
 44
0.0
173
     0
291
     1
 45
0.0
1001
ACAD
1000
AcDbSavedByObjectVersion
1070
     0
  0
VISUALSTYLE
  5
34
102
{ACAD_REACTORS
330
2A
102
}
330
2A
100
AcDbVisualStyle
  2
Conceptual
 70
     9
 71
     3
 72
     2
 73
     0
 90
        0
 40
-0.6
 41
-30.0
 62
     5
 63
     7
421
 16777215
 74
     2
 91
        2
 64
     7
 65
   257
 75
     1
175
     1
 42
40.0
 92
        8
 66
     7
 43
1.0
 76
     1
 77
     6
 78
     2
 67
     7
 79
     3
170
     0
171
     0
290
     0
174
     0
 93
        1
 44
0.0
173
     0
291
     0
 45
0.0
1001
ACAD
1000
AcDbSavedByObjectVersion
1070
     0
  0
VISUALSTYLE
  5
35
102
{ACAD_REACTORS
330
2A
102
}
330
2A
100
AcDbVisualStyle
  2
Dim
 70
    11
 71
     2
 72
     2
 73
     0
 90
        0
 40
-0.6
 41
-30.0
 62
     5
 63
     7
421
 16777215
 74
     1
 91
        4
 64
     7
 65
   257
 75
     1
175
     1
 42
1.0
 92
        8
 66
     7
 43
1.0
 76
     1
 77
     6
 78
     2
 67
     7
 79
     5
170
     0
171
     0
290
     0
174
     0
 93
        1
 44
-50.0
173
     0
291
     1
 45
0.0
1001
ACAD
1000
AcDbSavedByObjectVersion
1070
     0
  0
VISUALSTYLE
  5
39
102
{ACAD_REACTORS
330
2A
102
}
330
2A
100
AcDbVisualStyle
  2
Facepattern
 70
    15
 71
     2
 72
     2
 73
     0
 90
        0
 40
-0.6
 41
-30.0
 62
     5
 63
     7
421
 16777215
 74
     1
 91
        4
 64
     7
 65
   257
 75
     1
175
     1
 42
1.0
 92
        8
 66
     7
 43
1.0
 76
     1
 77
     6
 78
     2
 67
     7
 79
     5
170
     0
171
     0
290
     0
174
     0
 93
        1
 44
0.0
173
     0
291
     1
 45
0.0
1001
ACAD
1000
AcDbSavedByObjectVersion
1070
     0
  0
VISUALSTYLE
  5
2B
102
{ACAD_REACTORS
330
2A
102
}
330
2A
100
AcDbVisualStyle
  2
Flat
 70
     0
 71
     2
 72
     1
 73
     1
 90
        2
 40
-0.6
 41
30.0
 62
     5
 63
     7
421
 16777215
 74
     0
 91
        4
 64
     7
 65
   257
 75
     1
175
     1
 42
1.0
 92
        8
 66
     7
 43
1.0
 76
     1
 77
     6
 78
     2
 67
     7
 79
     5
170
     0
171
     0
290
     0
174
     0
 93
       13
 44
0.0
173
     0
291
     1
 45
0.0
1001
ACAD
1000
AcDbSavedByObjectVersion
1070
     0
  0
VISUALSTYLE
  5
2C
102
{ACAD_REACTORS
330
2A
102
}
330
2A
100
AcDbVisualStyle
  2
FlatWithEdges
 70
     1
 71
     2
 72
     1
 73
     1
 90
        2
 40
-0.6
 41
30.0
 62
     5
 63
     7
421
 16777215
 74
     1
 91
        4
 64
     7
 65
   257
 75
     1
175
     1
 42
1.0
 92
        0
 66
   257
 43
1.0
 76
     1
 77
     6
 78
     2
 67
     7
 79
     5
170
     0
171
     0
290
     0
174
     0
 93
       13
 44
0.0
173
     0
291
     1
 45
0.0
1001
ACAD
1000
AcDbSavedByObjectVersion
1070
     0
  0
VISUALSTYLE
  5
2D
102
{ACAD_REACTORS
330
2A
102
}
330
2A
100
AcDbVisualStyle
  2
Gouraud
 70
     2
 71
     2
 72
     2
 73
     1
 90
        2
 40
-0.6
 41
30.0
 62
     5
 63
     7
421
 16777215
 74
     0
 91
        4
 64
     7
 65
   257
 75
     1
175
     1
 42
1.0
 92
        0
 66
     7
 43
1.0
 76
     1
 77
     6
 78
     2
 67
     7
 79
     5
170
     0
171
     0
290
     0
174
     0
 93
       13
 44
0.0
173
     0
291
     1
 45
0.0
1001
ACAD
1000
AcDbSavedByObjectVersion
1070
     0
  0
VISUALSTYLE
  5
2E
102
{ACAD_REACTORS
330
2A
102
}
330
2A
100
AcDbVisualStyle
  2
GouraudWithEdges
 70
     3
 71
     2
 72
     2
 73
     1
 90
        2
 40
-0.6
 41
30.0
 62
     5
 63
     7
421
 16777215
 74
     1
 91
        4
 64
     7
 65
   257
 75
     1
175
     1
 42
1.0
 92
        0
 66
   257
 43
1.0
 76
     1
 77
     6
 78
     2
 67
     7
 79
     5
170
     0
171
     0
290
     0
174
     0
 93
       13
 44
0.0
173
     0
291
     1
 45
0.0
1001
ACAD
1000
AcDbSavedByObjectVersion
1070
     0
  0
VISUALSTYLE
  5
38
102
{ACAD_REACTORS
330
2A
102
}
330
2A
100
AcDbVisualStyle
  2
Linepattern
 70
    14
 71
     2
 72
     2
 73
     0
 90
        0
 40
-0.6
 41
-30.0
 62
     5
 63
     7
421
 16777215
 74
     1
 91
        4
 64
     7
 65
   257
 75
     7
175
     7
 42
1.0
 92
        8
 66
     7
 43
1.0
 76
     1
 77
     6
 78
     2
 67
     7
 79
     5
170
     0
171
     0
290
     0
174
     0
 93
        1
 44
0.0
173
     0
291
     1
 45
0.0
1001
ACAD
1000
AcDbSavedByObjectVersion
1070
     0
  0
VISUALSTYLE
  5
33
102
{ACAD_REACTORS
330
2A
102
}
330
2A
100
AcDbVisualStyle
  2
Realistic
 70
     8
 71
     2
 72
     2
 73
     0
 90
        0
 40
-0.6
 41
-30.0
 62
     5
 63
     7
421
 16777215
 74
     1
 91
        0
 64
     7
 65
   257
 75
     1
175
     1
 42
1.0
 92
        8
 66
     8
424
  7895160
 43
1.0
 76
     1
 77
     6
 78
     2
 67
     7
 79
     5
170
     0
171
     0
290
     0
174
     0
 93
       13
 44
0.0
173
     0
291
     0
 45
0.0
1001
ACAD
1000
AcDbSavedByObjectVersion
1070
     0
  0
VISUALSTYLE
  5
37
102
{ACAD_REACTORS
330
2A
102
}
330
2A
100
AcDbVisualStyle
  2
Thicken
 70
    13
 71
     2
 72
     2
 73
     0
 90
        0
 40
-0.6
 41
-30.0
 62
     5
 63
     7
421
 16777215
 74
     1
 91
        4
 64
     7
 65
   257
 75
     1
175
     1
 42
1.0
 92
       12
 66
     7
 43
1.0
 76
     1
 77
     6
 78
     2
 67
     7
 79
     5
170
     0
171
     0
290
     0
174
     0
 93
        1
 44
0.0
173
     0
291
     1
 45
0.0
1001
ACAD
1000
AcDbSavedByObjectVersion
1070
     0
  0
ENDSEC
  0
EOF
