<?xml version="1.0" encoding="utf-8"?>
<!-- Generator: Adobe Illustrator 13.0.0, SVG Export Plug-In . SVG Version: 6.00 Build 14948)  -->
<!DOCTYPE svg PUBLIC "-//W3C//DTD SVG 1.0//EN" "http://www.w3.org/TR/2001/REC-SVG-20010904/DTD/svg10.dtd">
<svg version="1.0" id="Layer_1" xmlns="http://www.w3.org/2000/svg" xmlns:xlink="http://www.w3.org/1999/xlink" x="0px" y="0px"
	 width="500px" height="500px" viewBox="0 0 500 500" enable-background="new 0 0 500 500" xml:space="preserve">
<g id="Layer_2_copy">
	<path fill="#58C6BB" d="M421.238,317.024c0.3-11-0.601-21.4-2.101-31.2l0,0c-1.199-7.7-2.899-15.1-4.699-22
		c-6.601-25-15.801-44.8-16.5-58.8c-0.101-1.6-0.101-3,0.1-4.5c2-19-2.3-42-3.5-47.9l0,0c-0.2-0.9-0.3-1.4-0.3-1.4
		c8.7-15.7-0.101-54.3-0.101-54.3c1.301-17-18-34-18-34c1.301-4.7,1.7-8.8,1.601-12.4l0,0c-0.601,0.3-1.101,0.6-1.601,0.8
		c-0.899,0.4-2,0-2.399-0.9c-1.3-3.2-5.7-9.5-18.5-5c-2.101,0.7-4.3-0.2-5.2-2.1c-1.2,0.8-2.8,1-4.3,0.3c-2.9-1.4-8.8-2-19.8,3.9
		c-0.801,0.4-1.7,0.2-2.2-0.5c-2.5-3.2-8.3-12.3,2.2-17.3c8.1-3.9,15.899-2.1,20.699-0.2c1.9,0.7,3.4,2.1,4.301,3.8
		c0.3-0.6,0.5-1.1,0.899-1.7c0.101-0.2,0.3-0.4,0.5-0.5c1-0.8,4.3-3.2,8.7-4.7l0,0c-1.7-0.7-2.9-1-2.9-1
		c-21.6-8.8-39.699-2.8-51.899,4.8c-11,6.9-17.2,15-17.2,15c-0.1,0.1-0.3,0.3-0.5,0.5c-4.8,4.4-25.1,16.3-46.1,26.6l0,0
		c-0.601,0.3-1.2,0.6-1.801,0.9l0,0c-4.399,1.6-11,0.9-15.3,1c-8,0.1-15.6,2.9-23.1,5.7c-1.2,0.5-2.7,1.8-1.8,2.8
		c0.399,0.4,1.1,0.4,1.699,0.3c2.801-0.3,9.2,1.8,12,1.5c-0.1,0.1-0.199,0.2-0.399,0.4c-2.2,0.8-4.4,1.5-6.4,2.1
		c-3.7,1.1-7,2.2-9.899,3.4c-6.4,0.5-13.601,0.6-20.601,3.4c-0.4,0.7,8.8,0.6,9.2,2.6l0,0c-8.9,6.5-12.8,15.8-20.1,33.3
		c-5.9,14.2-10.5,29.9-16.1,49.1l-4.3,19.4l0,0c-5.8,3.5-14.6,11.2-16.9,17c1.6-2.7,4.8-4.4,8-4.2c2,3.3,0.8,7.6-1.6,10.6
		s-5.7,5-8.7,7.4s-5.7,6.5-6.2,10.3c3.3-0.3,9-7.7,12.6-7.8c-1.3,6.8-14.7,11.1-17.1,17.6c-0.4,1.101-0.5,2.5,0.5,3.101
		c2.6-3.5,5.4-3.4,7.5-4c-5.2,5.899-8.5,16-10.2,23.7c3-1.5,5.6-3.601,7.7-6.101c0.1,8-7.5,15.7-4.5,23.2c2.8-2.8,5.6-5.5,8.4-8.3
		l0.5-1.9c2.1,41.9,26.2,79.5,26.2,79.5c-2,36,7.3,41.3,12.3,48.3s2.8,10.301-8.8,9.801c-11.6-0.5,0,11-6,15.3s-11.3,0.3-15.8,2.5
		s-3.5,6.5-13.3,7.5c-9.8,1-10.5,3.5-14,7.5s-34.5,3-34.5,3c0.8,3.5,2.5,6.1,5.4,8.2c0.3,0.199,0.5,0.3,0.8,0.5
		c0.7,0.399,1.4,0.8,2.2,1.199l0,0c5.1,2.301,12.7,3.7,23.4,4.801h0.1c7.1,0.699,15.7,1.3,25.8,2c0.1,0,0.2,0,0.3,0
		c0.2,0,0.4,0,0.6,0c6.5,0.5,12.8,0.3,18.7-0.301c0.1,0,0.2,0,0.4,0l0,0l0,0c26.9-2.8,47-14.1,51.4-16.8
		c0.6-0.399,0.899-0.6,0.899-0.6l-1.5,6.5c-9.3,8.3-1.5,17.6,5.7,23.8s20.7,3.8,22.8,2c2.2-1.8,8.2-0.3,8.2-0.3
		c17.3,8.5,23.7-0.2,23.7-0.2l4.2-0.3c0,0,0.5,2.3,1.2,2.7c13.3,2.699,31.8,0.199,31.8,0.199c3.7,0,4.2-6,5.3-12.3
		c1.2-6.3,5.3-4.3,5.3-4.3c6.2,5.8,27.8,4,27.8,4c6.2,11.7,29.301,0.8,29.301,0.8c8.8,1.101,15.699-1.2,20.699-4.8l0,0
		c1-0.8,2-1.6,2.801-2.4c0.6-0.5,1.1-1.1,1.6-1.699l0,0c2-2.4,3.5-4.9,4.4-7.5c1-2.801,1.399-5.601,1.1-7.9
		c-1-7.2-13.2-14-18.8-16.8c-1.7-0.9-2.8-1.3-2.8-1.3c1.5-0.8,2.1-2.3,2.199-3.9l0,0c0.2-2.399-0.5-4.899-0.5-4.899
		c7.801,0.399,15.5-3.801,15.5-3.801c0.601,0.801,1.4,1.5,2.301,2c3,1.801,7.199,1.801,9.399,1.7c1-0.1,1.601-0.2,1.601-0.2
		c5.3-0.3,17.899-19.5,17.899-21.199c0-1.7,0.3-3.5,3.8-14.501C430.138,375.624,419.738,371.524,421.238,317.024z"/>
	<g>
		<g>
			<path fill="#F8FFFF" d="M326.338,59.824c-3.2-3-1-8.5,2.4-11.3c5.2-4.3,10.1-8.9,16.1-3
				C353.338,54.024,339.138,68.924,326.338,59.824z"/>
		</g>
		<g>
			<path fill="#F8FFFF" d="M355.638,59.824c-5-2.8-5.199-9.8-0.5-13c3.301-2.2,7.9-3.9,12.301-0.8c8.3,5.8,3.8,18.2-7.2,15.5
				C358.438,61.024,356.838,60.424,355.638,59.824z"/>
		</g>
	</g>
	<g>
		<circle fill="#051917" cx="333.838" cy="53.424" r="5"/>
	</g>
	<g>
		<circle fill="#051917" cx="358.138" cy="54.424" r="5"/>
	</g>
	<g>
		<g>
			<path fill="#051917" d="M341.638,77.324c0,0-7.8-7.2,4-9.8c11.801-2.7,23.101-1.1,24.4,4.4c1.3,5.2-5.5-1-8.7,6.3
				c-0.399,0.6-0.899,1.2-1.6,1.5c-2.3,1.1-5.2,1-7.4-0.7C348.638,74.324,342.638,72.824,341.638,77.324z"/>
		</g>
		<g>
			<path fill="#051917" d="M314.538,12.324c0,0-25.5-3.2-33.9,12.2c-2.8,5-2.6,11.3,1,15.8c6.301,8.1,18.2,7.9,18.2,7.9
				s9-8.5,6.8-17.8c0,0-14.1-1.2-10.3-7.2c1.101-1.8,3.101-2.9,5.2-3.2C307.238,19.324,321.238,17.024,314.538,12.324z"/>
		</g>
		<g>
			<path fill="#051917" d="M325.038,83.725c2.2,1.1,4.5,2.1,6.8,3.1s4.601,1.9,6.9,2.9c1.2,0.4,2.3,0.9,3.5,1.3s2.3,0.9,3.5,1.2
				c1.2,0.4,2.3,0.8,3.5,1.2c1.2,0.3,2.3,0.7,3.5,1c1.2,0.3,2.399,0.6,3.6,0.9l3.601,0.7l3.6,0.5c1.2,0.1,2.4,0.2,3.6,0.2
				c1.2-0.1,2.4,0,3.5-0.2c1-0.2,2.101-0.5,3-0.9c1-0.5,1.9-1,2.801-1.6c0.899-0.6,1.8-1.3,2.8-2.1l0,0l0.5-0.3l2.5,0.5l-2.5,0.5
				l0.5-0.3l0,0c-0.101,1.4-0.7,2.7-1.601,3.8c-0.899,1.1-2.1,2-3.399,2.5c-1.3,0.6-2.601,0.9-4.101,1.1c-1.3,0.1-2.6,0.1-3.899,0.1
				c-1.3-0.1-2.601-0.2-3.9-0.3c-1.3-0.2-2.5-0.4-3.8-0.7c-1.2-0.3-2.5-0.6-3.7-0.9c-1.2-0.3-2.399-0.7-3.6-1.1
				c-1.2-0.4-2.4-0.8-3.601-1.3c-1.199-0.4-2.3-0.9-3.5-1.4c-1.199-0.5-2.3-1-3.399-1.5c-1.101-0.5-2.3-1.1-3.4-1.6
				c-1.1-0.5-2.2-1.1-3.3-1.7l-3.3-1.8c-2.2-1.2-4.3-2.5-6.4-3.9L325.038,83.725z"/>
		</g>
		<path fill="#051917" d="M376.338,27.924c2.2-10.7-6.6-14.3-10.7-15.1c-4.3-0.8-14.699,6.7-4.699,7.5c7.5,0.6,3,4.3,0.199,6
			C365.538,25.125,370.938,24.824,376.338,27.924z"/>
	</g>
	<path fill="#1FAA9D" d="M351.638,31.725c-0.3,0.6-0.6,1.2-0.899,1.7c0.6,1.2,1,2.5,1,3.9c0,1.1,0,2.3-0.2,3.4
		c-0.2,1.1-0.8,2.1-1.7,2.6c0.9,1.9,3.101,2.9,5.2,2.1c12.8-4.5,17.1,1.7,18.5,5c0.4,0.9,1.5,1.4,2.4,0.9c0.5-0.2,1-0.5,1.6-0.8
		c5.1-2.9,12.9-9.4,3.1-19.1c-1.5-1.5-3-2.6-4.5-3.5c-5.399-3.2-10.8-2.9-15.1-1.5c-0.1,0-0.2,0.1-0.3,0.1c-4.5,1.4-7.8,3.9-8.7,4.7
		C351.938,31.324,351.738,31.524,351.638,31.725z"/>
	<path fill="#1FAA9D" d="M351.638,40.725c0.2-1.1,0.2-2.3,0.2-3.4c0-1.4-0.399-2.7-1-3.9c-0.899-1.7-2.399-3.1-4.3-3.8
		c-4.8-1.9-12.7-3.7-20.7,0.2c-10.6,5.1-4.8,14.1-2.2,17.3c0.5,0.7,1.5,0.9,2.2,0.5c11.101-5.9,16.9-5.3,19.8-3.9
		c1.5,0.7,3.101,0.5,4.301-0.3C350.838,42.725,351.438,41.824,351.638,40.725z"/>
	<g>
		<g>
			<g>
				<path fill="#7C7975" d="M223.438,416.124c0,0,0.5,4-0.801,5.801c-1.3,1.8,4.4-0.301,5-5.801
					C227.638,416.124,224.938,412.824,223.438,416.124z"/>
			</g>
			<g>
				<path fill="#7C7975" d="M210.438,430.524c0,0,4,1.5,4.5,1.5c0,0-3.4,3-6.301,2.4
					C208.638,434.425,207.438,432.024,210.438,430.524z"/>
			</g>
			<g>
				<g>
					<path fill="#7C7975" d="M229.938,472.624c0.899-6.199-16.301-15.5-19.7,0.2c-0.2,1-0.101,2.101,0.3,3.101
						c1.9,3.8,7.7,9.199,10.9,7.899C225.138,482.425,230.138,476.124,229.938,472.624z"/>
				</g>
			</g>
			<g>
				<g>
					<path fill="#7C7975" d="M260.938,470.324c0.1-5.3-15.801-21-20.601,1c0.5,3.601,6.3,10.601,11,10.4
						C255.038,480.225,261.638,473.725,260.938,470.324z"/>
				</g>
			</g>
			<g>
				<g>
					<path fill="#7C7975" d="M293.238,471.124c-0.2,3.7-1.4,9.2-6.9,12.9l-9.5-6.5c-3.3-2.3-4.399-6.8-2.2-10.2
						c2.7-4.399,7.601-8.3,15.4-2.7C292.138,466.225,293.438,468.624,293.238,471.124z"/>
				</g>
			</g>
			<g>
				<g>
					<path fill="#7C7975" d="M359.038,454.725c2.3-0.9,4.9-0.4,6.6,1.3c2.301,2.2,5.301,3.7,5.301,8.1c-0.301,3-2.801,9-2.801,9
						l-11.6-2.199c-2.9-0.601-5-3.101-5-6C351.538,461.425,352.938,457.124,359.038,454.725z"/>
				</g>
			</g>
			<g>
				<g>
					<path fill="#7C7975" d="M377.238,463.524c-0.9-0.1-1.5-0.9-1.2-1.7c1.4-3.6,4.2-9.8,6.4-9.3c3.199,0.7,10.699,7.8,7.3,18.8
						C389.838,471.324,381.738,463.824,377.238,463.524z"/>
				</g>
			</g>
			<g>
				<g>
					<path fill="#7C7975" d="M390.138,453.824c1-0.2,2,0.101,2.7,0.7c1.8,1.6,4.9,5.1,4.5,8.7c-0.7,5.1-0.7,5.1-0.7,5.1
						s-4.399-2.5-6-1.8c-1.699,0.6-5.5-5.6-5.5-5.6S382.338,455.524,390.138,453.824z"/>
				</g>
			</g>
		</g>
		<g>
			<path fill="#7C7975" d="M394.138,418.324c0,0,0.301,7.2-7.3,6.5c0,0,8.5,5.5,16.8-3.2
				C403.638,421.624,400.038,414.225,394.138,418.324z"/>
		</g>
		<g>
			<path fill="#7C7975" d="M388.038,397.725c0,0,0.1,0.3,0.3,0.7c0.8,2.1,3.4,8,4.9,8.3c1.8,0.3,3.7-6.3,5.3-8
				C400.638,398.524,391.338,388.024,388.038,397.725z"/>
		</g>
	</g>
	<g>
		<g>
			<path fill="#9292CC" d="M243.038,104.924c3.3,1,6.6,2.6,8.5,5.4c1,1.4,1.6,3,1.9,4.6c1.5,6.8-1.5,14.4-7.301,18.3
				c-2.3,1.5-4.899,2.5-7.399,3.7c-6.4,3-12.3,7.1-18.9,9.6c-6.6,2.5-14.5,3.2-20.399-0.8c-9.5-6.3-15.601-26.7-4.2-33.7
				C208.638,103.924,228.238,100.324,243.038,104.924z"/>
		</g>
		<g>
			<path fill="#9292CC" d="M398.038,200.524c-0.1,1.4-0.1,2.9-0.1,4.5c-3-1.4-5.7-3.8-7.801-6.8c-2.199-3-3.8-6.8-4.6-10.8
				c-0.7-3.5-0.8-7.2-0.9-10.8c0-1.5-0.1-3.1,0-4.7c0.101-2.6,0.4-5.1,1.2-7.4c1.9-5,4.601-9.8,8.601-11.8
				C395.338,158.524,399.538,181.524,398.038,200.524z"/>
		</g>
		<g>
			<path fill="#9292CC" d="M149.838,178.625c7.7-5.7,20-8.1,28.2-8.7c3.2-0.2,6.7-0.1,9.4,1.7c3.1,2,4.6,5.7,5.899,9.1
				c2.101,5.4,4.2,11.3,2.8,16.9c-1.399,5.4-5.8,9.4-10.1,12.9c-1.3,1-2.6,2-4.1,2.7c-1.8,0.899-3.8,1.2-5.8,1.5
				c-10.6,1.3-21.7-0.601-31.2-5.5c-0.6-0.3-1.2-0.6-1.7-1L149.838,178.625z"/>
		</g>
		<g>
			<path fill="#9292CC" d="M165.438,240.324c4.1-1,8.6-0.1,12,2.4c3.5,2.5,9.3,4.7,11.8,8.3c3.899,5.6,14.1,19.5,15.5,21.4
				c2,2.899,2.5,6.6,2.3,10.1c-0.6,11.9-9.4,23-20.9,26.3c-3.5,1-7.2,1.4-10.8,1.3c-3.2,0-6.5-0.399-9.5-1.5
				c-6-2.1-10.7-7-14.2-12.3c-4.4-6.8-8.7-16.7-8.1-25c0.3-4,2.8-7.899,4.4-11.5C148.038,259.925,156.038,243.124,165.438,240.324z"
				/>
		</g>
		<g>
			<path fill="#9292CC" d="M169.938,334.425c4.8-1.601,10.6,0.1,13.8,4.199c1.6,2.101,2.5,4.7,3.3,7.2s1.5,5.2,1.4,7.8
				c0,2.7-0.9,5.4-2.7,7.301c-2.4,2.399-6,3.199-9.4,3.399c-2.3,0.2-4.7,0.101-6.7-1c-2.1-1.2-3.2-3.5-4.3-5.6
				c-2.1-4.4-5.1-9.101-3.7-13.9C162.938,339.524,165.638,335.824,169.938,334.425z"/>
		</g>
		<g>
			<path fill="#9292CC" d="M248.138,290.124c3.301,0.101,6.601,0.9,9.801,1.9c4.699,1.5,9.399,3.9,12.399,7.9
				c2,2.699,3.101,6,3.9,9.3c2.5,10.3,1.8,22.3-5.601,29.8c-1,1-2.199,2-3.5,2.6c-1.399,0.7-2.899,1-4.399,1.2
				c-10.2,1.2-20.2-3.7-28.101-10.1c-2.6-2.101-5.1-4.4-6.6-7.3c-2.4-4.601-2.1-9.801-1.9-14.801c0.101-3.1-0.6-7.3,0.9-10.1
				C228.538,293.225,240.738,289.824,248.138,290.124z"/>
		</g>
		<g>
			<path fill="#9292CC" d="M276.538,376.225c3.2,1,6.3,2.399,8.6,4.8c3.801,3.9,4.9,9.8,4.801,15.3
				c-0.101,10.601-4.7,21.9-13.9,27.101c-3.2,1.8-6.8,2.899-10.4,3.8c-6.3,1.7-13.5,2.899-18.8-0.9c-2-1.399-3.399-3.399-4.899-5.3
				c-2.601-3.7-5.301-7.6-5.801-12.1c-0.8-7.2,4.7-21.7,9.7-26.7C253.338,375.024,267.038,373.425,276.538,376.225z"/>
		</g>
		<g>
			<path fill="#9292CC" d="M273.838,439.225c-0.399,0.5-0.7,1.2-0.5,1.8c0.101,0.3,0.4,0.5,0.601,0.7c2.3,1.8,5.199,2.899,8,2.6
				c4.5-0.399,11.3-7.5,6.1-11.5C283.138,429.024,276.338,435.725,273.838,439.225z"/>
		</g>
		<g>
			<path fill="#9292CC" d="M226.338,444.524c1.2,0,2.3-0.4,3.3-1c0.9-0.6,1.7-1.4,2.7-1.8c2.101-0.9,4.7-0.101,6.101-2.101
				c2.899,0.5,1.399,0.2,4.3,0.7c0.399,1.601,0,3.4-1.101,4.7c-1.8,2.1-4.899,2.4-7.6,2.6c-2.1,0.101-4.3,0.101-6.2-0.8
				c-0.5-0.2-1-0.6-1.2-1.1L226.338,444.524z"/>
		</g>
		<g>
			<path fill="#9292CC" d="M377.238,432.124c-0.5,0.7-1.101,1.4-1.9,1.801c-1.6,1-3.399,1.3-5.3,1.6c-8,1.2-16.1,1.7-24.2,1.5
				c-3.1-0.1-6.8-1.5-3.399-4.4c2.399-2,6.699-0.6,9.6-1.699c6-2.4,11.4-3.5,17.8-3.301c1.7,0,3.7-2.6,5.2-1.899
				c0.6,0.3,1.2,0.7,1.7,1.2l0,0c-0.2,1.6-0.7,3.1-2.2,3.899C374.438,430.824,375.538,431.225,377.238,432.124z"/>
		</g>
		<g>
			<path fill="#9292CC" d="M268.738,214.124c0.899,1.4,1.399,3.101,1.8,4.801c1.2,5.5,0.7,11.699-3.1,15.8c-2.4,2.5-5.7,3.899-9,4.6
				c-1.301,0.3-2.7,0.4-4.101,0.4c-1.5,0-3.1-0.101-4.6-0.7c-2.4-1-4.101-3.2-5.3-5.5c-3.301-6.5-4-20.3,2.8-25.3
				C252.438,204.424,265.438,209.024,268.738,214.124z"/>
		</g>
		<g>
			<path fill="#9292CC" d="M237.938,252.124c0.199,2.301,0.199,4.601,0.199,6.801c-0.1,2.5-0.5,5.399-2.5,6.899
				c-1.6,1.3-3.899,1.3-5.899,1.3c-1.2,0-2.7-0.1-3.4-1.1c-0.5-0.7-0.6-1.5-0.6-2.4c-0.3-4.399-1.2-13.899,3.2-16.899
				C233.038,243.925,237.638,247.624,237.938,252.124z"/>
		</g>
		<g>
			<path fill="#9292CC" d="M419.038,285.824c-1.2-1.3-2.1-3.2-2.6-4.899c-1.7-5.5-2.101-11.301-2.101-17.101
				C416.238,270.725,417.838,278.024,419.038,285.824z"/>
		</g>
		<g>
			<path fill="#9292CC" d="M383.038,363.024c-0.8,1.3-1.5,2.6-2.3,3.8c-3.7-1-10.5-3.6-7.601-7c0.101-0.1,0.301-0.2,0.4-0.2
				C377.038,358.824,380.838,360.324,383.038,363.024z"/>
		</g>
	</g>
	<g>
		<g>
			<path fill="#1FAA9D" d="M236.238,155.524c0,0,0.3,1,0.8,2.9s1.1,4.7,1.8,8.4c0.601,3.6,1.3,8.1,1.601,13.2
				c0.3,5.1,0.5,11-0.601,17.4c-0.1,0.8-0.3,1.6-0.5,2.4c-0.2,0.8-0.399,1.6-0.6,2.4c-0.3,0.8-0.601,1.6-0.8,2.4
				c-0.101,0.4-0.301,0.8-0.4,1.2c-0.2,0.4-0.3,0.8-0.5,1.2c-1.3,3.1-2.7,6.4-4.1,9.7c-2.801,6.6-5.601,13.7-7.7,21.1
				c-1,3.7-1.8,7.601-2.2,11.5c-0.4,3.9-0.5,8-0.8,12.101c-0.4,8.3-0.9,16.699-1.7,25.1c-1,8.4-2,16.9-4.8,25.1l-0.5,1.5l-0.7,1.5
				l-0.7,1.4c-0.2,0.5-0.5,0.9-0.6,1.3c-0.3,0.8-0.601,1.7-0.8,2.5c-0.2,0.9-0.301,1.8-0.301,2.7c-0.1,3.7,0.9,7.4,2.301,11
				c1.399,3.6,3.1,7,4.899,10.3s3.601,6.5,5.4,9.7c0.899,1.6,1.7,3.2,2.6,4.7c0.8,1.5,1.601,3.2,2.3,4.8
				c1.301,3.2,2.301,6.4,3.2,9.5c1.7,6.2,2.5,12,2.9,17.1c0.399,5.2,0.2,9.7-0.3,13.4s-1.4,6.5-2.4,8.2
				c-0.5,0.899-0.9,1.5-1.2,1.899c-0.3,0.4-0.5,0.601-0.5,0.601s0.2-0.2,0.5-0.601c0.3-0.399,0.7-1.1,1.101-2
				c0.8-1.8,1.5-4.6,1.8-8.199c0.3-3.601,0.2-8.101-0.4-13.101c-0.6-5-1.8-10.7-3.6-16.6c-0.9-3-2-6-3.4-9c-0.7-1.5-1.399-3-2.3-4.5
				s-1.8-3-2.7-4.601c-1.8-3.1-3.8-6.3-5.7-9.6c-1.899-3.3-3.699-6.8-5.3-10.6c-1.5-3.801-2.8-7.9-2.8-12.301
				c0-2.199,0.4-4.5,1.3-6.699c0.2-0.601,0.5-1,0.7-1.5l0.2-0.4l0.1-0.3l0.3-0.601l0.601-1.3l0.5-1.399c2.5-7.5,3.5-15.9,4.399-24.2
				c0.9-8.3,1.4-16.7,1.9-24.9c0.3-4.1,0.4-8.2,0.9-12.399c0.5-4.101,1.399-8.101,2.5-12c2.199-7.7,5.3-14.801,8.3-21.4
				c1.5-3.3,3-6.5,4.399-9.6c0.2-0.4,0.4-0.8,0.5-1.1l0.4-1.1c0.3-0.7,0.6-1.5,0.9-2.2c0.199-0.8,0.399-1.5,0.6-2.3
				c0.2-0.7,0.4-1.5,0.5-2.3c1.2-6,1.4-11.8,1.4-16.9c-0.101-5.1-0.5-9.5-0.9-13.2c-0.5-3.6-0.9-6.5-1.2-8.4
				S236.238,155.524,236.238,155.524z"/>
		</g>
		<g>
			<path fill="#1FAA9D" d="M180.338,429.225c4.8,7.7,13,1.5,13,1.5l3.3,4.7c3.301,3.3,11.301,3.699,11.301,3.699
				c-12,44-123.8,27.4-130,21.4c-7.1-4.3-6.2-8.7-6.2-8.7c87.5,13,107.6-19.1,107.6-19.1L180.338,429.225z"/>
		</g>
		<path fill="#1FAA9D" d="M395.738,362.124c-0.4-1.3-0.8-2.699-1.3-4c-0.2-0.699-0.5-1.399-0.7-2c-0.2-0.699-0.5-1.399-0.7-2
			l-0.3-0.899l-0.2-1c-0.2-0.601-0.3-1.3-0.4-2c-0.199-1.3-0.399-2.7-0.5-4c-0.1-0.7-0.1-1.4-0.1-2c2.1-6.3,3.8-13.101,4.8-20.601
			c6.7-46.8-1.399-94.8-8.8-125.3c-2.8-11.7-5.6-20.9-7.3-26.3l0,0c-1.2-3.7-1.9-5.7-1.9-5.7s-63.5,7.8-75.5-26.2
			c0,0-21.399,34.1-28.7,98.4c-2.1,18.8-2.199,37.8-0.399,56.7c0.3,3,0.7,6.1,1,9.1c1.399,10.4,2.899,22.601,4.1,33.101
			c1,8.899,1.601,12.399,1.7,16.5c0,0,38.8,25.5,30.8,60c0,0,44-7.7,69.2-47c0.8-1.2,1.6-2.5,2.3-3.801c2-3.399,3.8-7.1,5.5-10.899
			c0,0.3,0.101,0.5,0.101,0.8l0.199,1.2l0.301,1.2c0.199,0.8,0.5,1.399,0.8,2.1s0.5,1.4,0.8,2c0.5,1.3,1.1,2.6,1.6,3.9
			c0.5,1.199,1,2.5,1.5,3.6c0.4,1.1,0.9,2.2,1.301,3.2c0.399,1,0.699,1.899,0.899,2.8c0.2,0.8,0.4,1.6,0.5,2.2
			c0.101,0.601,0.101,1.101,0.101,1.5c0,0.3,0,0.5,0,0.5s0.1-0.2,0.199-0.5c0.2-0.3,0.301-0.8,0.4-1.5s0.2-1.5,0.2-2.399
			c0-0.9,0-2-0.2-3.101C397.038,367.324,396.438,364.725,395.738,362.124z"/>
	</g>
</g>
</svg>
