<?xml version="1.0" encoding="utf-8"?>
<svg viewBox="0 0 500 500" xmlns="http://www.w3.org/2000/svg">
  <g transform="matrix(1, 0, 0, 1, 94.841347, 75.963257)">
    <g id="Layer_1">
      <rect width="286.016" height="289.761" fill="none"/>
      <path stroke="#000000" stroke-width="2.2742" stroke-linecap="round" stroke-linejoin="bevel" d=" M67.265,203.297c4.001,17.025,13.368,32.77,24.919,43.293c12.779,11.641,27.907,5.285,41.089,9.52 c9.405,3.021,17.901,6.807,28.714,3.371c16.238-5.16,38.154-46.172,42.324-61.123c2.029-7.266,45.414-39.908,56.35-47.131 c16.418-10.84,8.15-28.834-9.289-19.791c-11.855,6.148-51.602,40.602-57.951,34.059s36.33-73.709,43.051-83.852 c10.572-15.958-10.541-26.846-19.885-13.199c-5.885,8.592-44.021,77.211-50.424,74.564c-6.403-2.646,8.253-81.105,10.439-94.6 c3.707-22.875-20.402-27.361-24.219-4.039c-2.169,13.25-13.406,91.547-19.883,92.725s-26.693-67.764-31.055-82.861 c-5.918-20.477-27.516-13.882-22.154,6.934c3.877,15.059,23.036,81.072,16.934,103.57c-3.52,12.971-6.746,11.518-16.583-0.264 c-26.474-31.703-55.667-34.346-63.162-17.869C34.038,156.941,61.833,180.18,67.265,203.297z" style="fill: rgb(206, 247, 90);"/>
    </g>
  </g>
</svg>