<?xml version="1.0" encoding="utf-8"?>
<!-- Generator: Adobe Illustrator 25.4.8, SVG Export Plug-In . SVG Version: 6.00 Build 0)  -->
<svg version="1.1" id="Layer_1" xmlns="http://www.w3.org/2000/svg" xmlns:xlink="http://www.w3.org/1999/xlink" x="0px" y="0px"
	 viewBox="0 0 720 720" style="enable-background:new 0 0 720 720;" xml:space="preserve">
<g>
	<path style="fill:#111111;" d="M535.5,215.6c-1.5,22.7-4.3,45.5-9.1,67.9c-4.4,33-16,68-42.3,90.1c-39.6,24.9-85.9-0.2-123.1-17.8
		c-10.8-7.5-22.6-2.1-33.3,1.1c-21.2-6.2-30.1-32.7-52.4-36.4c-14.5,0.3-27.5,8.5-41.9,10.4c-14.7-5.9-24.8-25.8-43-21.3
		C128.7,321.4,72.2,358,35.4,408.7c-10.1,15.9-22.2,31.7-21.8,51.5c19.2,2.5,38.7,1.8,58.2,2.7c-2.3,7.4-9.2,14.7-6.8,22.7
		c24.8,8.1,50.7,4.6,76,6c-2.7,7.7-18.4,21.9-5.4,26.2c168.4,8.7,337,6.9,505.4,2.7c22-1.9,44.2-1.1,65.9-5.1
		C685.3,418.1,668,318.2,662.3,218C620.3,216.6,577.8,215.8,535.5,215.6z"/>
	<path style="fill:#A5A59C;" d="M180,383.9c-32.1,21.4-61.3,48.2-84.7,79.4c23.7,1.4,47.3,1.4,70.8,0.1c15.1-12.7,29.6-25.8,45-38.4
		C214,406.5,198.1,387.2,180,383.9z"/>
	<path style="fill:#A5A59C;" d="M262.3,413.3c-33,22.9-67.2,48.5-90.2,81c40.2-0.9,80.5-2.4,121-1.3c5.6-21.6,1.1-45.7-9.4-65.4
		C279.5,419.7,272.3,410.5,262.3,413.3z"/>
	<path style="fill:#A5A59C;" d="M128.4,357.7c-31.3,15-59.3,42.7-73.4,75.2c13.3-0.9,26.5,0.2,39.4-0.4c16.6-19,33.8-37.8,54.5-52.7
		C146.5,369.6,137,362.6,128.4,357.7z"/>
	<path style="fill:#FF69B4;" d="M562.7,215.6c-1.4,38.1-5.9,75.7-16.6,112.8c-12.2,38.1-39.9,78.7-83.2,82.3
		c-43.5,8.2-82.1-19.5-118.3-38.6c-23.6,5.5-45.6,18-65.9,30.7c26,21.5,33.2,57.5,28,89.4c121.8-0.5,243.2,1.3,365-0.8
		c-18.1-89.6-28.3-181.7-31.2-274C614.7,216.6,588.5,216.1,562.7,215.6z"/>
	<path style="fill:#FF69B4;" d="M272.7,341.4c-26.5,7-52.5,18.3-75.3,33.2c13.3,10,22.5,24.1,26.8,40.3c25.9-17.9,53-33.7,81-48.3
		C293.8,359.3,286.1,342.1,272.7,341.4z"/>
	<path style="fill:#FF69B4;" d="M191,327.2c-17,5.1-33.3,13.3-49.1,20.9c4.2,7.7,13.7,15,17.2,24.5c17.8-12.8,37.7-23,56.4-34.3
		C207.7,334.5,199.9,327.1,191,327.2z"/>
</g>
</svg>