<?xml version="1.0" encoding="utf-8"?>
<!-- Generator: Adobe Illustrator 25.4.8, SVG Export Plug-In . SVG Version: 6.00 Build 0)  -->
<svg version="1.1" id="Layer_1" xmlns="http://www.w3.org/2000/svg" xmlns:xlink="http://www.w3.org/1999/xlink" x="0px" y="0px"
	 viewBox="0 0 720 720" style="enable-background:new 0 0 720 720;" xml:space="preserve">
<!-- <style type="text/css">
	.st0{fill="#111111"}
	.st1{fill="#21FF94"}
	.st2{fill="#FCFEFB"}
	.st3{fill="#A5A59C"}
	.st4{fill="#CEF75A"}
</style> -->
<g>
	<path class="st0" fill="#111111" d="M566.4,272.3c-0.6-6.7-0.5-13.5-1-20.2c-0.4-6.9-1.7-13.7-2.7-20.5c-0.5-3.7-1.6-7.1-1.9-10.7
		c-0.1,0-0.1,0-0.2-0.1c-11-41-33.3-78.9-64.1-108.1c3.3-16.8,4.3-37-6.6-51.7c-2.8-2.9-7.8-9-11.6-4.2
		c-7.8,8.7-12.3,19.8-19.9,28.6c-3.9-3.6-9.7-4.2-13.7-7.4c-9.9-18.4-25.2-34.3-44.3-43.2c-18.4-9.4-39.7-11.9-60.1-9.6
		c-29.6,3.6-57.5,20.4-73,46.1c-4.9,3.7-10.5,6.5-15.8,9.6c-9-6.8-13.3-17.7-20.3-26.2c-1.7-2.3-4.6-0.6-6.3,0.7
		c-6.8,5.2-9.5,13.9-10.7,22c-2.3,11.1-0.3,22.4,2.8,33.2c-29.2,29.7-51.4,66.4-64,106.2c-0.1,0-0.2,0.1-0.3,0.1
		c-0.3,2.3-1,4.3-1.6,6.9c-0.5,2.2-1,4.3-1.5,6.5c0,0.5-0.3,1.7-0.4,2c-0.1,0.6-0.3,1.2-0.5,1.7c-0.3,1.3-0.6,2.5-0.9,3.8
		c-0.1,0.3-0.1,0.5-0.2,0.8c-0.3,5.3-1.6,10.5-2.2,15.7c-0.3,2.7-0.4,6-1.3,8.7c0,0.4,0,0.8,0,1.2c-1.5,9.9-0.7,20.1-0.5,30
		c0.4,0.8,0.4,2.2,0.6,2.9c0.9,13.7,4.4,27,8.7,40c0.7,1.5,1.5,2.9,2.1,4.4c0.9,2.8,1.9,5.2,3.3,7.8c2.5,4.6,4.8,9.4,7.3,14.1
		c2.5,4.8,5.2,9.6,8.6,13.8c3.2,4.1,5.8,8.5,8.9,12.6c0.2,0.3,0.4,0.6,0.5,0.8c2.6,2.9,4.7,6.2,7.1,9.1c2.7,3.3,5.7,5.9,8.8,8.7
		c1.9,1.7,3.4,3.8,5.3,5.4c1.2,0.8,2.5,1.5,3.4,2.5c0.3,0.4,0.6,0.7,0.8,1.1c1.5,1,2.9,2.2,4.2,3.5c0,0,0,0.1,0,0.1
		c1.7,1,3.5,2.3,5.3,3.4c5.6,3.2,10.8,6.8,16.1,10.4c0.3,0.1,0.6,0.2,0.9,0.4c5.9,3.1,12.2,5.6,18,8.9c2.3,1.3,5,2.2,7.2,3.5
		c1.8,0.8,3.4,1.8,5.4,2.3c3,0.8,5.8,2.3,8.8,3.3c48.8,14.8,101.9,13.1,150.8-0.5c0,0,0.1,0.1,0.1,0.1c0.2-0.1,0.5-0.3,0.7-0.4
		c4.1-1.7,8.1-3.2,12.1-5.1c3.8-1.8,8.4-3.1,11.7-5.7c0.9-0.7,1.8-1.1,2.8-1.2c3.7-2.6,8.2-3.3,12.1-5.7c0.5-0.3,1.1-0.6,1.6-0.7
		c2.1-1,4.1-2.2,6.1-3.2c0.9-0.8,2-1.4,3.2-1.9c0.7-0.6,1.3-1.2,2.1-1.7c1.8-1.2,3.8-1.8,5.7-2.7c1.3-0.6,2.5-1.1,3.7-1.6
		c0.4-0.7,1-1.2,1.7-1.6c0.3-0.2,0.7-0.3,1.1-0.5c3.2-4.3,8.8-7.3,13-10.9c0,0,0.1,0,0.1,0c2.5-4.1,6.8-7.6,10.2-10.9
		c4.2-4.1,8.4-8.2,12.2-12.8c4.2-5,7.7-10.6,11.3-16c2.3-3.4,3.6-7.2,6.2-10.3c0.1-0.1,0.1-0.3,0.2-0.4c4-6.3,6.9-13.2,10.1-19.9
		c0,0,0-0.1,0.1-0.1c2.2-4.6,4.2-9.7,6-14.8c-0.1,0-0.2-0.1-0.2-0.1c2.7-12.1,5.5-24.5,6.6-36.9
		C565.6,282.8,566.8,277.4,566.4,272.3z"/>
	<path class="st1" fill="#21FF94" d="M399.6,172.8c4.5,22.9-11.9,47.4-34.8,52c-25.4,7.3-53.9-12.5-56.2-38.8c-4.5-25.8,17.7-51.7,43.8-51.9
		C374.8,132.8,396.7,150.4,399.6,172.8z M379.3,191.8c5.6-12.2,1.8-28.9-10.3-35.6c-5.5-3.8-12.5-4.8-19.1-3.9
		c-13.7,1.4-24.3,15.1-23.4,28.6c0.1,13.6,12.1,25.8,25.6,26.5C363.1,208.3,374.4,201.8,379.3,191.8z"/>
	<path class="st2" fill="#FCFEFB" d="M424.9,104.7c22.7,19.9,36,50.2,35.1,80.5c-0.5,32.7-17.5,64.7-44.6,83c-37.5,27.3-93.2,24.5-127.8-6.5
		c-22.9-19.5-37-49.7-35.9-79.9c-0.8-37.8,22.4-74.5,55.9-91.5c10.9-5.8,23-9.3,35.3-10.9C372.2,75.7,403,84.7,424.9,104.7z
		 M400.8,202.3c7.2-14.7,6.5-33-1.7-47.1C389,136,365.7,125.9,344.6,130c-23.5,4.3-42.2,26.8-41.2,50.8
		c-0.7,26.7,23.4,51.4,50.3,50.3C373.4,232.5,392.7,220.1,400.8,202.3z M357.4,176.3c3.8,2.9,11.5,0.9,10.9-4.8
		c1.2-5.1-4.8-8.7-9.2-6.6C354.5,166.5,354,173.2,357.4,176.3z"/>
	<path class="st3" fill="#A5A59C" d="M227.1,60.1c-9.6,12.1-6.9,29.6-3.3,43.6c7.6-5.9,14.8-12.5,22.5-18.3c-6.2-7.6-10.6-16.5-16-24.7
		C229.9,59.4,228,59.1,227.1,60.1z"/>
	<path class="st3" fill="#A5A59C" d="M480.8,60.9c-6.3,8.7-10.5,18.7-16.1,27.8c8.1,5.8,16.3,11.4,24.2,17.4c4-12.9,3.8-27.5-1.7-40
		C485.5,64.1,484.2,60,480.8,60.9z"/>
	<path class="st4" fill="#CEF75A" d="M144.1,264.7c-0.7,4.7-0.8,9.4-0.8,14.2C143.4,274.2,143.7,269.4,144.1,264.7z"/>
	<path class="st4" fill="#CEF75A" d="M147.7,239.6c0.4-2,0.8-4,1.3-6c0,0.1-0.1,0.3-0.1,0.4c-0.3,1.3-0.6,2.5-0.9,3.8c-0.1,0.3-0.1,0.5-0.2,0.7
		C147.7,238.9,147.7,239.3,147.7,239.6z"/>
	<path class="st4" fill="#CEF75A" d="M188.9,397.4c0.6,0.8,1.2,1.6,1.9,2.4c1.9,2.3,4,4.3,6.2,6.3C194.2,403.3,191.5,400.4,188.9,397.4z"/>
	<path class="st4" fill="#CEF75A" d="M522.8,158.2c-18.8-28.9-43.4-55.6-74.8-70.9c1.1,2.5,2.6,4.9,2.9,7.6c-12.4-16.2-25.4-32.7-42.8-43.9
		c-18.4-13.3-41.9-18.4-64.3-16.2c-21.6,2.3-42.1,11.9-57.9,26.7c-10.7,8.4-18.2,20-27.1,30.1c0.9-3.6,2.9-6.9,3.6-10.6
		c-28.5,18.8-51.4,45.3-70,73.7c-26.5,41.5-43.7,90.9-38.9,140.6c6.2,62.5,50,118.9,108.1,142.1c31.4,13.1,66,17.4,99.8,14.9
		c54.1-3.4,109-23.1,147.7-62.2c27.4-27.6,44.5-65.1,47.2-104C560.2,241.3,546.5,196.1,522.8,158.2z M263.2,122.8
		C281,95.1,311.7,76,344.6,73c28.7-2.9,58.5,5.7,80.7,24.2c21.4,17.2,35.7,42.7,39.4,69.9c0.4,7.7,2.7,15.4,0.6,23.1
		c-1.9,36.3-24.1,70.1-55.4,87.9c-43.8,25.7-105,15.6-137.3-23.8C240.6,219.1,236.9,162.4,263.2,122.8z M391.3,390.6
		c-21.1,8.9-45.4,9.8-67.2,3.1c-5.7-2.8-12.1-5.3-16-10.6c12.5,5.1,26,7.9,39.6,7.4c22.4,0.7,46.1-3.1,64.8-16.2
		c0.3-0.2,0.8-0.5,1-0.6C408.1,381.4,399.7,386.5,391.3,390.6z M513.9,262c-14.8,31.3-38.1,58.9-67.7,77.4
		c-43.5,27.8-99.6,35.7-148.8,19.5c-34.9-11.1-65.4-34.3-87.1-63.7c-6.7,2-12.4,6.6-17.1,11.7c4.6-17,27.5-25.9,42.4-16.5
		c-7,0.2-14.1,0.4-20.6,3c33.6,44.6,90.3,71.1,146.1,66.5c62.1-3.4,120.8-42.4,147.6-98.6c-7.3-1.2-15.1-1-22.2,1.6
		c1.7-3.9,7.1-3.6,10.5-5.4c13.4-2.1,31-0.1,38.3,12.9C528.6,266.5,521.5,263.5,513.9,262z"/>
	<path class="st4" fill="#CEF75A" d="M565.5,252.7c0-0.2,0-0.4,0-0.7c-0.4-6.9-1.7-13.7-2.7-20.5c-0.1-0.4-0.1-0.7-0.2-1.1c-0.1,0-0.1,0-0.2-0.1
		C563.8,237.8,564.8,245.2,565.5,252.7z"/>
	<path class="st4" fill="#CEF75A" d="M557,332.2c0,0-0.1-0.1-0.1-0.1c-1,2.5-2,4.9-3,7.4C555,337.1,556,334.7,557,332.2z"/>
	<path class="st4" fill="#CEF75A" d="M531.7,378.5c-3.3,4.6-6.9,9-10.7,13.3c1.6-1.7,3.3-3.5,4.8-5.4C527.9,383.9,529.9,381.2,531.7,378.5z"/>
</g>
</svg>
