<?xml version="1.0" encoding="utf-8"?>
<!-- Generator: Adobe Illustrator 25.4.8, SVG Export Plug-In . SVG Version: 6.00 Build 0)  -->
<svg version="1.1" id="Layer_1" xmlns="http://www.w3.org/2000/svg" xmlns:xlink="http://www.w3.org/1999/xlink" x="0px" y="0px"
	 viewBox="0 0 720 720" style="enable-background:new 0 0 720 720;" xml:space="preserve">
<g>
	<path style="fill:#111111;" d="M536,283.6c-28.3-10.6-45.4,19.7-66.9,32.1c-11.1-2.8-22.4-10-34.3-6.1
		c-18.4,7.7-29.3,25.9-46.5,35.9c-14.6-5.8-29.6-16.9-46.2-12.8c-27.5,12.8-51.1,36.1-82.5,38.9c-19.5,4.3-37.1-9.2-49-23.1
		c-27.8-35-44.7-77.4-58.4-119.6c-1.6-4.4-3.2-8.4-4.4-12.9c-47.1,7.7-94.1,16.2-141.4,18.9c17,91,30.5,182.7,41.9,274.8
		c1.2,9.6-4.3,27.4,11.1,26.1c146,8.9,292.5,9.7,438.7,8.8c18.3-1.2,37.3-0.7,55.1-6.1c-1.4-14.2-9-26.5-15.8-38.6
		c36.9-0.9,75.3,4,111.2-6.9c-0.1-13.1-9.5-23.5-15.4-34.7c25.3-2.2,51.9,6.9,76.1-2.7c0.7-16.1-10.6-29.1-18-42.5
		C652.8,356.5,600.1,307.7,536,283.6z"/>
	<path style="fill:#A5A59C;" d="M413.1,417.1c-27,19.3-38.9,64.5-16.1,90.8c8.2,10,21.7,5,32.3,5.4c27.6-2,55.4,2.6,82.6-2.6
		c-22.4-36.9-50.8-69.6-82.5-98.8C423.8,412.7,417.9,413.9,413.1,417.1z"/>
	<path style="fill:#A5A59C;" d="M598.3,352.7c-1.3,1-3.6,2.2-4.5,2.7c-13.1,5.2-28.6,23.6-15.8,36.6c13.4,12.2,23.6,26.8,35.4,40
		c18.1-1.9,36.3-3.7,54.6-4.9C649.4,398.6,625.4,373.3,598.3,352.7z"/>
	<path style="fill:#A5A59C;" d="M517.3,379.3c-15.1,9.6-30.3,26.1-26.8,45.4c0.8,14.7,12.7,25,20.2,36.9c4.9,6.3,9.1,16.3,18.6,14.8
		c27.5-0.5,55.4,1.1,82.7-2.2c-24.2-37.2-54.6-70.6-90.5-97.1C520.6,377.9,518.3,378.7,517.3,379.3z"/>
	<path style="fill:#CEF75A;;" d="M518.6,308.6c-9.3,5.9-17.1,14.4-24.5,22.4c25.7,10.4,45.7,30.3,68,45.4c4.6-12.9,14.3-22.9,25-30.8
		C566.7,331.1,544.5,309.1,518.6,308.6z"/>
	<path style="fill:#CEF75A;;" d="M437.2,337.4c-9.8,7.4-19.2,14.8-27.6,23.4c26,15.4,47.1,36.9,69,57.2
		c-0.1-21.8,16.7-36.1,30.7-49.4C487.5,355.9,464.2,330.5,437.2,337.4z"/>
	<path style="fill:#CEF75A;;" d="M355.7,359.7c-35.8,18.5-73.1,44.2-115.8,38c-30.7-2.5-54.9-25.2-69.4-50.6
		c-24.6-39-39.9-82.3-52.5-126.3c-26,4.2-51.7,8.3-77.7,11c15.2,91.3,27.1,183.7,39.1,275.3c102.2,8,205.8,4.8,308.4,5.8
		c-31.8-31.7-14.1-92.7,24.9-110.4c4.3-3.8-2.5-6.8-4.7-8.9C390.8,382.4,375.7,366.9,355.7,359.7z"/>
</g>
<path style="fill:#FFFFFF;stroke:#000000;stroke-miterlimit:10;" d="M-65.5,600.7"/>
</svg>
