<?xml version="1.0" encoding="utf-8"?>
<!-- Generator: Adobe Illustrator 24.0.1, SVG Export Plug-In . SVG Version: 6.00 Build 0)  -->
<svg version="1.1" id="Layer_1" xmlns="http://www.w3.org/2000/svg" xmlns:xlink="http://www.w3.org/1999/xlink" x="0px" y="0px"
	 viewBox="0 0 720 720" style="enable-background:new 0 0 720 720;" xml:space="preserve">
<style type="text/css">
	.st0{fill:#111111;}
	.st1{fill:#21FF94;}
	.st2{fill:#FCFEFB;}
	.st3{fill:#A5A59C;}
	.st4{fill:#CEF75A;}
</style>
<g>
	<path class="st0" d="M703.1,284c-16.5-11.3-34.6-19.8-52.8-28c-29.2-13.3-59.3-24.9-89.7-35.2c-11-41-33.3-78.9-64.1-108.1
		c3.3-16.8,4.3-37-6.6-51.7c-2.8-2.9-7.8-9-11.6-4.2c-7.8,8.7-12.3,19.8-19.9,28.6c-3.9-3.6-9.7-4.2-13.7-7.4
		c-9.9-18.4-25.2-34.3-44.3-43.2c-18.4-9.4-39.7-11.9-60.1-9.6c-29.6,3.6-57.5,20.4-73,46.1c-4.9,3.7-10.5,6.5-15.8,9.6
		c-9-6.8-13.3-17.7-20.3-26.2c-1.7-2.3-4.6-0.6-6.3,0.7c-6.8,5.2-9.5,13.9-10.7,22c-2.3,11.1-0.3,22.4,2.8,33.2
		c-29.2,29.7-51.4,66.4-64,106.2c-22.6,12.5-44.8,26.1-65.6,41.6c-23.4,16.9-46.2,34.7-66.8,54.9c-4,4.7-10.1,9.3-10.1,15.9
		c2.6,6.4,8.3,10.9,13.5,15.2c20,13.4,40.5,26.3,62.5,36c10.9,5.4,22.8,8.6,33.4,14.5c13.1,10.9,24.9,23.4,39.4,32.5
		c9,6.7,21.2,9.6,32,5.9c4.9-2,4.9-7.9,6.5-12.1c2.3-2.4,5.5-3.9,8.4-5.3c2.6,1.2,4.9,3.1,7,5.1c0.5,3.1-1.4,5.9-2.4,8.8
		c-9.6,25.9-20.8,51.2-28.4,77.8c-3,9.9,1,20,2.3,29.9c2.9,17.9,6.8,35.8,6.1,54.1c0.5,10.3-1.1,21.6-7.9,29.8
		c-10.7,9.8-26.2,4.7-38.5,1.4c-3.7-1.7-7,0.6-10.1,2.2c-6.8-0.7-11-8.3-18-8.2c-4.4,0.9-7.9,4.1-12.2,5.5c-4.8-1-9-6.5-14.3-4.1
		c-18.1,7-33.3,21.3-41.7,38.8c-2.2,5.4-5,10.9-3.8,16.9c6-0.3,11.9-1.6,17.9-2.4c-0.3,2.4-2,5-0.8,7.3c8,1.1,15.7-1.4,23.5-2.4
		c-0.4,2.5-4.4,7.7-0.2,8.3c51.8-6.7,103.1-16.6,154.2-27.2c6.6-1.8,13.4-2.8,19.8-5.2c-16.3-38.8-30.4-79.2-36.5-121
		c-1.2-5.1,0.1-10.1,2.9-14.4c13.4-23.2,29.5-45.3,48.9-63.9c49.1,15.1,102.5,13.5,151.7-0.2c12.9,11.3,24.2,24.6,35.4,37.6
		c8.4,10.4,17.5,20.5,23.1,32.7c0.4,10.8,0.6,21.7-0.4,32.5c0.2,33.8-1.4,67.5-3.9,101.2c-0.2,2.7-2.7,7.3,1.6,7.8
		c39.7,10.6,80,19,120.3,26.9c5.1,0.7,10.3,1.9,15.5,1.4c0.4-4-1-7.8-2.2-11.5c10.2,1.8,20.5,5.3,31,4.3c0.7-3.6-1.3-7-2.3-10.4
		c7.1,0.8,13.9,4.8,21.1,3.5c1.1-4.4-1.3-8.6-2.6-12.7c-7.4-17.6-19.2-34-35.5-44.2c-7.2-4.5-13.6,2.9-20.2,5.1
		c-2.9-1.4-5.6-4-9.1-3.6c-5.5,1.1-9.5,5.5-14.8,7.3c-3.7-2.4-7.2-6.3-12-6.1c-8.3,2-16.1,7.1-24.9,6.1c-5.6,0.1-9.7-4.6-12.2-9.1
		c-5.7-11.2-8-23.8-9.4-36.2c-3.9-24.7-2.1-49.9-5.2-74.6c-8.8-30-22.1-58.6-29.1-89.1c3.1-4.7,9.1-7.8,13.5-11.6
		c4.4-0.6,9,0.2,13.4,0.1c4,5.6,3.7,14.6,10.4,18.2c7.8,2,15.9-0.7,23-4.1c19-9.7,33.7-25.6,48.6-40.5c3.9-4.2,8.5-7.6,13.3-10.7
		c30.9-22.2,63.2-43.2,90.2-70.3c2-2.9,3.7-6,5.3-9.1C708.9,289.8,705.6,286.6,703.1,284z M130,358.3c-4.7,3.4-9.4-1.6-13.3-3.9
		c-13.3-10-26.5-20.2-37.9-32.2c20.1-11.7,41.9-20.4,63.6-28.6c1.8-0.4,1.5,2.4,1.8,3.5c1,14.5,4.8,28.6,9.5,42.3
		C146.6,346.4,138.7,353.2,130,358.3z M588.8,346c-8-9.1-17.4-17.5-29.2-21.3c2.9-12.8,5.8-25.8,6.8-38.9
		c22.3,2.1,44.6,7.1,66.1,13.4C619.5,315.9,605.5,332.7,588.8,346z"/>
	<path class="st1" d="M399.6,172.8c4.5,22.9-11.9,47.4-34.8,52c-25.4,7.3-53.9-12.5-56.2-38.8c-4.5-25.8,17.7-51.7,43.8-51.9
		C374.8,132.8,396.7,150.4,399.6,172.8z M379.3,191.8c5.6-12.2,1.8-28.9-10.3-35.6c-5.5-3.8-12.5-4.8-19.1-3.9
		c-13.7,1.4-24.3,15.1-23.4,28.6c0.1,13.6,12.1,25.8,25.6,26.5C363.1,208.3,374.4,201.8,379.3,191.8z"/>
	<path class="st2" d="M424.9,104.7c22.7,19.9,36,50.2,35.1,80.5c-0.5,32.7-17.5,64.7-44.6,83c-37.5,27.3-93.2,24.5-127.8-6.5
		c-22.9-19.5-37-49.7-35.9-79.9c-0.8-37.8,22.4-74.5,55.9-91.5c10.9-5.8,23-9.3,35.3-10.9C372.2,75.7,403,84.7,424.9,104.7z
		 M400.8,202.3c7.2-14.7,6.5-33-1.7-47.1c-10.1-19.2-33.4-29.3-54.5-25.2c-23.5,4.3-42.2,26.8-41.2,50.8
		c-0.7,26.7,23.4,51.4,50.3,50.3C373.4,232.5,392.7,220.1,400.8,202.3z M357.4,176.3c3.8,2.9,11.5,0.9,10.9-4.8
		c1.2-5.1-4.8-8.7-9.2-6.6C354.5,166.5,354,173.2,357.4,176.3z"/>
	<path class="st3" d="M73.6,636.3c2.9,1,6.2,2.6,7.5,5.6c-5.5,5.7-9.7,12.4-13.7,19.1c-3.9,0.9-8,1.3-12,2.3
		C57.9,652.6,64.9,642.6,73.6,636.3z M638.7,644.9c-3.9,0.7-9.2,4.9-6.4,9.2c3,4.1,5,8.7,7.5,13c5.1,0.5,10.2,1,15.3,1.7
		c-3.5-8.9-8.7-17.2-15-24.4C639.7,644.6,639,644.8,638.7,644.9z M616.3,647.2c-4.7,1.8-9.8,5.5-9.9,11c-0.6,4.1,2.1,7.6,3.5,11.3
		c1,2,1.6,5,4.3,5.1c7.6,1.4,15.2,3.4,22.9,4c-4.6-11.6-11.1-22.5-19.5-31.8C617.3,647,616.6,647.1,616.3,647.2z M585.5,651.8
		c-8.5,3.8-14.3,15.6-9.5,24.1c1.7,3.2,5.7,2.6,8.6,3.3c7.7,1,15.1,3.8,22.9,3.9c-4.1-11.4-10.1-22-17.2-31.8
		C588.7,651.2,587,651.2,585.5,651.8z M480.8,60.9c-6.3,8.7-10.5,18.7-16.1,27.8c8.1,5.8,16.3,11.4,24.2,17.4
		c4-12.9,3.8-27.5-1.7-40C485.5,64.1,484.2,60,480.8,60.9z M227.1,60.1c-9.6,12.1-6.9,29.6-3.3,43.6c7.6-5.9,14.8-12.5,22.5-18.3
		c-6.2-7.6-10.6-16.5-16-24.7C229.9,59.4,228,59.1,227.1,60.1z M117.5,645.8c-8.8,8.8-17.8,18.5-23,29.7c12.2-2.5,24.4-5.2,36.8-7.1
		c0.5-6.9-2.2-14-6.5-19.4C123.1,646.8,120.4,644.4,117.5,645.8z M69.4,670.3c7.3-0.9,14.5-2.2,21.6-3.9c3.9-4.7,7.6-9.5,11.6-14.2
		c-0.2-5.8-6.1-10.8-11.8-10.8C82.2,649.7,74.8,659.5,69.4,670.3z"/>
	<path class="st4" d="M695.9,290.4c3.5,2.3,0.2,5.9-1.7,8.1c-18.5,19.2-40.3,34.7-61.1,51.2c-14,10.8-28.8,20.6-41.5,32.9
		c-14.6,13-28.9,26.8-46.5,35.8c-5.3,1.7-11.8,5.5-16.8,1.1c-2.9-4.2-3.2-9.6-5.8-14c-3.2-2.9-8.1-0.7-11.3-3.5
		c20.4-19.4,35.5-43.8,45.7-69.9c11.4,6,21.1,14.6,30.9,22.7c20.8-17,40.6-35.4,58.1-55.9c2.1-1.8,0.1-3.9-1.9-4.6
		c-24.5-11-51.2-15.5-77.1-21.5c-0.8-14.2-1.8-28.4-4.5-42.4c35,11.2,68.6,26.6,102.1,41.8C675.2,277.7,686.3,282.9,695.9,290.4z
		 M620.6,627.8c-2.9,1.1-5.5,3-8,4.8c6.5,4.3,10.9,10.9,16.2,16.3c2-3.3,5.2-5.5,8.6-7.1C632.6,636.7,627.7,629.4,620.6,627.8z
		 M596.6,631.2c-3.1,1.5-6.1,3-8.9,4.9c6.3,5.7,10.9,12.8,15.8,19.6c1.2-6,6.6-9,11.2-11.9C609.4,639.1,604.4,630.8,596.6,631.2z
		 M572.9,632.8c-10.9,3.1-22.6,8.1-34,4c-8.3-2.4-13.7-10-16.3-17.8c-8-21.1-7.6-44-9.1-66.2c-0.7-13.9,1.6-28.2-1.6-41.9
		c-9.5-27.7-22-54.2-30.8-82.2c-0.4-0.6-0.8-2.8-1.8-1.7c-12.5,8.2-26.3,14.2-39.8,20.4c19,24.4,38.2,48.8,53.7,75.6
		c1.9,45.1-1.6,90.1-4.6,135c27.7,7.9,56.4,12.8,84.6,18.8c-7-10.5,1.3-26.3,13-29c1.4-0.8-0.3-2-0.8-2.7
		C581.3,641,578,635.9,572.9,632.8z M448,87.3c1.1,2.5,2.6,4.9,2.9,7.6c-12.4-16.2-25.4-32.7-42.8-43.9
		c-18.4-13.3-41.9-18.4-64.3-16.2c-21.6,2.3-42.1,11.9-57.9,26.7c-10.7,8.4-18.2,20-27.1,30.1c0.9-3.6,2.9-6.9,3.6-10.6
		c-28.5,18.8-51.4,45.3-70,73.7c-26.5,41.5-43.7,90.9-38.9,140.6c6.2,62.5,50,118.9,108.1,142.1c31.4,13.1,66,17.4,99.8,14.9
		c54.1-3.4,109-23.1,147.7-62.2c27.4-27.6,44.5-65.1,47.2-104c3.9-44.8-9.8-90-33.5-127.9C504,129.3,479.4,102.6,448,87.3z
		 M446.2,339.4c-43.5,27.8-99.6,35.7-148.8,19.5c-34.9-11.1-65.4-34.3-87.1-63.7c-6.7,2-12.4,6.6-17.1,11.7
		c4.6-17,27.5-25.9,42.4-16.5c-7,0.2-14.1,0.4-20.6,3c33.6,44.6,90.3,71.1,146.1,66.5c62.1-3.4,120.8-42.4,147.6-98.6
		c-7.3-1.2-15.1-1-22.2,1.6c1.7-3.9,7.1-3.6,10.5-5.4c13.4-2.1,31-0.1,38.3,12.9c-6.7-3.9-13.8-6.9-21.4-8.4
		C499.1,293.3,475.8,320.9,446.2,339.4z M409.9,278.1c-43.8,25.7-105,15.6-137.3-23.8c-32-35.2-35.7-91.9-9.4-131.5
		c17.8-27.7,48.5-46.8,81.4-49.8c28.7-2.9,58.5,5.7,80.7,24.2c21.4,17.2,35.7,42.7,39.4,69.9c0.4,7.7,2.7,15.4,0.6,23.1
		C463.4,226.5,441.2,260.3,409.9,278.1z M391.3,390.6c-21.1,8.9-45.4,9.8-67.2,3.1c-5.7-2.8-12.1-5.3-16-10.6
		c12.5,5.1,26,7.9,39.6,7.4c22.4,0.7,46.1-3.1,64.8-16.2c0.3-0.2,0.8-0.5,1-0.6C408.1,381.4,399.7,386.5,391.3,390.6z M222.2,428
		c-10.3,24-21.3,47.8-30.2,72.3c-1.9,6.5-5.5,13-3.6,19.9c5.5,27.7,13.9,55.6,10.9,84c-1.6,12.3-7.8,26.2-20.8,29.7
		c-12.8,4.9-26.1-1.4-38.2-5.2c-6.9,3-12.9,8-18.4,13c9.1,5.1,13.3,15.7,13.5,25.7c37.1-6.9,74.2-13.1,111.2-20.5
		c-15.5-38.7-26-80.1-31.7-121.6c-0.9-4,2-7.4,3.5-10.8c12.8-23.2,26.7-45.9,43.5-66.5c-13.9-5.2-26.9-12.6-39.4-20.6L222.2,428z
		 M158.2,349.5c-9.3,6.8-18.9,13.7-29.8,17.5c-6.8,0.1-12.4-4.6-18.1-7.7c-16.4-10.9-32.9-22.3-46.2-37c5.4-5.7,12.7-9.1,19.4-13
		c19.1-10.9,39.6-19.3,59.7-28c0.3-17.6,2.6-35.3,6.8-52.4c-0.4,0.2-1.1,0.5-1.4,0.7c-38.7,23.5-75.6,49.9-110.2,79.1
		c-5.3,5.5-11.9,10.2-15.2,17.2c0.1,4.2,4.3,7,7,9.9c27.5,23.7,61,38.6,93.4,54.2c15.4,11.6,29.1,25.8,46.2,35.1
		c6.4,2.6,13.8,5,20.5,2c1.9-2.5,1.5-5.7,2-8.6c0.8-4.6,8-4.4,9.4-7.6C183.4,393.3,168.3,372.6,158.2,349.5z M95.6,637.6
		c4.6,2.3,8.2,6.1,10.4,10.8c6.9-6.9,14.3-13.2,22-19.2c-3.9-1.6-7.2-6.4-11.3-5.9C109,626.9,101.7,631.8,95.6,637.6z M91,623.5
		c-4.9,2.5-9.4,5.9-13.8,9.1c1.7,2.1,5,3.8,6.6,6.5c4.7-4.9,10.2-9.1,15.3-13.6C96.5,624.8,93.7,623,91,623.5z"/>
</g>
</svg>
